SplineFontDB: 3.0
FontName: FanwoodText-Italic
FullName: Fanwood Text Italic
FamilyName: Fanwood Text
Weight: Regular
Copyright: Copyright (c) 2011, Barry Schwartz
UComments: "Spread Fanwood Italic by using the emboldener. Set to 6, CJK, Squish." 
Version: 1.1
ItalicAngle: -9
UnderlinePosition: -100
UnderlineWidth: 50
Ascent: 690
Descent: 310
LayerCount: 3
Layer: 0 0 "Back"  1
Layer: 1 0 "Fore"  0
Layer: 2 0 "backup"  0
NeedsXUIDChange: 1
XUID: [1021 658 797806517 11107023]
OS2Version: 0
OS2_WeightWidthSlopeOnly: 0
OS2_UseTypoMetrics: 1
CreationTime: 1287776574
ModificationTime: 1295556529
OS2TypoAscent: 0
OS2TypoAOffset: 1
OS2TypoDescent: 0
OS2TypoDOffset: 1
OS2TypoLinegap: 0
OS2WinAscent: 0
OS2WinAOffset: 1
OS2WinDescent: 0
OS2WinDOffset: 1
HheadAscent: 0
HheadAOffset: 1
HheadDescent: 0
HheadDOffset: 1
OS2Vendor: 'PfEd'
Lookup: 3 0 0 "'aalt' Access All Alternates lookup 0"  {"'aalt' Access All Alternates lookup 0 subtable"  } ['aalt' ('DFLT' <'dflt' > ) ]
Lookup: 3 0 0 "'aalt' Access All Alternates in Latin lookup 0"  {"'aalt' Access All Alternates in Latin lookup 0 subtable"  } ['aalt' ('latn' <'CAT ' 'ROM ' 'MOL ' 'TRK ' 'AZE ' 'CRT ' 'dflt' > ) ]
Lookup: 1 0 0 "catalan"  {"catalan subtable"  } ['locl' ('latn' <'CAT ' > ) ]
Lookup: 1 0 0 "romanian"  {"romanian subtable"  } ['locl' ('latn' <'ROM ' 'MOL ' > ) ]
Lookup: 1 0 0 "turkish"  {"turkish subtable"  } ['locl' ('latn' <'TRK ' 'AZE ' 'CRT ' > ) ]
Lookup: 1 0 0 "numerators"  {"numerators subtable"  } ['frac' ('latn' <'dflt' 'CAT ' 'ROM ' 'MOL ' 'TRK ' 'AZE ' 'CRT ' > 'DFLT' <'dflt' > ) 'numr' ('latn' <'dflt' 'CAT ' 'ROM ' 'MOL ' 'TRK ' 'AZE ' 'CRT ' > 'DFLT' <'dflt' > ) ]
Lookup: 1 0 0 "denominators"  {"denominators subtable"  } ['dnom' ('latn' <'dflt' 'CAT ' 'ROM ' 'MOL ' 'TRK ' 'AZE ' 'CRT ' > 'DFLT' <'dflt' > ) ]

StartChar: a
Encoding: 97 97 0
Width: 433
VWidth: 0
Flags: HW
AnchorPoint: "top" 284 500 basechar 0
AnchorPoint: "l;bl" 0 10 basechar 0
AnchorPoint: "l;x" 20 380 basechar 0
AnchorPoint: "l;o" 0 200 basechar 0
AnchorPoint: "r;bl" 413 10 basechar 0
AnchorPoint: "r;x" 433 380 basechar 0
AnchorPoint: "r;o" 433 200 basechar 0
LayerCount: 3
Fore
SplineSet
252 390 m 0
 275.998603852 390 296.962385735 378.444524242 310.466576575 358.707629936 c 0
 318.038804129 347.769967914 324.275120612 335.416848919 327.095418058 332.678895923 c 1
 331.25026712 341.197057828 339.596960989 370.99734679 340 373.151712775 c 1
 340 373.544003745 l 1
 340.191012467 374.053370325 l 0
 344.291326499 384.987541075 365.62298854 385.119455997 378.638451229 386.978807809 c 1
 387.502029853 387.865165672 403 387.525597417 403 379 c 0
 403 363.470083721 322 105.976281819 322 63 c 0
 322 53.3105535511 325.707083858 46 333 46 c 0
 345.458753795 46 389.796756694 102 397 102 c 0
 403.176696627 102 411 94.4820917125 411 85 c 0
 411 77.9403356953 325.861879871 -14 281 -14 c 0
 263.920640558 -14 251 -4.89690465425 251 13 c 0
 251 45.487205407 283.943101328 151.792405784 299.365330555 199.941642055 c 1
 278.080937543 164.569635087 237.124921807 100.981584888 188.150984756 49.9087648201 c 0
 153.358726871 14.122442424 128.615817754 -13 90 -13 c 0
 45.133393966 -13 22 19.7952879802 22 59 c 0
 22 175.298341553 98.9319560975 390 252 390 c 0
232 344 m 0
 167.652258966 344 97 176.930399671 97 96 c 0
 97 73.1241262352 100.621236113 46 120 46 c 0
 153.031984801 46 246.310851854 154.352296498 296.450914221 236.58199878 c 1
 307.898321215 254.707059854 311 284.509557151 311 289 c 0
 311 324.007471322 261.625699524 344 232 344 c 0
EndSplineSet
AlternateSubs2: "'aalt' Access All Alternates lookup 0 subtable" a.sub a.sup a.denom a.numer
AlternateSubs2: "'aalt' Access All Alternates in Latin lookup 0 subtable" a.sub a.sup a.denom a.numer
Substitution2: "'subs' Subscript in Latin lookup 8 subtable" a.sub
Substitution2: "'sups' Superscript in Latin lookup 7 subtable" a.sup
Substitution2: "denominators subtable" a.denom
Substitution2: "numerators subtable" a.numer
EndChar

StartChar: b
Encoding: 98 98 1
Width: 453
VWidth: 0
Flags: HW
AnchorPoint: "l;k;hi2" 40 710 basechar 0
AnchorPoint: "top" 198 780 basechar 0
AnchorPoint: "l;bl" 0 10 basechar 0
AnchorPoint: "l;x" 20 380 basechar 0
AnchorPoint: "l;o" 0 200 basechar 0
AnchorPoint: "r;bl" 433 10 basechar 0
AnchorPoint: "r;x" 453 380 basechar 0
AnchorPoint: "r;o" 453 200 basechar 0
LayerCount: 3
Fore
SplineSet
39.3473317511 646.928878058 m 0
 100.453747009 661.955045745 194.729817907 685 204 685 c 0
 212.89931063 685 219 680.850399659 219 672 c 0
 219 663.042131715 186.00772178 451.768731843 178.955635264 413.485976476 c 0
 169.162698699 357.176591223 142.70741257 225.549917123 133.341990966 179.200095598 c 1
 149.96738289 206.303717068 184.631164325 261.841533973 211.595117575 297.793471639 c 0
 255.525880049 356.700630412 283.578090993 391 350 391 c 0
 382.717484811 391 403.563704595 379.678936092 416.121320344 367.121320344 c 0
 428.930583334 354.312057353 431 339.197158975 431 323 c 0
 431 116.424875965 256.044845903 -11 170 -11 c 0
 123.352417279 -11 87.9842700781 17 82 17 c 0
 80.5619916912 17 71.2211799813 13.2564880244 63.3416407865 9.316718427 c 0
 63.2300308197 9.2609134436 l 1
 63.1141720291 9.21456992734 l 0
 58.2485988567 7.26834065842 45.0921143438 1 35 1 c 0
 25.5885083954 1 22 6.5885083954 22 12 c 0
 22 21.931246675 33.9207334453 34.2894270811 35.503849117 36.6641005887 c 0
 35.5500385208 36.7333846944 l 1
 35.6 36.8 l 0
 41.4224853016 44.5633137355 41.0332811342 45.47908179 43.0605953078 54.6019955711 c 1
 84.9933002353 278.243088518 130 588.818038899 130 623 c 0
 130 625.790940902 129.300146321 627 126 627 c 0
 120.332164703 627 52.3131522485 605 44 605 c 0
 33.6189222234 605 32 615.880451856 32 633 c 0
 32 637.326315532 31.6004019885 645.379492106 39.3473317511 646.928878058 c 0
115 80 m 0
 115 51.4955907248 133.596993561 23 180 23 c 0
 265.722656644 23 356 211.60829241 356 282 c 0
 356 306.900846397 347.139313329 338 317 338 c 0
 280.792057429 338 256.502790364 308.34255382 236.434106491 280.246396399 c 0
 169.341133664 187.117344565 115 109.923602826 115 80 c 0
EndSplineSet
AlternateSubs2: "'aalt' Access All Alternates lookup 0 subtable" b.sub b.sup b.denom b.numer
AlternateSubs2: "'aalt' Access All Alternates in Latin lookup 0 subtable" b.sub b.sup b.denom b.numer
Substitution2: "'subs' Subscript in Latin lookup 8 subtable" b.sub
Substitution2: "'sups' Superscript in Latin lookup 7 subtable" b.sup
Substitution2: "denominators subtable" b.denom
Substitution2: "numerators subtable" b.numer
EndChar

StartChar: c
Encoding: 99 99 2
Width: 402
VWidth: 0
Flags: HW
AnchorPoint: "cedilla" 138 -100 basechar 0
AnchorPoint: "top" 278 500 basechar 0
AnchorPoint: "l;bl" 0 10 basechar 0
AnchorPoint: "l;x" 20 380 basechar 0
AnchorPoint: "l;o" 0 200 basechar 0
AnchorPoint: "r;bl" 382 10 basechar 0
AnchorPoint: "r;x" 402 380 basechar 0
AnchorPoint: "r;o" 402 200 basechar 0
LayerCount: 3
Fore
SplineSet
286 292 m 0
 286 300.249628887 287 308.249628887 287 316 c 0
 287 337.92920088 275.014424414 361 243 361 c 0
 206.369283166 361 165.110972425 334.742945066 139.505825559 295.350411426 c 1
 109.860037283 250.881729012 93 191.347279319 93 144 c 0
 93 118.078086255 93.503275066 43 196 43 c 0
 282.264777243 43 346.664357138 121 358 121 c 0
 364.335502863 121 373 111.70753216 373 104 c 0
 373 94.4053906376 261.915035728 -12 162 -12 c 0
 53.0218678333 -12 22 62.062886256 22 128 c 0
 22 292.548754786 149.136458448 394 246 394 c 0
 283.487771555 394 314.462309311 383.855279896 334.211586459 362.027131469 c 1
 347.600108852 347.608722738 357 328.791664457 357 304 c 0
 357 275.815755774 339.013609752 252 311 252 c 0
 291.976435897 252 286 273.074126971 286 292 c 0
EndSplineSet
AlternateSubs2: "'aalt' Access All Alternates lookup 0 subtable" c.sub c.sup c.denom c.numer
AlternateSubs2: "'aalt' Access All Alternates in Latin lookup 0 subtable" c.sub c.sup c.denom c.numer
Substitution2: "'subs' Subscript in Latin lookup 8 subtable" c.sub
Substitution2: "'sups' Superscript in Latin lookup 7 subtable" c.sup
Substitution2: "denominators subtable" c.denom
Substitution2: "numerators subtable" c.numer
EndChar

StartChar: d
Encoding: 100 100 3
Width: 473
VWidth: 0
Flags: HW
AnchorPoint: "top" 428 780 basechar 0
AnchorPoint: "caron" 491 550 basechar 0
AnchorPoint: "l;bl" 0 10 basechar 0
AnchorPoint: "l;x" 20 380 basechar 0
AnchorPoint: "l;o" 0 200 basechar 0
AnchorPoint: "r;bl" 453 10 basechar 0
AnchorPoint: "r;x" 473 380 basechar 0
AnchorPoint: "r;k;hi" 473 650 basechar 0
AnchorPoint: "r;o" 473 200 basechar 0
LayerCount: 3
Fore
SplineSet
370 48 m 0
 397.968212972 48 454.555956325 121 463 121 c 0
 468.6702619 121 476 114.611727975 476 110 c 0
 476 102.333903844 396.861132344 -10 314 -10 c 0
 296.910092842 -10 284 4.95405235527 284 28 c 0
 284 60.8425414845 308.966330797 169.620492265 319.966992737 216.29647162 c 1
 304.421206085 189.018225027 276.367423544 142.137595636 241.4 96.2 c 0
 202.578744986 44.4383266481 164.858010727 -7 102 -7 c 0
 85.7972175852 -7 22 -2.57827199581 22 74 c 0
 22 159.308890062 95.8193619273 382 240 382 c 0
 290.653608123 382 318.789986566 362.515104258 328.134066943 358.777472107 c 1
 339.05754378 354.226023425 338.264741651 353.553282101 341.057958252 366.588292907 c 1
 354.049548611 436.543010226 376.910600213 608.011717729 378.101695914 612.776100533 c 1
 380.537431605 621.301175452 379.27952926 625.739752355 377.150038201 626.011837806 c 1
 370.088254954 625.134629718 294.310545768 605 288 605 c 0
 280.015451915 605 280.1961091 613.842791503 282.015912441 629.311119898 c 1
 283.081628209 641.033993353 286.9364729 642.81618221 294.175836616 644.884571843 c 0
 294.277189537 644.91352982 l 1
 294.380324953 644.935302853 l 0
 384.517551672 663.964272938 439.428667895 682 446 682 c 0
 453.37908667 682 460 678.175196736 460 664 c 0
 460 648.051343806 360 111.292061266 360 60 c 0
 360 48.8990040432 365.916988114 48 370 48 c 0
326 304 m 0
 326 317.901064294 284.30780116 354 240 354 c 0
 154.563426818 354 94 176.016412327 94 102 c 0
 94 65.7564962345 104.926462618 49 137 49 c 0
 171.2695325 49 225.263324322 119.316849799 272.511627943 187.676097592 c 1
 293.545800134 219.728169501 326 267.504811098 326 304 c 0
EndSplineSet
AlternateSubs2: "'aalt' Access All Alternates lookup 0 subtable" d.sub d.sup d.denom d.numer
AlternateSubs2: "'aalt' Access All Alternates in Latin lookup 0 subtable" d.sub d.sup d.denom d.numer
Substitution2: "'subs' Subscript in Latin lookup 8 subtable" d.sub
Substitution2: "'sups' Superscript in Latin lookup 7 subtable" d.sup
Substitution2: "denominators subtable" d.denom
Substitution2: "numerators subtable" d.numer
EndChar

StartChar: e
Encoding: 101 101 4
Width: 390
VWidth: 0
Flags: HW
AnchorPoint: "top" 283 500 basechar 0
AnchorPoint: "l;bl" 0 10 basechar 0
AnchorPoint: "l;x" 20 380 basechar 0
AnchorPoint: "l;o" 0 200 basechar 0
AnchorPoint: "r;bl" 370 10 basechar 0
AnchorPoint: "r;x" 390 380 basechar 0
AnchorPoint: "r;o" 390 200 basechar 0
LayerCount: 3
Fore
SplineSet
187 38 m 0
 280.314842521 38 345.331855608 125 357 125 c 0
 364.11643101 125 373 115.819011711 373 108 c 0
 373 100.440908439 270.851811322 -8 151 -8 c 0
 82.0965738257 -8 22 25.904671554 22 105 c 0
 22 257.276175229 135.88784538 394 270 394 c 0
 312.070713115 394 366 380.813584224 366 325 c 0
 366 261.895126617 305.380284255 215.313677672 241.034452388 191.183990721 c 0
 191.697554904 173.060232462 136.937201979 167.082127096 99.332149071 166.999852475 c 1
 96.7880972809 164.062141418 94 147.225620956 94 124 c 0
 94 59.8609172678 131.959107049 38 187 38 c 0
116 196 m 0
 209.367599616 196 295 244.554280928 295 326 c 0
 295 348.899528766 275.976589839 364 248 364 c 0
 180.26703589 364 142.814545012 296.961338858 122.796388082 243.913222994 c 1
 116.897974854 229.167189923 109.145451621 201.704004899 108.990589729 199.857558594 c 1
 109.161857866 197.364096023 109.255566011 196 116 196 c 0
EndSplineSet
AlternateSubs2: "'aalt' Access All Alternates lookup 0 subtable" e.sub e.sup e.denom e.numer
AlternateSubs2: "'aalt' Access All Alternates in Latin lookup 0 subtable" e.sub e.sup e.denom e.numer
Substitution2: "'subs' Subscript in Latin lookup 8 subtable" e.sub
Substitution2: "'sups' Superscript in Latin lookup 7 subtable" e.sup
Substitution2: "denominators subtable" e.denom
Substitution2: "numerators subtable" e.numer
EndChar

StartChar: f
Encoding: 102 102 5
Width: 284
VWidth: 0
Flags: HW
AnchorPoint: "top" 351 779 basechar 0
AnchorPoint: "l;bl" 0 10 basechar 0
AnchorPoint: "l;x" 0 380 basechar 0
AnchorPoint: "l;o" 0 200 basechar 0
AnchorPoint: "l;k;lo" -30 -260 basechar 0
AnchorPoint: "r;bl" 244 10 basechar 0
AnchorPoint: "r;x" 284 380 basechar 0
AnchorPoint: "r;k;hi" 424 650 basechar 0
AnchorPoint: "r;o" 264 200 basechar 0
LayerCount: 3
Fore
SplineSet
34.0722583361 366.658350221 m 0
 35.2162235506 372.378176294 38.0095646695 375 44 375 c 0
 117 375 l 0
 124.985968625 375 123.025982282 372.435550055 124.012320381 384.271607238 c 0
 126.033740618 406.507229845 136.926268096 489.647780992 166.387518613 542.474850884 c 1
 178.370520001 563.445103313 208.660931142 621.114497778 268.488386923 655.591336703 c 0
 292.798963493 669.772506368 328.162302494 684 361 684 c 0
 394.085942928 684 437 662.640552389 437 645 c 0
 437 624.180938615 400.90369517 601 380 601 c 0
 351.284595903 601 330.88695252 638 299 638 c 0
 224.161546058 638 199.203920869 430.280787456 191.972134739 377.592059938 c 0
 191.949966695 377.430549902 l 1
 191.9104275 377.272393125 l 0
 191.804093736 376.847058068 192.877382277 375 197 375 c 0
 279 375 l 0
 282.849714883 375 287 373.959301898 287 370 c 0
 287 365.548346394 286.041964896 358.639061707 284.846049894 355.051316702 c 1
 284.846049894 355.051316702 281.635736617 344 275 344 c 0
 195 344 l 0
 191.152610637 344 189.679960746 343.702842612 189.679960746 343.702842612 c 1
 189.391099441 343.22018828 188.87503493 340.542182284 187.960198074 335.510579575 c 1
 180.986892398 288.689812893 149.961596012 58.5220440724 130.963288896 -54.4678877204 c 0
 127.914284054 -73.7782517225 102.098778708 -186.420932007 35.7853346786 -236.411066736 c 1
 13.9537762612 -252.288563767 -17.6353373681 -279 -57 -279 c 0
 -90.2986089306 -279 -128 -257.404192682 -128 -240 c 0
 -128 -219.532691589 -97.2790894194 -196 -76 -196 c 0
 -48.0615833212 -196 -27.522330407 -220 5 -220 c 0
 46.84040585 -220 57.7302962158 -105.4471653 66.0373593181 -53.5280209103 c 0
 88.8755210433 90.4516943137 118.79566204 330.394603439 118.974647486 335.312256364 c 1
 119.175483562 343.869619587 118.763574429 344 118 344 c 0
 42 344 l 0
 35.7189491424 344 32 345.615821784 32 353 c 0
 32 357.472112221 33.0423862225 362.538861767 34.0722583361 366.658350221 c 0
EndSplineSet
AlternateSubs2: "'aalt' Access All Alternates lookup 0 subtable" f.sub f.sup f.denom f.numer
AlternateSubs2: "'aalt' Access All Alternates in Latin lookup 0 subtable" f.sub f.sup f.denom f.numer
Substitution2: "'subs' Subscript in Latin lookup 8 subtable" f.sub
Substitution2: "'sups' Superscript in Latin lookup 7 subtable" f.sup
Substitution2: "denominators subtable" f.denom
Substitution2: "numerators subtable" f.numer
EndChar

StartChar: g
Encoding: 103 103 6
Width: 426
VWidth: 0
Flags: HW
AnchorPoint: "top" 256 498 basechar 0
AnchorPoint: "l;bl" 0 10 basechar 0
AnchorPoint: "l;x" 20 380 basechar 0
AnchorPoint: "l;o" 0 200 basechar 0
AnchorPoint: "l;k;lo" -20 -260 basechar 0
AnchorPoint: "r;bl" 426 10 basechar 0
AnchorPoint: "r;x" 426 380 basechar 0
AnchorPoint: "r;o" 426 200 basechar 0
AnchorPoint: "r;lo" 406 -260 basechar 0
LayerCount: 3
Fore
SplineSet
83.7193114183 -45.2862423246 m 0
 88.4400391045 -42.9258784815 91.8859485335 -41.0527242235 93.206052397 -40.1915136078 c 1
 88.3503448273 -37.8112647992 82.8161476239 -36.4125305601 77.2562854188 -32.4412004136 c 0
 63.3908124952 -22.5372911824 51 -12.8138870297 51 3 c 0
 51 12.9175223763 82.8643165979 67.0082113708 97.9450841614 72.8085065876 c 1
 157.926305324 94.8016210137 l 1
 158.324629117 94.960950531 159.241401065 95.2969073233 159.448937938 95.3724013064 c 1
 158.716710053 95.6275576043 158.009515984 95.8582803193 157.110802355 96.1348075896 c 0
 127.727054461 105.253901764 57 136.070896943 57 230 c 0
 57 325.772934269 137.471844249 402 237 402 c 0
 296.318727075 402 327.608874126 366.149466865 335.811241048 357.956738447 c 1
 342.101970902 367.562897687 355.938384555 402.485353727 361.380535218 412.462629942 c 1
 365.976100651 420.50486945 371.704259799 423 385 423 c 0
 395.203543581 423 415 419.991401179 415 409 c 0
 415 381.28775512 371.18013372 325.35937903 368.999769741 319.728303693 c 1
 369.15248389 316.456696731 369.988254694 312.607110476 371.792857556 308.09560332 c 1
 376.971277334 294.631711898 379 280.314138782 379 267 c 0
 379 220.093987362 356.658811082 172.359130713 325.032427264 143.793364685 c 0
 286.535957008 108.336089449 253.683116267 99.0772204913 197.800240855 84.1085931489 c 1
 154.601644452 71.7661370337 107 55.3098468628 107 40 c 0
 107 15.3568415973 194.415675389 4.27903757966 274.471408124 -8.03722899496 c 1
 347.144126442 -19.9834292664 408 -37.3462013915 408 -106 c 0
 408 -214.929039039 293.976764232 -254 165 -254 c 0
 87.4713769072 -254 -9 -236.30932753 -9 -157 c 0
 -9 -94.7623495038 56.6505105784 -57.3168204757 83.7193114183 -45.2862423246 c 0
204 -219 m 0
 281.812504106 -219 341 -192.232268026 341 -133 c 0
 341 -88.8874674324 296.098309464 -77.064980441 239.485976476 -66.9556352645 c 0
 193.662241646 -58.9862900766 138.143425399 -50 133 -50 c 0
 123.116001493 -50 113.452227717 -55.6352726669 102.291967416 -60.7081182583 c 1
 67.0044011183 -78.3519014071 39 -109.505578508 39 -151 c 0
 39 -207.993840333 148.828036184 -219 204 -219 c 0
311 279 m 0
 311 324.087371886 280.566887589 373 236 373 c 0
 165.751945228 373 126 285.379656042 126 229 c 0
 126 139.268864628 174.867099881 118 197 118 c 0
 242.608244558 118 311 184.134886092 311 279 c 0
EndSplineSet
AlternateSubs2: "'aalt' Access All Alternates lookup 0 subtable" g.sub g.sup g.denom g.numer
AlternateSubs2: "'aalt' Access All Alternates in Latin lookup 0 subtable" g.sub g.sup g.denom g.numer
Substitution2: "'subs' Subscript in Latin lookup 8 subtable" g.sub
Substitution2: "'sups' Superscript in Latin lookup 7 subtable" g.sup
Substitution2: "denominators subtable" g.denom
Substitution2: "numerators subtable" g.numer
EndChar

StartChar: h
Encoding: 104 104 7
Width: 468
VWidth: 0
Flags: HW
AnchorPoint: "l;k;hi2" 40 710 basechar 0
AnchorPoint: "top" 198 780 basechar 0
AnchorPoint: "l;bl" 0 10 basechar 0
AnchorPoint: "l;x" 20 380 basechar 0
AnchorPoint: "l;o" 0 200 basechar 0
AnchorPoint: "r;bl" 448 10 basechar 0
AnchorPoint: "r;x" 468 380 basechar 0
AnchorPoint: "r;o" 468 200 basechar 0
LayerCount: 3
Fore
SplineSet
356 48 m 0
 379.515734415 48 442.546753853 135 451 135 c 0
 455.854751577 135 466 126.863261336 466 122 c 0
 466 114.477384267 386.051938216 -3 308 -3 c 0
 283.674044335 -3 264 13.1275452208 264 38 c 0
 264 72.578376113 337 256.176477809 337 307 c 0
 337 327.936100933 325.973398474 343 306 343 c 0
 259.66842921 343 208.838683487 265.898119089 167.578607664 197.466773821 c 0
 145.565451361 160.444647311 122.713378021 123.526868927 113.907615861 90.2606563241 c 1
 93.9218699458 8.31909807032 l 1
 90.9864573576 -4.89025857669 34.4975907505 -5 33 -5 c 0
 25.4182208333 -5 22 -0.13831636001 22 6 c 0
 22 18.4339771161 86.0016156436 270.161726261 120.012320381 619.271607238 c 0
 120.731970977 627.1877638 118.880884733 633.426264694 118.077595309 634.972217925 c 1
 100.003316298 633.873836005 37.9978176817 608 32 608 c 0
 25.238141766 608 26 620.850890114 26 625 c 0
 26 633.580601122 29.0936653721 640.900934652 34.6583592135 643.683281573 c 0
 34.8100180184 643.759110975 l 1
 34.9692554062 643.817368556 l 0
 76.4557128481 658.995340791 166.138514258 678 191 678 c 0
 200.317557765 678 200 668.8632338 200 660 c 0
 200 659.922731704 l 1
 199.996022379 659.845565857 l 0
 195.276055224 568.278203047 140.51999702 289.671864468 112.014023585 147.631855617 c 1
 129.902858788 184.966513834 167.673307705 257.805767356 216.689935317 316.914053594 c 0
 245.847175334 352.103826028 282.707577503 386 343 386 c 0
 375.714573422 386 405 371.255922481 405 335 c 0
 405 268.982931574 338 94.4289214997 338 67 c 0
 338 57.1898857221 343.966842378 48 356 48 c 0
EndSplineSet
AlternateSubs2: "'aalt' Access All Alternates lookup 0 subtable" h.sub h.sup h.denom h.numer
AlternateSubs2: "'aalt' Access All Alternates in Latin lookup 0 subtable" h.sub h.sup h.denom h.numer
Substitution2: "'subs' Subscript in Latin lookup 8 subtable" h.sub
Substitution2: "'sups' Superscript in Latin lookup 7 subtable" h.sup
Substitution2: "denominators subtable" h.denom
Substitution2: "numerators subtable" h.numer
EndChar

StartChar: i
Encoding: 105 105 8
Width: 270
VWidth: 0
Flags: HW
AnchorPoint: "l;k;hi" 135 650 basechar 0
AnchorPoint: "r;k;hi" 220 650 basechar 0
AnchorPoint: "l;bl" 0 10 basechar 0
AnchorPoint: "l;x" 20 380 basechar 0
AnchorPoint: "l;o" 0 200 basechar 0
AnchorPoint: "r;bl" 250 10 basechar 0
AnchorPoint: "r;x" 270 380 basechar 0
AnchorPoint: "r;o" 270 200 basechar 0
LayerCount: 3
Fore
SplineSet
169 598 m 0
 200.214183185 598 216 569.071005307 216 547 c 0
 216 519.71773744 197.966476584 498 172 498 c 0
 140.785816815 498 125 526.928994693 125 549 c 0
 125 576.149517194 140.977133684 598 169 598 c 0
199 361 m 0
 199 312.989578377 134 101.697844996 134 75 c 0
 134 64.4286923451 133.888914388 58 144 58 c 0
 160.622394655 58 215.923163644 122 223 122 c 0
 229.313296495 122 238 112.121679869 238 107 c 0
 238 89.697782466 116.609190708 -9 84 -9 c 0
 73.921214694 -9 57 -5.77220785921 57 12 c 0
 57 64.3147167947 128 250.169139584 128 310 c 0
 128 320.040186346 126.313725136 325 119 325 c 0
 95.0283389276 325 46.0961459569 266 37 266 c 0
 29.7519960999 266 22 275.291076694 22 282 c 0
 22 291.579799589 137.588655132 386 176 386 c 0
 187.205752834 386 199 379.689637348 199 361 c 0
EndSplineSet
AlternateSubs2: "'aalt' Access All Alternates lookup 0 subtable" i.sub i.sup i.denom i.numer
AlternateSubs2: "'aalt' Access All Alternates in Latin lookup 0 subtable" i.sub i.sup i.denom i.numer i.TRK
Substitution2: "'subs' Subscript in Latin lookup 8 subtable" i.sub
Substitution2: "'sups' Superscript in Latin lookup 7 subtable" i.sup
Substitution2: "denominators subtable" i.denom
Substitution2: "numerators subtable" i.numer
Substitution2: "turkish subtable" i.TRK
EndChar

StartChar: j
Encoding: 106 106 9
Width: 297
VWidth: 0
Flags: HW
AnchorPoint: "l;k;lo" -30 -260 basechar 0
AnchorPoint: "l;bl" 0 10 basechar 0
AnchorPoint: "l;x" 0 380 basechar 0
AnchorPoint: "l;o" 0 200 basechar 0
AnchorPoint: "r;bl" 277 10 basechar 0
AnchorPoint: "r;x" 297 380 basechar 0
AnchorPoint: "r;o" 287 200 basechar 0
LayerCount: 3
Fore
SplineSet
-72 -221 m 0
 -72 -199.464911059 -55.7301779959 -182 -34 -182 c 0
 3.95801470497 -182 9.09166341448 -207 41 -207 c 0
 65.3417289255 -207 75.7813592309 -159.726544576 88.0600380413 -101.402820227 c 0
 114.000963928 26.306353368 155 283.869238961 155 310 c 0
 155 320.040186346 153.313725136 325 146 325 c 0
 122.542698919 325 56.3154898943 236 47 236 c 0
 40.3914343629 236 32 242.802601563 32 250 c 0
 32 258.943290178 146.003412642 386 203 386 c 0
 214.498170396 386 227 377.607695169 227 359 c 0
 227 311.162990293 175.971936554 26.5904052258 171.96722089 -3.44496225194 c 1
 161.969584238 -63.4307821649 145.113195067 -166.410355811 74.7851621785 -219.411192191 c 1
 52.6474599578 -235.51133926 17.3343456409 -258 -14 -258 c 0
 -48.7404803602 -258 -72 -238.609970439 -72 -221 c 0
198 628 m 0
 229.214183185 628 245 599.071005307 245 577 c 0
 245 549.71773744 226.966476584 528 201 528 c 0
 169.785816815 528 154 556.928994693 154 579 c 0
 154 606.149517194 169.977133684 628 198 628 c 0
EndSplineSet
AlternateSubs2: "'aalt' Access All Alternates lookup 0 subtable" j.sub j.sup j.denom j.numer
AlternateSubs2: "'aalt' Access All Alternates in Latin lookup 0 subtable" j.sub j.sup j.denom j.numer
Substitution2: "'subs' Subscript in Latin lookup 8 subtable" j.sub
Substitution2: "'sups' Superscript in Latin lookup 7 subtable" j.sup
Substitution2: "denominators subtable" j.denom
Substitution2: "numerators subtable" j.numer
EndChar

StartChar: k
Encoding: 107 107 10
Width: 450
VWidth: 0
Flags: HW
AnchorPoint: "l;k;hi2" 50 710 basechar 0
AnchorPoint: "cedilla" 187 -100 basechar 0
AnchorPoint: "l;bl" 0 10 basechar 0
AnchorPoint: "l;x" 20 380 basechar 0
AnchorPoint: "l;o" 0 200 basechar 0
AnchorPoint: "r;bl" 450 10 basechar 0
AnchorPoint: "r;x" 450 380 basechar 0
AnchorPoint: "r;o" 450 200 basechar 0
LayerCount: 3
Fore
SplineSet
130 623.14358179 m 0
 130 626.631200494 128.394305358 629 126 629 c 0
 120.42027315 629 58.5407120214 612.034442054 51.7761005334 610.101695914 c 1
 40.4007117771 607.257848725 39.118353765 615.2313393 41.018348796 632.331294578 c 0
 41.0327257816 632.460687449 l 1
 41.0582579729 632.588348405 l 0
 41.9332645276 636.963381179 42.3834226773 642.536096244 49.3561116589 643.93063404 c 0
 145.350116023 666.929197586 190.59103456 682 200 682 c 0
 208.100116329 682 217 680.325749248 217 668 c 0
 217 648.41899931 146.248080284 306.243205941 124.029202443 198.293293789 c 1
 137.926144428 223.378281098 161.756167076 264.674866754 186.605432549 297.807220718 c 0
 226.822915472 351.095385591 266.849486826 384 338 384 c 0
 369.049320142 384 400 373.881918141 400 344 c 0
 400 249.345150832 281.833664925 197.112484894 232.657115027 186.072851244 c 0
 232.57560201 186.054552403 l 1
 232.493196962 186.040818229 l 0
 229.67267187 185.570730713 221.27663969 184.301626212 218.966375236 183.910066006 c 1
 224.915806115 180.691277704 232.306399 176.338356157 240.056414852 169.184495371 c 1
 265.259288019 144.98973713 304.108908895 103.159883183 313.335239118 91.8832573536 c 0
 338.496686503 60.6830625962 354.567657118 40 389 40 c 0
 412.70414436 40 420 51.666760804 420 64 c 0
 420 70.4530792327 418 77.3643257614 418 84 c 0
 418 91.4877432181 421.41752264 99 429 99 c 0
 439.678644258 99 453 86.4351872383 453 53 c 0
 453 17.2266382044 377.666702161 -5 339 -5 c 0
 325.26070232 -5 311.319979131 -0.538551251127 293.956302351 15.8037327766 c 1
 268.530946754 39.1950599261 243.558501996 77.250565875 216.635926879 111.153067874 c 0
 192.021889007 142.659036349 166 169.477825555 166 175 c 0
 166 182.708379089 182.085434313 197.328075 183.878679656 199.121320344 c 0
 187.067497443 202.31013813 191.294538851 202 196 202 c 0
 203.725028174 202 213.429986728 203.003093575 222.833291383 206.764415437 c 1
 267.211264212 226.487958917 326 282.138771406 326 328 c 0
 326 338.523315638 317.582269352 345 298 345 c 0
 275.135736008 345 257.955156545 333.719324729 237.051823387 313.811388388 c 0
 205.584655623 284.310918609 174.524808378 232.379226455 137.520002484 176.37195267 c 1
 125.704873228 157.664664681 118.865273148 141.070584843 113.921386607 119.317484065 c 1
 107.93004255 94.3535504925 96.9259258499 45.3079340033 92.963288896 21.5321122796 c 0
 90.0669605046 3.18869913383 89.1001809148 -2.65747463397 79.6175391729 -3.0297723467 c 1
 77.7161158812 -3.1622568704 41.0083765852 -9 30 -9 c 0
 26.3555432471 -9 22 -8.20526768545 22 -3 c 0
 22 25.3380793516 104.002344364 352.168017274 130 623.14358179 c 0
EndSplineSet
AlternateSubs2: "'aalt' Access All Alternates lookup 0 subtable" k.sub k.sup k.denom k.numer
AlternateSubs2: "'aalt' Access All Alternates in Latin lookup 0 subtable" k.sub k.sup k.denom k.numer
Substitution2: "'subs' Subscript in Latin lookup 8 subtable" k.sub
Substitution2: "'sups' Superscript in Latin lookup 7 subtable" k.sup
Substitution2: "denominators subtable" k.denom
Substitution2: "numerators subtable" k.numer
EndChar

StartChar: z
Encoding: 122 122 11
Width: 414
VWidth: 0
Flags: HW
AnchorPoint: "top" 257 500 basechar 0
AnchorPoint: "l;bl" 0 10 basechar 0
AnchorPoint: "l;x" 20 380 basechar 0
AnchorPoint: "l;o" 0 200 basechar 0
AnchorPoint: "r;bl" 414 10 basechar 0
AnchorPoint: "r;x" 414 380 basechar 0
AnchorPoint: "r;o" 414 200 basechar 0
LayerCount: 3
Fore
SplineSet
374 98.1320963318 m 0
 377.007148426 64.0510808426 382 17.5754181933 382 12 c 0
 382 -4.78246060619 359.745061304 -5 343 -5 c 0
 336 -5 l 0
 282.61649174 -5 143.722474012 11 65 11 c 0
 59.9449954763 11 51.9893653528 -13 36 -13 c 0
 29.7639394986 -13 22 -8.79931450696 22 2 c 0
 22 22.0502025711 44.2579497555 38.5956895121 53.7309025531 49.9632328692 c 1
 291.730902553 314.963232869 l 1
 292.255745334 315.593044206 293.224228983 316.875155564 293.237930745 316.893600336 c 1
 289.417546655 316.361167807 284.654468895 315 280 315 c 0
 235.900109569 315 168.641409255 347 137 347 c 0
 102.327615263 347 79.1533901877 299 70 299 c 0
 64.3534635946 299 54 303.694040811 54 310 c 0
 54 316.166821114 102.714587459 399 158 399 c 0
 204.39227111 399 283.471133717 355 324 355 c 0
 338.326745371 355 348.052483042 392 374 392 c 0
 383.952158755 392 392 382.510075948 392 373 c 0
 392 344.349487634 345.302650211 332.936484452 332.208546937 318.96944096 c 1
 112.243022034 75.0076769758 l 1
 110.136320768 72.6000183868 108.376048212 70.4022577535 107.919798979 69.625162286 c 1
 109.793965696 68.8877852172 113.520301174 68.3277144094 120.139384198 67.9967602582 c 0
 206.219967892 63.9930121795 299.374520468 54 337 54 c 0
 348.228929405 54 349 56.4884346456 349 69 c 0
 349 69.8038258438 348 94.8348991738 348 97 c 0
 348 104.34773288 357.191313307 106 362 106 c 0
 365.556804106 106 374 105.44840197 374 98.1320963318 c 0
EndSplineSet
AlternateSubs2: "'aalt' Access All Alternates lookup 0 subtable" z.sub z.sup z.denom z.numer
AlternateSubs2: "'aalt' Access All Alternates in Latin lookup 0 subtable" z.sub z.sup z.denom z.numer
Substitution2: "'subs' Subscript in Latin lookup 8 subtable" z.sub
Substitution2: "'sups' Superscript in Latin lookup 7 subtable" z.sup
Substitution2: "denominators subtable" z.denom
Substitution2: "numerators subtable" z.numer
EndChar

StartChar: l
Encoding: 108 108 12
Width: 272
VWidth: 0
Flags: HW
AnchorPoint: "l;k;hi2" 60 710 basechar 0
AnchorPoint: "cedilla" 76 -100 basechar 0
AnchorPoint: "caron" 261 550 basechar 0
AnchorPoint: "top" 215 780 basechar 0
AnchorPoint: "l;bl" 0 10 basechar 0
AnchorPoint: "l;x" 0 380 basechar 0
AnchorPoint: "l;o" 0 200 basechar 0
AnchorPoint: "r;bl" 252 10 basechar 0
AnchorPoint: "r;x" 272 380 basechar 0
AnchorPoint: "r;k;hi" 272 650 basechar 0
AnchorPoint: "r;o" 272 200 basechar 0
LayerCount: 3
Fore
SplineSet
141 50 m 0
 166.728303329 50 232.623151783 134 241 134 c 0
 246.867432116 134 260 122.957990649 260 118 c 0
 260 110.013850774 153.817166554 -13 84 -13 c 0
 67.2468336469 -13 52 -1.20558957515 52 28 c 0
 52 47.1735991433 122.005403771 402.223334859 147.027092883 612.405523397 c 1
 147.740521104 617.042806831 147.83122877 620.416686109 147.327520488 622.425427396 c 0
 146.710361103 624.886601015 145.545072954 626.607116606 136.806787075 624.110463498 c 1
 114.593343113 618.052251508 67.1479866951 606 62 606 c 0
 54.2409067057 606 54.1828886647 613.730417803 56.0159124405 629.311119898 c 1
 57.0816282092 641.033993353 60.9364728998 642.81618221 68.1758366163 644.884571843 c 0
 68.2618666481 644.909151852 l 1
 68.3492086265 644.928561181 l 0
 158.514362436 664.965262027 210.413949599 682 217 682 c 0
 225.479534734 682 230 676.495353521 230 670 c 0
 230 648.069276755 130.835039443 80.3451143447 129.98355864 67.7214695717 c 1
 130.546725801 50.2322783648 137.609632641 50 141 50 c 0
EndSplineSet
AlternateSubs2: "'aalt' Access All Alternates lookup 0 subtable" l.sub l.sup l.denom l.numer
AlternateSubs2: "'aalt' Access All Alternates in Latin lookup 0 subtable" l.sub l.sup l.denom l.numer l.CAT
Substitution2: "'subs' Subscript in Latin lookup 8 subtable" l.sub
Substitution2: "'sups' Superscript in Latin lookup 7 subtable" l.sup
Substitution2: "denominators subtable" l.denom
Substitution2: "numerators subtable" l.numer
Substitution2: "catalan subtable" l.CAT
EndChar

StartChar: m
Encoding: 109 109 13
Width: 739
VWidth: 0
Flags: HW
AnchorPoint: "top" 471 500 basechar 0
AnchorPoint: "l;bl" 0 10 basechar 0
AnchorPoint: "l;x" 20 380 basechar 0
AnchorPoint: "l;o" 0 200 basechar 0
AnchorPoint: "r;bl" 719 10 basechar 0
AnchorPoint: "r;x" 739 380 basechar 0
AnchorPoint: "r;o" 739 200 basechar 0
LayerCount: 3
Fore
SplineSet
619 52 m 0
 636.400554053 52 703.846303207 134 712 134 c 0
 718.313296495 134 727 124.121679869 727 119 c 0
 727 109.943165719 617.844603386 -7 561 -7 c 0
 539.811192477 -7 523 6.91769795795 523 25 c 0
 523 66.5606691959 601 254.212523427 601 314 c 0
 601 322.8376389 594.921955935 333 583 333 c 0
 556.813657972 333 504.746810807 269.722783937 460.514418598 201.363632341 c 0
 419.583127178 138.46920894 392.772224787 89.7876635677 370.897040496 14.2188451073 c 1
 368.601708585 5.03751746227 362.176476755 1.1376104742 354.398214771 0.0264301907008 c 1
 338.245804043 -1.99262115023 324.182752823 -3 312 -3 c 0
 306.063460586 -3 301 0.133792726816 301 7 c 0
 301 31.7489044153 359 181.51211975 359 296 c 0
 359 317.960045933 352.093550841 330 341 330 c 0
 328.945708778 330 313.308291372 315.081337085 306.334580045 306.115136808 c 1
 275.283124508 269.053722134 241.621317077 227.531548152 198.683281573 139.658359214 c 0
 180.909656922 104.111109911 163.877997049 43.1528248392 157.884571843 22.1758366163 c 0
 156.035661477 15.7046503373 154.192305687 4.10422824891 145.134876297 0.222472796138 c 1
 126.757266854 -6.9243753204 103.171345879 -14 95 -14 c 0
 87.8399481357 -14 85.9565720754 -5.92008108217 87.0696879904 -0.354501507464 c 1
 100.031395191 53.4864360973 132 229.633692647 132 296 c 0
 132 305.234458079 128.892887867 310 121 310 c 0
 97.2658151479 310 36.1964609133 235 27 235 c 0
 22.7198721602 235 12 238.306979528 12 255 c 0
 12 268.367958459 134.495976849 376 185 376 c 0
 195.732426793 376 206 372.735459303 206 354 c 0
 206 298.35335585 188.529074662 216.373787968 175.049227534 140.259430303 c 1
 239.008058164 280.886246804 313.480325658 382 393 382 c 0
 418.654606431 382 430 355.42578144 430 332 c 0
 430 270.67385934 398.941869381 162.877353671 383.071904073 111.823293736 c 1
 430.517181225 201.40231909 526.051766719 382 623 382 c 0
 669.077664458 382 677 363.503151972 677 345 c 0
 677 291.741531676 604 110.512206428 604 73 c 0
 604 65.0126076115 606.948265872 52 619 52 c 0
EndSplineSet
AlternateSubs2: "'aalt' Access All Alternates lookup 0 subtable" m.sub m.sup m.denom m.numer
AlternateSubs2: "'aalt' Access All Alternates in Latin lookup 0 subtable" m.sub m.sup m.denom m.numer
Substitution2: "'subs' Subscript in Latin lookup 8 subtable" m.sub
Substitution2: "'sups' Superscript in Latin lookup 7 subtable" m.sup
Substitution2: "denominators subtable" m.denom
Substitution2: "numerators subtable" m.numer
EndChar

StartChar: n
Encoding: 110 110 14
Width: 515
VWidth: 0
Flags: HW
AnchorPoint: "cedilla" 221 -100 basechar 0
AnchorPoint: "top" 352 500 basechar 0
AnchorPoint: "l;bl" 0 10 basechar 0
AnchorPoint: "l;x" 20 380 basechar 0
AnchorPoint: "l;o" 0 200 basechar 0
AnchorPoint: "r;bl" 495 10 basechar 0
AnchorPoint: "r;x" 515 380 basechar 0
AnchorPoint: "r;o" 515 200 basechar 0
LayerCount: 3
Fore
SplineSet
405 389 m 0
 451.8959976 389 459 359.868175751 459 342 c 0
 459 288.796727304 382 96.3419703248 382 70 c 0
 382 62.7393016892 385.271106404 53 398 53 c 0
 425.91530201 53 479.445076715 127 488 127 c 0
 494.006143907 127 503 118.379876755 503 113 c 0
 503 104.03932498 414.661352576 -2 340 -2 c 0
 317.790915887 -2 305 17.1341849564 305 42 c 0
 305 100.561129306 385 255.488845573 385 315 c 0
 385 329.286645273 377.534289199 341 366 341 c 0
 331.192969437 341 238.837988994 213.883970443 189.552393992 134.423521358 c 0
 168.905354915 100.994981899 151.858979995 44.0862651476 145.884571843 23.1758366163 c 0
 144.242462788 17.4284549235 141.491107195 -3.6658519668 128.298511157 -4.98511157063 c 0
 108.241788738 -6.99078381251 87.3764088746 -9 80 -9 c 0
 72.8399481357 -9 70.9565720754 -0.920081082168 72.0696879904 4.64549849254 c 1
 85.0816272192 58.6950922123 132 249.842877751 132 316 c 0
 132 325.707069029 129.494590492 331 122 331 c 0
 100.413927387 331 37.332580292 267 29 267 c 0
 24.0078145249 267 12 275.074389506 12 287 c 0
 12 292.799247961 125.951584113 389 187 389 c 0
 196.969882392 389 211 383.073464325 211 365 c 0
 211 308.522133276 184.183170147 218.444561614 162.833250839 139.495815466 c 1
 248.296120619 287.430325777 326.910146653 389 405 389 c 0
EndSplineSet
AlternateSubs2: "'aalt' Access All Alternates lookup 0 subtable" n.sub n.sup n.denom n.numer
AlternateSubs2: "'aalt' Access All Alternates in Latin lookup 0 subtable" n.sub n.sup n.denom n.numer
Substitution2: "'subs' Subscript in Latin lookup 8 subtable" n.sub
Substitution2: "'sups' Superscript in Latin lookup 7 subtable" n.sup
Substitution2: "denominators subtable" n.denom
Substitution2: "numerators subtable" n.numer
EndChar

StartChar: o
Encoding: 111 111 15
Width: 419
VWidth: 0
Flags: HW
AnchorPoint: "top" 290 500 basechar 0
AnchorPoint: "l;bl" 0 10 basechar 0
AnchorPoint: "l;x" 20 380 basechar 0
AnchorPoint: "l;o" 0 200 basechar 0
AnchorPoint: "r;bl" 399 10 basechar 0
AnchorPoint: "r;x" 419 380 basechar 0
AnchorPoint: "r;o" 419 200 basechar 0
LayerCount: 3
Fore
SplineSet
245 371 m 0
 167.995935756 371 90 233.30750809 90 146 c 0
 90 103.23012536 92.3544498922 19 167 19 c 0
 261.686788721 19 328 188.191027941 328 278 c 0
 328 311.620739284 315.47440419 371 245 371 c 0
165 -11 m 0
 69.0935371989 -11 22 60.7995807651 22 138 c 0
 22 285.309494189 121.073522373 400 256 400 c 0
 364.493541111 400 397 300.580267201 397 238 c 0
 397 113.552818969 292.977280365 -11 165 -11 c 0
EndSplineSet
AlternateSubs2: "'aalt' Access All Alternates lookup 0 subtable" o.sub o.sup o.denom o.numer
AlternateSubs2: "'aalt' Access All Alternates in Latin lookup 0 subtable" o.sub o.sup o.denom o.numer
Substitution2: "'subs' Subscript in Latin lookup 8 subtable" o.sub
Substitution2: "'sups' Superscript in Latin lookup 7 subtable" o.sup
Substitution2: "denominators subtable" o.denom
Substitution2: "numerators subtable" o.numer
EndChar

StartChar: p
Encoding: 112 112 16
Width: 486
VWidth: 0
Flags: HW
AnchorPoint: "top" 337 500 basechar 0
AnchorPoint: "l;bl" 0 10 basechar 0
AnchorPoint: "l;x" 20 380 basechar 0
AnchorPoint: "l;o" 0 200 basechar 0
AnchorPoint: "l;k;lo" 0 -260 basechar 0
AnchorPoint: "r;bl" 466 10 basechar 0
AnchorPoint: "r;x" 486 380 basechar 0
AnchorPoint: "r;o" 486 200 basechar 0
LayerCount: 3
Fore
SplineSet
396 278 m 0
 396 310.919601946 387.281022145 339 355 339 c 0
 305.050056938 339 264.168773965 241.569160611 238.656641676 193.606351908 c 0
 206.705778136 132.700018284 184 78.7576768329 184 51 c 0
 184 27.4853473864 215.271358168 22 245 22 c 0
 310.681475588 22 396 173.421309132 396 278 c 0
226 -259 m 0
 226 -280.554729855 216.598076341 -283 203 -283 c 0
 194.099197957 -283 114.908637104 -269 29 -269 c 0
 18.3410006618 -269 9 -267.695017745 9 -256 c 0
 9 -237.273151316 13.6053734372 -231 31 -231 c 0
 47 -231 l 0
 61.9369008507 -231 63.138530279 -229.921016372 66.0444951114 -212.485227377 c 0
 124.039994199 120.488931175 144 238.575534414 144 304 c 0
 144 314.040186346 142.313725136 319 135 319 c 0
 103.577966513 319 35.7936320702 207 26 207 c 0
 19.066820153 207 7 217.637062756 7 225 c 0
 7 225.811047424 l 1
 7.4086632973 226.511613077 l 0
 7.4086632973 226.511613077 106.092142514 398 201 398 c 0
 215.40216363 398 221 388.101910771 221 364 c 0
 221 327.568914131 202.126225342 209.647854622 193.453519649 157.245210762 c 1
 216.430424748 212.733152219 237.235566499 255.952328073 283.481289529 326.629753834 c 0
 305.925849078 361.316800411 341.835387024 385 385 385 c 0
 451.200678628 385 464 342.41074396 464 291 c 0
 464 138.839809113 337.475181595 -10 236 -10 c 0
 216.500659738 -10 188.094714297 -3 180 -3 c 0
 173.609882178 -3 170.666599531 -2.85397699592 169.971702887 -8.41315014874 c 1
 137.955119078 -217.521463149 l 1
 137.941742027 -217.588348405 l 0
 135.916701471 -227.713551187 138.738171588 -237.396890686 144.331294578 -238.018348796 c 0
 205.064543994 -244.76648762 226 -240.048843794 226 -259 c 0
EndSplineSet
AlternateSubs2: "'aalt' Access All Alternates lookup 0 subtable" p.sub p.sup p.denom p.numer
AlternateSubs2: "'aalt' Access All Alternates in Latin lookup 0 subtable" p.sub p.sup p.denom p.numer
Substitution2: "'subs' Subscript in Latin lookup 8 subtable" p.sub
Substitution2: "'sups' Superscript in Latin lookup 7 subtable" p.sup
Substitution2: "denominators subtable" p.denom
Substitution2: "numerators subtable" p.numer
EndChar

StartChar: q
Encoding: 113 113 17
Width: 455
VWidth: 0
Flags: HW
AnchorPoint: "l;bl" 0 10 basechar 0
AnchorPoint: "l;x" 20 380 basechar 0
AnchorPoint: "l;o" 0 200 basechar 0
AnchorPoint: "r;bl" 455 10 basechar 0
AnchorPoint: "r;x" 455 380 basechar 0
AnchorPoint: "r;o" 455 200 basechar 0
AnchorPoint: "r;k;lo" 455 -260 basechar 0
LayerCount: 3
Fore
SplineSet
323.04188471 217.727996672 m 1
 310.454178902 192.61397548 284.715770709 144.672285065 249.438088315 96.2519366801 c 0
 211.455965104 43.2768700971 162.954974813 -10 109 -10 c 0
 92.7811768469 -10 22 -2.71371986221 22 74 c 0
 22 166.764197066 115.187107975 384 274 384 c 0
 310.658356488 384 343.033409125 371.823659656 361.218415398 363.741434646 c 0
 370.614583582 359.565359897 372.575306572 358 374 358 c 0
 376.043846244 358 378.430929681 358.557128945 388.456512734 364.572478777 c 0
 388.662638737 364.696154379 l 1
 388.885827971 364.785430073 l 0
 393.110105747 366.475141183 406.704826031 375.825518937 419.45908671 377.95122905 c 1
 426.529442782 379.365300265 433 373.473590087 433 365 c 0
 433 357.035797908 419.709344191 332.711618114 405.738681752 302.774484315 c 1
 402.898156328 296.146591659 399.922591459 286.193958424 398.97683363 278.627895796 c 0
 398.96777945 278.555462354 l 1
 398.955213114 278.48355499 l 0
 362.995857855 72.7161332304 309 -224.097789881 309 -236 c 0
 309 -242.704960125 312.359228449 -244 320 -244 c 0
 338.974088305 -244 353.181081281 -244.002486476 372.292845593 -246.01425114 c 1
 385.271254924 -247.194106534 387 -255.807775417 387 -265 c 0
 387 -277.870400344 386.957737402 -287 368 -287 c 0
 362.602847636 -287 325.956797547 -284 283 -284 c 0
 252.203781911 -284 201.704739328 -291 196 -291 c 0
 189.129311139 -291 178.80427649 -290.223898384 180.006919101 -275.792187055 c 1
 181.072908778 -256.604372863 187.367164309 -255.06637783 203.486489982 -252.044004267 c 1
 228.713876177 -248.007622475 228.245846945 -251.510823164 233.064950891 -228.379124227 c 0
 254.630253209 -126.43405872 257.91214913 -135.059371667 321.839853062 214.487740806 c 0
 323.04188471 217.727996672 l 1
339 318 m 0
 339 327.538491129 317.856278139 358 274 358 c 0
 188.178250908 358 92 172.256759461 92 99 c 0
 92 63.2311523001 114.001945579 43 136 43 c 0
 169.191548906 43 228.264147541 119.318040841 275.511627943 187.676097592 c 1
 296.444158439 219.573286919 339 289.804511199 339 318 c 0
EndSplineSet
Layer: 2
SplineSet
323.04188471 217.727996672 m 1
 310.454178902 192.61397548 284.715770709 144.672285065 249.438088315 96.2519366801 c 0
 211.455965104 43.2768700971 162.954974813 -10 109 -10 c 0
 92.7811768469 -10 22 -2.71371986221 22 74 c 0
 22 166.764197066 115.187107975 384 274 384 c 0
 310.658356488 384 343.033409125 371.823659656 361.218415398 363.741434646 c 0
 370.614583582 359.565359897 372.575306572 358 374 358 c 0
 376.043846244 358 378.430929681 358.557128945 388.456512734 364.572478777 c 0
 388.662638737 364.696154379 l 1
 388.885827971 364.785430073 l 0
 393.110105747 366.475141183 406.704826031 375.825518937 419.45908671 377.95122905 c 1
 426.529442782 379.365300265 433 373.473590087 433 365 c 0
 433 357.035797908 419.709344191 332.711618114 405.738681752 302.774484315 c 1
 402.898156328 296.146591659 399.922591459 286.193958424 398.97683363 278.627895796 c 0
 398.96777945 278.555462354 l 1
 398.955213114 278.48355499 l 0
 362.995857855 72.7161332304 309 -224.097789881 309 -236 c 0
 309 -242.704960125 312.359228449 -244 320 -244 c 0
 341 -244 l 0
 351.009562095 -244 360.093652742 -243.997490839 372.271607238 -245.012320381 c 0
 385.500616567 -246.214957592 387 -255.949985258 387 -265 c 0
 387 -277.212506501 389.249170581 -287 370 -287 c 0
 364.619069081 -287 325.954351129 -284 283 -284 c 0
 252.203781911 -284 201.704739328 -291 196 -291 c 0
 189.129311139 -291 178.80427649 -290.223898384 180.006919101 -275.792187055 c 1
 181.072908778 -256.604372863 187.367164309 -255.06637783 203.486489982 -252.044004267 c 1
 228.713876177 -248.007622475 228.245846945 -251.510823164 233.064950891 -228.379124227 c 0
 254.630253209 -126.43405872 257.91214913 -135.059371667 321.839853062 214.487740806 c 0
 323.04188471 217.727996672 l 1
339 318 m 0
 339 327.538491129 317.856278139 358 274 358 c 0
 188.178250908 358 92 172.256759461 92 99 c 0
 92 63.2311523001 114.001945579 43 136 43 c 0
 169.191548906 43 228.264147541 119.318040841 275.511627943 187.676097592 c 1
 296.444158439 219.573286919 339 289.804511199 339 318 c 0
EndSplineSet
AlternateSubs2: "'aalt' Access All Alternates lookup 0 subtable" q.sub q.sup q.denom q.numer
AlternateSubs2: "'aalt' Access All Alternates in Latin lookup 0 subtable" q.sub q.sup q.denom q.numer
Substitution2: "'subs' Subscript in Latin lookup 8 subtable" q.sub
Substitution2: "'sups' Superscript in Latin lookup 7 subtable" q.sup
Substitution2: "denominators subtable" q.denom
Substitution2: "numerators subtable" q.numer
EndChar

StartChar: r
Encoding: 114 114 18
Width: 341
VWidth: 0
Flags: HW
AnchorPoint: "cedilla" 83 -100 basechar 0
AnchorPoint: "top" 216 500 basechar 0
AnchorPoint: "l;bl" 0 10 basechar 0
AnchorPoint: "l;x" 20 380 basechar 0
AnchorPoint: "l;o" 0 200 basechar 0
AnchorPoint: "r;bl" 321 10 basechar 0
AnchorPoint: "r;x" 341 380 basechar 0
AnchorPoint: "r;o" 321 200 basechar 0
LayerCount: 3
Fore
SplineSet
130.945980603 6.42759602893 m 0
 129.207644155 -4.00242266348 83.69312185 -7 76 -7 c 0
 68.5403650168 -7 63 -5.91793970744 63 0 c 0
 63 9.14625633912 111 236.549822872 111 293 c 0
 111 307.684231708 109.780546242 328 101 328 c 0
 76.9531609821 328 43.4879915491 277 34 277 c 0
 26.5756432941 277 22 284.935707551 22 291 c 0
 22 305.104408813 110.374551433 389 155 389 c 0
 173.207969777 389 176 376.372643402 176 366 c 0
 176 346.893800605 159.522264547 251.457352453 150.566834682 198.949903043 c 1
 165.429927719 238.570923862 185.066673106 295.51039323 209.365109268 339.434489371 c 1
 224.517604032 367.719146262 250.200686379 396 284 396 c 0
 306.693178876 396 334 382.59259922 334 357 c 0
 334 340.125586998 328.154173131 317 309 317 c 0
 285.167931078 317 273.065894148 335 254 335 c 0
 245.388970955 335 238.281955689 329.998101926 231.523535426 319.377727226 c 0
 213.798735838 291.805816756 192.760538433 241.820123692 174.808987533 194.946629675 c 0
 168.901903591 179.19440583 166.928226347 168.335075687 163.905689634 157.252441075 c 1
 148.949813812 95.4348210087 142.956771943 60.4761570575 130.945980603 6.42759602893 c 0
EndSplineSet
AlternateSubs2: "'aalt' Access All Alternates lookup 0 subtable" r.sub r.sup r.denom r.numer
AlternateSubs2: "'aalt' Access All Alternates in Latin lookup 0 subtable" r.sub r.sup r.denom r.numer
Substitution2: "'subs' Subscript in Latin lookup 8 subtable" r.sub
Substitution2: "'sups' Superscript in Latin lookup 7 subtable" r.sup
Substitution2: "denominators subtable" r.denom
Substitution2: "numerators subtable" r.numer
EndChar

StartChar: s
Encoding: 115 115 19
Width: 336
VWidth: 0
Flags: HW
AnchorPoint: "cedilla" 126 -100 basechar 0
AnchorPoint: "top" 220 500 basechar 0
AnchorPoint: "l;bl" 0 10 basechar 0
AnchorPoint: "l;x" 20 380 basechar 0
AnchorPoint: "l;o" 0 200 basechar 0
AnchorPoint: "r;bl" 316 10 basechar 0
AnchorPoint: "r;x" 336 380 basechar 0
AnchorPoint: "r;o" 336 200 basechar 0
LayerCount: 3
Fore
SplineSet
304 335 m 0
 304 322.159660838 294.255020627 315 283 315 c 0
 257.319187767 315 242.486332503 333.34722341 232.386304533 351.527273757 c 1
 224.228130803 365.804077783 218.031538491 377 203 377 c 0
 173.705312576 377 137 363.720798502 137 317 c 0
 137 225.511608758 282 219.075029363 282 107 c 0
 282 45.9460945231 221.315534473 -8 148 -8 c 0
 86.9221697173 -8 17 26.5426850148 17 61 c 0
 17 79.1220682766 34.5758533222 89 44 89 c 0
 67.2925495285 89 76.4004454811 76.842195206 89.1213203436 64.1213203436 c 0
 113.620286745 39.6223539419 122.763935185 24 146 24 c 0
 183.450865116 24 214 50.6300859716 214 94 c 0
 214 152.282267933 70 197.050821846 70 283 c 0
 70 347.991164979 131.639408683 402 204 402 c 0
 293.692502248 402 304 347.308357673 304 335 c 0
EndSplineSet
AlternateSubs2: "'aalt' Access All Alternates lookup 0 subtable" longs s.sub s.sup s.denom s.numer
AlternateSubs2: "'aalt' Access All Alternates in Latin lookup 0 subtable" longs s.sub s.sup s.denom s.numer
Substitution2: "'hist' Historical Forms in Latin lookup 11 subtable" longs
Substitution2: "'subs' Subscript in Latin lookup 8 subtable" s.sub
Substitution2: "'sups' Superscript in Latin lookup 7 subtable" s.sup
Substitution2: "denominators subtable" s.denom
Substitution2: "numerators subtable" s.numer
EndChar

StartChar: t
Encoding: 116 116 20
Width: 284
VWidth: 0
Flags: HW
AnchorPoint: "top" 178 540 basechar 0
AnchorPoint: "caron" 256 550 basechar 0
AnchorPoint: "cedilla" 74 -100 basechar 0
AnchorPoint: "l;bl" 0 10 basechar 0
AnchorPoint: "l;x" 0 380 basechar 0
AnchorPoint: "l;o" 0 200 basechar 0
AnchorPoint: "r;bl" 264 10 basechar 0
AnchorPoint: "r;x" 284 380 basechar 0
AnchorPoint: "r;o" 284 200 basechar 0
LayerCount: 3
Fore
SplineSet
177.972622608 381.587448056 m 0
 177.546746279 377.7545611 177.677139959 375.814181319 177.727194243 375.641696961 c 1
 178.150715442 375.398625456 180.39407856 375 185 375 c 0
 258 375 l 0
 267.425688773 375 270 369.937375145 270 364 c 0
 270 350.929996281 265.831289534 339 254 339 c 0
 181 339 l 2
 169.481664563 339 172.874647927 341.076181092 170.945699349 331.431438202 c 1
 155.004131458 245.745510791 130 93.0166784682 130 85 c 0
 130 76.9111448914 129.501203443 67 146 67 c 0
 167.544961763 67 246.946058232 157 255 157 c 0
 259.703594823 157 272 148.113459239 272 143 c 0
 272 135.103417257 151.074629269 -5 89 -5 c 0
 63.6702119731 -5 51 7.55585724363 51 32 c 0
 51 49.574012378 103.500175242 323.468330137 103.978915567 330.710916808 c 1
 104.146731576 337.423557168 104.417390894 337.456957247 104.300309314 338.481421073 c 1
 103.029176678 338.864952472 101.384037619 339 98 339 c 0
 51 339 l 0
 49.1051759268 339 32 337.319333576 32 346 c 0
 32 349.309651434 33 361.256600991 33 365 c 0
 33 368.280901011 35.9542986585 375 44 375 c 0
 105 375 l 0
 110.804627954 375 111.41507336 374.029610317 113.065871364 380.632802332 c 0
 117.056512593 402.581329091 126.030861931 458.43143515 129.032076349 481.440745684 c 1
 131.128568183 494.019696686 133.630070923 498.84389198 149.507062229 500.960824154 c 0
 155.011913334 502.061794375 161.995914996 502 171 502 c 0
 182.896549872 502 202 502.775934284 202 494 c 0
 202 489.620194288 180.987456167 399.676449408 177.972622608 381.587448056 c 0
EndSplineSet
AlternateSubs2: "'aalt' Access All Alternates lookup 0 subtable" t.sub t.sup t.denom t.numer
AlternateSubs2: "'aalt' Access All Alternates in Latin lookup 0 subtable" t.sub t.sup t.denom t.numer
Substitution2: "'subs' Subscript in Latin lookup 8 subtable" t.sub
Substitution2: "'sups' Superscript in Latin lookup 7 subtable" t.sup
Substitution2: "denominators subtable" t.denom
Substitution2: "numerators subtable" t.numer
EndChar

StartChar: u
Encoding: 117 117 21
Width: 521
VWidth: 0
Flags: HW
AnchorPoint: "top" 318 500 basechar 0
AnchorPoint: "l;bl" 0 10 basechar 0
AnchorPoint: "l;x" 20 380 basechar 0
AnchorPoint: "l;o" 0 200 basechar 0
AnchorPoint: "r;bl" 501 10 basechar 0
AnchorPoint: "r;x" 521 380 basechar 0
AnchorPoint: "r;o" 521 200 basechar 0
LayerCount: 3
Fore
SplineSet
509 147 m 0
 509 138.179724863 427.824118871 -3 365 -3 c 0
 345.965188821 -3 329 8.80371662587 329 27 c 0
 329 65.0957406298 362.729273531 188.635757774 374.983407258 259.981423692 c 1
 361.899949573 233.065095144 339.197043446 188.740066941 314.506666077 151.35178121 c 0
 266.653465944 78.5750393409 199.422570221 -8 139 -8 c 0
 120.147396085 -8 81 -3.8959677052 81 37 c 0
 81 69.4143910098 142 248.8848413 142 315 c 0
 142 326.447685864 140.965466955 341 125 341 c 0
 101.729914243 341 38.5762178986 243 29 243 c 0
 23.2288093287 243 12 248.011160734 12 256 c 0
 12 262.951026314 55.7039254497 320.938963991 94.8521672941 362.094807981 c 1
 112.334687647 379.577328334 137.998753159 394 168 394 c 0
 195.196036694 394 226 382.876290551 226 355 c 0
 226 323.69121707 162 122.960577102 162 77 c 0
 162 67.3899011605 166.510890671 57 187 57 c 0
 211.814111921 57 239.41844559 86.5439262697 272.536433634 133.711969848 c 0
 313.363738945 192.463457978 354.282520046 269.37931418 373.116231362 331.827935912 c 1
 376.039757245 342.547530815 382.080978483 369.720771738 385.040818229 386.493196962 c 0
 386.669853682 396.267409685 400.534269468 394.203834839 440.645361331 398.978964823 c 0
 440.822056821 399 l 1
 441 399 l 0
 445.554058194 399 453 397.105980063 453 387 c 0
 453 374.016279118 398 109.14740818 398 89 c 0
 398 78.9247760281 399.779004839 67 414 67 c 0
 436.27735218 67 489.242310422 157 498 157 c 0
 503.583967047 157 509 152.101582038 509 147 c 0
EndSplineSet
AlternateSubs2: "'aalt' Access All Alternates lookup 0 subtable" u.sub u.sup u.denom u.numer
AlternateSubs2: "'aalt' Access All Alternates in Latin lookup 0 subtable" u.sub u.sup u.denom u.numer
Substitution2: "'subs' Subscript in Latin lookup 8 subtable" u.sub
Substitution2: "'sups' Superscript in Latin lookup 7 subtable" u.sup
Substitution2: "denominators subtable" u.denom
Substitution2: "numerators subtable" u.numer
EndChar

StartChar: v
Encoding: 118 118 22
Width: 443
VWidth: 0
Flags: HW
AnchorPoint: "l;bl" 0 10 basechar 0
AnchorPoint: "l;x" 0 380 basechar 0
AnchorPoint: "l;o" 0 200 basechar 0
AnchorPoint: "r;bl" 423 10 basechar 0
AnchorPoint: "r;x" 443 380 basechar 0
AnchorPoint: "r;o" 443 200 basechar 0
LayerCount: 3
Fore
SplineSet
128.421871475 339.446534408 m 0
 121.982747942 343.126033569 108.842390305 347 106 347 c 0
 73.978034009 347 35.6771834348 283 27 283 c 0
 18.5762496413 283 7 292.302389261 7 299 c 0
 7 312.820199319 86.1041219661 395 124 395 c 0
 135.55833797 395 156.708116285 391.073701366 167.51149621 384.591673411 c 1
 197.255964781 367.736474554 208 360.57210696 208 337 c 0
 208 267.536951897 183 137.301853168 183 100 c 0
 183 84.552418477 209.72380262 67.8261260023 214.033655192 66.9962984978 c 1
 219.740191981 67.0868320906 227.587580865 68.0368192595 234.698713589 76.9257351642 c 1
 241.576206017 84.785726511 253.568806723 101.758332232 265.590064685 117.786676182 c 0
 308.653252571 175.871906354 367 254.422147687 367 331 c 0
 367 362.368837186 357.989075587 368 345 368 c 0
 321.362805691 368 290.367828236 359 286 359 c 0
 281.305463412 359 277 367.001708899 277 378 c 0
 277 389.025343999 351.469118508 404 378 404 c 0
 400.66352493 404 421 398.052414144 421 361 c 0
 421 258.350858032 328.215225657 146.962786634 249.368056652 46.1581781595 c 0
 242.490529459 37.3156431963 232.509938087 22.3522782509 226.563807774 12.4420610619 c 1
 218.581173327 -0.529719915008 212.591058244 -8 200 -8 c 0
 186.338968034 -8 167.19398684 5.6030837868 157.146535344 13.6410449835 c 0
 128.891252532 35.8416243356 117 49.31628298 117 97 c 0
 117 137.58557984 137 256.412873061 137 319 c 0
 137 328.840607697 136.319558375 334.181409808 128.421871475 339.446534408 c 0
EndSplineSet
AlternateSubs2: "'aalt' Access All Alternates lookup 0 subtable" v.sub v.sup v.denom v.numer
AlternateSubs2: "'aalt' Access All Alternates in Latin lookup 0 subtable" v.sub v.sup v.denom v.numer
Substitution2: "'subs' Subscript in Latin lookup 8 subtable" v.sub
Substitution2: "'sups' Superscript in Latin lookup 7 subtable" v.sup
Substitution2: "denominators subtable" v.denom
Substitution2: "numerators subtable" v.numer
EndChar

StartChar: w
Encoding: 119 119 23
Width: 681
VWidth: 0
Flags: HW
AnchorPoint: "r;o" 681 200 basechar 0
AnchorPoint: "r;x" 681 380 basechar 0
AnchorPoint: "r;bl" 661 10 basechar 0
AnchorPoint: "l;o" 0 200 basechar 0
AnchorPoint: "l;x" 0 380 basechar 0
AnchorPoint: "l;bl" 0 10 basechar 0
AnchorPoint: "top" 382 500 basechar 0
LayerCount: 3
Fore
SplineSet
213 322 m 0
 213 253.707774803 188 101.090980623 188 95 c 0
 188 78.638872199 210.401054047 57 219 57 c 0
 221.153976199 57 229.74405205 61.011871283 238.545978849 73.7257655485 c 1
 263.530381553 108.703929335 316.455626766 188.619209124 335.637484997 212.848924785 c 0
 353.003419275 235.038729696 369 287.082149138 369 303 c 0
 369 314.213943366 358.103123952 324.654235361 349.878679656 332.878679656 c 0
 334.869163572 347.888195741 322 351.637825212 322 359 c 0
 322 373.264633612 348.061964031 398 363 398 c 0
 386.757183343 398 437 354.618022913 437 334 c 0
 437 301.313698528 407 132.375453489 407 95 c 0
 407 73.7691287466 429.937817498 55 442 55 c 0
 448.770142498 55 457.401755306 64.5784414256 469.730910483 78.9624557988 c 0
 501.684249916 115.908504519 533.655749442 154.885916839 557.512783614 189.677425005 c 0
 586.278251788 232.329670919 601.010056757 271.60915205 602 329.025860147 c 1
 602 353.195605047 592.892276443 359 584 359 c 0
 560.614412041 359 508.93130302 347 505 347 c 0
 500.048016341 347 496 356.205354477 496 367 c 0
 496 378.171147677 607.514518746 397 616 397 c 0
 638.536607603 397 659 392.117141819 659 355 c 0
 659 273.382075039 578.407283175 148.167933784 493.09740077 61.8544057044 c 1
 475.122378865 44.8779961272 465.293393866 33.0580635593 445.147186258 11.9045455705 c 1
 437.447319762 4.20467907506 435.135390967 1 427 1 c 0
 378.408371684 1 342 39.2548562258 342 81 c 0
 342 98.607730803 358.78414691 174.543815282 367.914578791 218.963141115 c 1
 334.817101982 167.540095382 285.424680584 92.4192950455 251.368056652 49.1581781595 c 0
 244.546587939 40.3877183856 232.51388032 21.3456657326 225.384211741 12.1789489881 c 1
 216.586728149 0.448970865923 213.205320096 -4 202 -4 c 0
 188.238687448 -4 169.102186946 10.6765237019 159.146535344 18.6410449835 c 0
 130.968391121 40.7810154445 123 51.2810841988 123 86 c 0
 123 126.888013032 145 201.36518339 145 298 c 0
 145 313.113136884 118.923809985 341 104 341 c 0
 71.6113864493 341 32.6474706576 284 24 284 c 0
 14.4989759429 284 7 296.50722385 7 302 c 0
 7 316.392084087 96.7262826186 389 134 389 c 0
 146.485728665 389 170.323906016 376.704227527 180.543487266 370.572478777 c 0
 180.604702078 370.53574989 l 1
 180.664100589 370.496150883 l 0
 211.187885396 350.146961011 213 336.629444783 213 322 c 0
EndSplineSet
AlternateSubs2: "'aalt' Access All Alternates lookup 0 subtable" w.sub w.sup w.denom w.numer
AlternateSubs2: "'aalt' Access All Alternates in Latin lookup 0 subtable" w.sub w.sup w.denom w.numer
Substitution2: "'subs' Subscript in Latin lookup 8 subtable" w.sub
Substitution2: "'sups' Superscript in Latin lookup 7 subtable" w.sup
Substitution2: "denominators subtable" w.denom
Substitution2: "numerators subtable" w.numer
EndChar

StartChar: x
Encoding: 120 120 24
Width: 458
VWidth: 0
Flags: HW
AnchorPoint: "l;bl" 0 10 basechar 0
AnchorPoint: "l;x" 20 380 basechar 0
AnchorPoint: "l;o" 0 200 basechar 0
AnchorPoint: "r;bl" 448 10 basechar 0
AnchorPoint: "r;x" 458 380 basechar 0
AnchorPoint: "r;o" 458 200 basechar 0
LayerCount: 3
Fore
SplineSet
210.542146927 180.721547304 m 0
 216.390149971 189.493551869 216.131584909 187.118412294 212.164041339 199.021043001 c 1
 186.904839068 269.746809362 153.814862098 345 115 345 c 0
 85.0642814038 345 52.4111095158 288 40 288 c 0
 32.5092471722 288 26 297.631543462 26 304 c 0
 26 311.656664285 81.3007699796 391 148 391 c 0
 216.414109387 391 230.088645401 338.312973344 263.800036819 249.076937238 c 0
 264.868851562 246.298018906 265.840190678 244.478180199 266.389514209 243.608012837 c 1
 267.652546745 245.081268238 269.179648794 247.797033219 271.450647311 251.582030746 c 1
 305.037004189 303.937234114 354.294841483 399 416 399 c 0
 434.888276583 399 444 377.232436975 444 356 c 0
 444 335.456914618 437.923288319 313.249814794 435.969848481 299.575735931 c 0
 435.958072447 299.493303696 l 1
 435.941742027 299.411651595 l 0
 434.223001377 290.817948345 413 292.16206734 413 300 c 0
 413 311.177791815 414 322.195356301 414 332 c 0
 414 349.243061499 407.896425461 354 400 354 c 0
 374.063887875 354 313.855026318 270.874212564 281.46931753 222.295649381 c 1
 276.868731809 215.854829373 276.939752007 214.641133153 279.857487674 204.915347596 c 1
 295.204520913 159.897383428 334.732378501 55 365 55 c 0
 390.6535909 55 417.707952409 121 426 121 c 0
 429.619623236 121 446 118.096929598 446 110 c 0
 446 89.1857932881 383.521890972 -6 331 -6 c 0
 274.847107293 -6 257.748247619 71.2134521307 228.173887746 155.993283767 c 1
 227.686906977 157.332480881 227.092206184 158.6946141 226.903316637 159.111869424 c 1
 225.55217992 157.329192608 224.375723858 155.495355695 222.263816566 153.031463855 c 0
 182.976070702 107.850556111 115.627933215 -6 49 -6 c 0
 30.4004257137 -6 12 2.57007802526 12 23 c 0
 12 46.8913556938 24.1649544652 84.0112640379 38.265888201 115.234760167 c 0
 38.3672468675 115.459197214 l 1
 38.503849117 115.664100589 l 0
 40.6652616825 118.906219437 43.7053780894 122 49 122 c 0
 50.7945086473 122 66 119.848994774 66 111 c 0
 66 104.962134855 56 85.5199943024 56 65 c 0
 56 51.6885566285 64.3903026256 46 74 46 c 0
 104.02086252 46 185.29418587 146.384320266 210.542146927 180.721547304 c 0
EndSplineSet
AlternateSubs2: "'aalt' Access All Alternates lookup 0 subtable" x.sub x.sup x.denom x.numer
AlternateSubs2: "'aalt' Access All Alternates in Latin lookup 0 subtable" x.sub x.sup x.denom x.numer
Substitution2: "'subs' Subscript in Latin lookup 8 subtable" x.sub
Substitution2: "'sups' Superscript in Latin lookup 7 subtable" x.sup
Substitution2: "denominators subtable" x.denom
Substitution2: "numerators subtable" x.numer
EndChar

StartChar: y
Encoding: 121 121 25
Width: 422
VWidth: 0
Flags: HW
AnchorPoint: "top" 279 500 basechar 0
AnchorPoint: "l;bl" 0 10 basechar 0
AnchorPoint: "l;x" 0 380 basechar 0
AnchorPoint: "l;o" 0 200 basechar 0
AnchorPoint: "l;lo" 0 -260 basechar 0
AnchorPoint: "r;bl" 402 10 basechar 0
AnchorPoint: "r;x" 422 380 basechar 0
AnchorPoint: "r;o" 422 200 basechar 0
LayerCount: 3
Fore
SplineSet
230.615662383 -9.47151459041 m 2
 220.657494606 -28.392020984 l 0
 198.672273471 -70.3638067873 152.654619904 -160.400668234 119.614726611 -218.470783719 c 0
 110.285191915 -235.056623179 97.7502541238 -245.446121253 79.5434872663 -256.572478777 c 0
 54.710794924 -271.472094183 24.6466975196 -292 4 -292 c 0
 -10.1576975203 -292 -16 -273.14162025 -16 -262 c 0
 -16 -220.087172212 29.4485004743 -216.673579017 60.0089487258 -206.168424931 c 0
 78.9957698896 -199.523037524 101.709298635 -177.939980841 112.360283807 -158.574553256 c 0
 166.28626143 -58.7116317323 171 -22.5488275349 171 17 c 0
 171 132.079737136 161.249876613 334 105 334 c 0
 66.742402414 334 33.7566715611 273 24 273 c 0
 21.8371812644 273 7 275.604372195 7 286 c 0
 7 292.453945239 65.9954909013 385 135 385 c 0
 224.558447835 385 225.119990755 242.990899809 233.496455996 54.2819582511 c 1
 267.798633587 119.404125688 316.495241556 200.296800251 340.139252005 276.903394104 c 0
 352.034739198 314.572436882 354.007660209 342.217607079 357.010362725 377.24913644 c 0
 358.033165473 389.522769415 362.584004466 397 371 397 c 0
 384.363707218 397 410 388.044552367 410 369 c 0
 410 364.584320026 408.968383947 357.562016094 407.962003172 351.523731442 c 1
 396.784300695 279.376742726 306.616944861 120.53250424 259.614707403 39.5286481956 c 1
 253.577111045 28.459721539 233.605492703 -4.48846405651 230.615662383 -9.47151459041 c 2
EndSplineSet
AlternateSubs2: "'aalt' Access All Alternates lookup 0 subtable" y.sub y.sup y.denom y.numer
AlternateSubs2: "'aalt' Access All Alternates in Latin lookup 0 subtable" y.sub y.sup y.denom y.numer
Substitution2: "'subs' Subscript in Latin lookup 8 subtable" y.sub
Substitution2: "'sups' Superscript in Latin lookup 7 subtable" y.sup
Substitution2: "denominators subtable" y.denom
Substitution2: "numerators subtable" y.numer
EndChar

StartChar: A
Encoding: 65 65 26
Width: 688
VWidth: 0
Flags: HW
AnchorPoint: "top" 501 780 basechar 0
AnchorPoint: "l;bl" 0 10 basechar 0
AnchorPoint: "l;x" 100 380 basechar 0
AnchorPoint: "l;hi" 180 650 basechar 0
AnchorPoint: "l;o" 60 200 basechar 0
AnchorPoint: "r;bl" 688 10 basechar 0
AnchorPoint: "r;x" 688 380 basechar 0
AnchorPoint: "r;hi" 688 650 basechar 0
AnchorPoint: "r;o" 688 200 basechar 0
LayerCount: 3
Fore
SplineSet
616.271456319 30 m 1
 657 30 l 0
 669.189772879 30 671 26.3318988665 671 14 c 0
 671 -1.09434643566 668.745404972 -6 657 -6 c 0
 641.758628294 -6 596.863142096 -3 567 -3 c 0
 537.137617078 -3 479.163085876 -6 456 -6 c 0
 441.794460233 -6 439 -2.42613207383 439 15 c 0
 439 28.7107827894 444.077861804 30 460 30 c 0
 515.740117477 30 l 1
 516.02027296 32.1011661219 516 34.36424605 516 38 c 0
 516 78.3634692388 491.030066215 228.533188581 488.01425114 261.707154407 c 1
 486.072799136 280.15094845 487.206648587 278 473 278 c 0
 284 278 l 0
 271.723929777 278 270.431723689 277.188358907 263.648617168 264.591161081 c 0
 239.792996928 219.742595031 150.574382281 54.1292942319 143.444004415 30 c 1
 209 30 l 0
 221.189772879 30 223 26.3318988665 223 14 c 0
 223 -1.09434643566 220.745404972 -6 209 -6 c 0
 185.814846366 -6 136.85184426 -3 107 -3 c 0
 77.2148701486 -3 57.2934468887 -6 34 -6 c 0
 19.7944602326 -6 17 -2.42613207383 17 15 c 0
 17 28.7107827894 22.0778618044 30 38 30 c 0
 69.9567856728 30 l 1
 90.3960955559 53.7481896363 337.747601522 493.97510443 417.524078216 611.694051747 c 0
 431.134309441 631.585928152 451.685510385 642.058006463 468.324800307 674.357804547 c 1
 472.239802619 682.18780917 476.918433786 690 486 690 c 0
 499.815373759 690 500.150599561 677.544060738 501.95245343 668.534791391 c 1
 520.340201187 555.304976253 601.370839038 60.4816857355 616.271456319 30 c 1
302 308 m 2
 469 308 l 0
 479.4246744 308 479 310 479 310 c 0
 479 323.484785241 442.4807684 539.873944483 435.39582882 573.272715836 c 1
 432.928210809 569.766448956 430.059375165 564.843872427 426.621119942 558.540404518 c 1
 293.604729426 324.511583185 l 0
 289.542897502 317.403377317 287 312.396286042 287 311 c 0
 287 309.652504027 288.845391208 308 302 308 c 2
EndSplineSet
Position2: "'cpsp' Capital Spacing in Latin lookup 2 subtable" dx=4 dy=0 dh=8 dv=0
EndChar

StartChar: B
Encoding: 66 66 27
Width: 571
VWidth: 0
Flags: HW
AnchorPoint: "l;o" 10 200 basechar 0
AnchorPoint: "l;hi" 60 650 basechar 0
AnchorPoint: "l;x" 30 380 basechar 0
AnchorPoint: "l;bl" 0 10 basechar 0
AnchorPoint: "top" 315 780 basechar 0
AnchorPoint: "r;bl" 541 10 basechar 0
AnchorPoint: "r;x" 561 380 basechar 0
AnchorPoint: "r;hi" 561 650 basechar 0
AnchorPoint: "r;o" 571 200 basechar 0
LayerCount: 3
Fore
SplineSet
439 501 m 0
 439 581.212731614 381.705204509 634 291 634 c 0
 275 634 l 0
 255.946354301 634 250.799154581 632.609510468 245.956331017 605.489698513 c 1
 234.981002561 539.637727773 214.96604344 392.54789319 210.974468657 363.608976008 c 1
 210.323319615 358.399783675 209.695364446 354.426530777 209.667727474 351.89512405 c 0
 209.624799578 347.963146124 209.34902397 347 220 347 c 0
 236 347 l 0
 257.04689904 347 283.182722677 346 287 346 c 0
 308.204249357 346 322.586737069 353.647368146 340.637437658 362.672718441 c 0
 391.272217802 388.486527926 439 428.604775585 439 501 c 0
237 -6 m 0
 213.809530329 -6 166.84942545 -3 137 -3 c 0
 107.146701587 -3 57.182733449 -6 34 -6 c 0
 19.7944602326 -6 17 -2.42613207383 17 15 c 0
 17 28.7107827894 22.0778618044 30 38 30 c 0
 78.420327506 30 l 1
 84.4066256487 69.5392325824 156.189490331 544.91120817 160.006152093 622.198608853 c 1
 160.974530027 633.819144056 161.441507147 633 153 633 c 0
 98 633 l 0
 86.0985927607 633 76 633.807067586 76 651 c 0
 76 664.217451059 81.845949534 668 91 668 c 0
 98.1938491315 668 178.07575095 665 213 665 c 0
 240.88367549 665 309.822022928 668 323 668 c 0
 428.335725514 668 524 634.483499183 524 516 c 0
 524 393.77875569 384.773478485 349.831275796 341.771327156 337.830727951 c 1
 386.056958734 331.676964691 529 306.555045284 529 165 c 0
 529 10.6527946304 347.363018344 -6 237 -6 c 0
441 181 m 0
 441 278.682389464 362.362343915 320 262 320 c 0
 231 320 l 0
 205.675215368 320 206.634664936 319.720147314 204.943226522 310.417236037 c 1
 202.009296548 296.725562828 178.96318547 130.52019115 169.976184266 59.6227372057 c 0
 169.962727737 59.5165801427 l 1
 169.941742027 59.4116515946 l 0
 169.001228619 54.7090845525 169 50.9904373676 169 48 c 0
 169 35.7363937544 173.342272075 36.0594121822 200.21374115 33.9923760995 c 0
 214.05582524 33.0036558073 230.00299235 33 245 33 c 0
 361.37476963 33 441 78.2885774913 441 181 c 0
EndSplineSet
Position2: "'cpsp' Capital Spacing in Latin lookup 2 subtable" dx=4 dy=0 dh=8 dv=0
EndChar

StartChar: C
Encoding: 67 67 28
Width: 686
VWidth: 0
Flags: HW
AnchorPoint: "cedilla" 349 -100 basechar 0
AnchorPoint: "top" 408 780 basechar 0
AnchorPoint: "l;bl" 20 10 basechar 0
AnchorPoint: "l;x" 0 380 basechar 0
AnchorPoint: "l;hi" 40 650 basechar 0
AnchorPoint: "l;o" 0 200 basechar 0
AnchorPoint: "r;bl" 626 10 basechar 0
AnchorPoint: "r;x" 666 380 basechar 0
AnchorPoint: "r;hi" 686 650 basechar 0
AnchorPoint: "r;o" 651 200 basechar 0
LayerCount: 3
Fore
SplineSet
367 23 m 0
 469.191256644 23 543.925292539 84.262296317 548.162940202 96.9752393055 c 0
 559.132343888 128.886231848 567.086071923 158.717351302 573.118436713 180.8360222 c 1
 577.752273792 195.895992707 586.775038079 194.899888864 599.650791373 191.928561181 c 0
 608.287504978 190.009291491 619 186.081445315 619 178 c 0
 619 171.497445569 606.950931702 131.396132498 585.873478856 61.1379563433 c 0
 578.927409523 37.9843919006 455.221019614 -17 360 -17 c 0
 197.082594176 -17 32 61.9495489132 32 291 c 0
 32 509.610401621 204.288695032 674 398 674 c 0
 482.813515265 674 563.546361355 636.190322613 608.479969905 589.984645617 c 1
 611.03378579 599.941564198 615.606349851 628 622 628 c 0
 630.120663923 628 654 624.306362944 654 614 c 0
 654 606.810210447 623.979928334 460.609784581 618.953056046 434.470048687 c 1
 617.424989308 425.30164826 606.635439576 427 603 427 c 0
 589.835041916 427 577 433.574038309 577 441 c 0
 577 446.26410137 598.869668585 526.537894328 599.982264114 537.570125532 c 1
 592.982966826 549.328087489 498.093777045 640 397 640 c 0
 242.607390053 640 128 446.167787693 128 288 c 0
 128 120.453315944 235.694150318 23 367 23 c 0
EndSplineSet
Position2: "'cpsp' Capital Spacing in Latin lookup 2 subtable" dx=4 dy=0 dh=8 dv=0
EndChar

StartChar: D
Encoding: 68 68 29
Width: 742
VWidth: 0
Flags: HW
AnchorPoint: "l;o" 10 200 basechar 0
AnchorPoint: "l;hi" 60 650 basechar 0
AnchorPoint: "l;x" 30 380 basechar 0
AnchorPoint: "l;bl" 0 10 basechar 0
AnchorPoint: "top" 356 780 basechar 0
AnchorPoint: "r;x" 742 380 basechar 0
AnchorPoint: "r;o" 712 200 basechar 0
AnchorPoint: "r;bl" 672 10 basechar 0
AnchorPoint: "r;hi" 722 650 basechar 0
LayerCount: 3
Fore
SplineSet
344 666 m 0
 552.000572365 666 705 571.888586634 705 335 c 0
 705 111.106513927 535.264499744 -4.9862855305 352.016483019 -7 c 1
 286.875147615 -7 191.908202958 -3 127 -3 c 0
 99.1573630088 -3 41.2958898126 -7 30 -7 c 0
 17.4635109714 -7 16 -2.14147359555 16 10 c 0
 16 26.6126655556 22.7687077925 28 36 28 c 0
 77.1835630749 28 l 1
 88.2562262698 63.6583585758 155.383716061 545.700890071 164.022962667 625.373942106 c 1
 164.661213354 629.841696915 162.617160055 632.540385475 162.231995318 632.976832769 c 1
 93.0428484001 631 l 1
 83.7290631765 631 77 632.270412311 77 646 c 0
 77 658.077106713 78.1910441854 665 93 665 c 0
 97.072366626 665 178.018182423 664 212 664 c 0
 271.933767077 664 309.8784516 666 344 666 c 0
178.664100589 31.496150883 m 0
 182.788069889 28.7468380162 215.953948364 28 236 28 c 0
 574.795368599 28 611 268.638608891 611 365 c 0
 611 520.479769227 520.575883606 632 316 632 c 0
 296.965448003 632 268.210969437 631.556409737 255.684319048 628.600268052 c 1
 250.230666307 591.861505131 174 89.6201802537 174 46 c 0
 174 36.5224535239 176.854247517 32.7027195977 178.664100589 31.496150883 c 0
EndSplineSet
Position2: "'cpsp' Capital Spacing in Latin lookup 2 subtable" dx=4 dy=0 dh=8 dv=0
EndChar

StartChar: E
Encoding: 69 69 30
Width: 579
VWidth: 0
Flags: HW
AnchorPoint: "l;bl" 0 10 basechar 0
AnchorPoint: "l;x" 30 380 basechar 0
AnchorPoint: "l;hi" 65 650 basechar 0
AnchorPoint: "l;o" 10 200 basechar 0
AnchorPoint: "top" 352 780 basechar 0
AnchorPoint: "r;bl" 579 10 basechar 0
AnchorPoint: "r;x" 579 380 basechar 0
AnchorPoint: "r;hi" 579 650 basechar 0
AnchorPoint: "r;o" 579 200 basechar 0
LayerCount: 3
Fore
SplineSet
171 33 m 0
 196.370700141 33 479.044639615 39.7393791015 489.611789856 39.991585557 c 1
 496.566320634 46.2946310578 512.959661614 105.891994455 525.223802763 135.137254119 c 1
 527.560959339 140.980145559 532.780767326 146 542 146 c 0
 550.489757577 146 562 140.951601149 562 132 c 0
 562 119.273130628 540.863407172 70.1033885354 519.846049894 7.05131670195 c 0
 516.469535995 -3.07822499412 510.610439742 -6 500 -6 c 0
 476.956044173 -6 166.959737429 -3 137 -3 c 0
 107.146701587 -3 57.182733449 -6 34 -6 c 0
 19.7944602326 -6 17 -2.42613207383 17 15 c 0
 17 28.7107827894 22.0778618044 30 38 30 c 0
 78.440779146 30 l 1
 84.7446479595 69.5491163081 161 550.033858089 161 626 c 0
 161 630.004972016 160.007649951 632.720334115 159.88475452 633 c 1
 106 633 l 0
 94.0985927607 633 84 633.807067586 84 651 c 0
 84 664.217451059 89.845949534 668 99 668 c 0
 106.217607838 668 178.071184023 665 213 665 c 0
 265.926786528 665 378.914001157 668 422 668 c 0
 490.704551645 668 512.702122788 670.461024321 514.040818229 678.493196962 c 1
 514.040818229 678.493196962 521.909703757 693 530 693 c 0
 544.020657829 693 550 690.957346793 550 679 c 0
 550 659.333114729 542.995784611 633.793890299 541 553.962505858 c 1
 541 544.240493683 536.281887309 541 522 541 c 0
 508.775783324 541 504 546.801099351 504 558 c 0
 504 563.057869296 509.177020259 617.246178718 509.910215132 628.943555117 c 1
 489.318178608 632.363953081 352.622074404 634.958669859 251.735828678 634.999807813 c 1
 245.051003747 614.721781048 220.416137118 431.452884271 211.973683702 368.60350884 c 0
 211.365803147 364.044404677 210.789256894 360.693445246 210.739105893 358.639761761 c 0
 210.666315713 355.659003886 209.825932597 355 223 355 c 0
 387 355 l 0
 407.410314183 355 429.613803698 356.219143696 431.034884907 365.456171553 c 0
 431.046746325 365.533270767 l 1
 442.050558441 418.551638237 l 1
 443.514202483 427.333502489 453.505234437 428 461 428 c 0
 467.234429296 428 477 427.436590182 477 419 c 0
 477 408.909027027 466.9591772 369.504463578 459.948616561 331.447134395 c 0
 453.961545918 299.516090965 446.960693721 255.515089527 444.965115093 242.543828447 c 0
 444.954907411 242.477478513 l 1
 444.941742027 242.411651595 l 0
 443.489714126 235.151512091 436.24077849 233 429 233 c 0
 421.646491823 233 409 234.423852941 409 244 c 0
 409 244.248287591 l 1
 409.040818229 244.493196962 l 0
 412.029910501 262.427750599 421 308.00513167 421 311 c 0
 421 317.617778678 417.024623845 322 374 322 c 0
 223 322 l 0
 207.704430275 322 207.583358974 322.619736327 205.945286166 314.429372289 c 1
 203.003691511 298.740867462 171.957596768 82.4569437714 166.980815764 38.6612709359 c 1
 166.980815764 38.6612709359 167.680658656 33 171 33 c 0
EndSplineSet
Position2: "'cpsp' Capital Spacing in Latin lookup 2 subtable" dx=4 dy=0 dh=8 dv=0
EndChar

StartChar: F
Encoding: 70 70 31
Width: 541
VWidth: 0
Flags: HW
AnchorPoint: "r;o" 481 200 basechar 0
AnchorPoint: "r;hi" 541 650 basechar 0
AnchorPoint: "r;x" 541 380 basechar 0
AnchorPoint: "r;bl" 411 10 basechar 0
AnchorPoint: "l;o" 10 200 basechar 0
AnchorPoint: "l;hi" 65 650 basechar 0
AnchorPoint: "l;x" 30 380 basechar 0
AnchorPoint: "l;bl" 0 10 basechar 0
AnchorPoint: "top" 344 780 basechar 0
LayerCount: 3
Fore
SplineSet
488.024665182 678.396278682 m 0
 489.158674627 689.736373134 495.087272702 693 504 693 c 0
 518.020657829 693 524 690.957346793 524 679 c 0
 524 659.333114729 516.995784611 633.793890299 515 553.962505858 c 1
 515 544.240493683 510.281887309 541 496 541 c 0
 482.775783324 541 478 546.801099351 478 558 c 0
 478 563.097696489 483.171425059 617.156913 483.915461622 629.027257524 c 1
 466.294443335 632.346774462 352.061485267 634.954313665 251.790685639 634.999824085 c 1
 244.503389996 611.072075342 216.669801965 402.355861477 211.97683363 367.627895796 c 0
 211.464589775 363.529944953 211.103907868 360.51873944 211.091972147 358.560116684 c 0
 211.068759016 354.750898552 210.268348188 355 223 355 c 0
 379 355 l 0
 399.412258031 355 421.608049249 356.181739774 423.042023235 365.502570685 c 1
 431.045453129 408.521006364 l 1
 432.51845343 417.359008172 442.503747902 418 450 418 c 0
 456.234429296 418 466 417.436590182 466 409 c 0
 466 399.039289216 458.965735445 369.540065479 451.948616561 331.447134395 c 0
 445.971964591 299.571657224 441.981282117 265.648914102 439.965115093 252.543828447 c 0
 439.954907411 252.477478513 l 1
 439.941742027 252.411651595 l 0
 438.489714126 245.151512091 431.24077849 243 424 243 c 0
 416.646491823 243 404 244.423852941 404 254 c 0
 404 254.248287591 l 1
 404.040818229 254.493196962 l 0
 407.015472853 272.341124708 413 307.885313379 413 311 c 0
 413 317.617778678 409.024623845 322 366 322 c 0
 223 322 l 0
 207.704430275 322 207.583358974 322.619736327 205.945286166 314.429372289 c 1
 203.00563475 298.751231402 171.958153637 79.4618442115 166.980815764 35.6612709359 c 0
 166.972007214 35.5837556941 l 1
 166.959181771 35.5068030381 l 0
 166.249398695 31.2481045793 167.387866278 30 172 30 c 2
 237 30 l 0
 249.189772879 30 251 26.3318988665 251 14 c 0
 251 -1.09434643566 248.745404972 -6 237 -6 c 0
 213.809530329 -6 166.84942545 -3 137 -3 c 0
 107.146701587 -3 57.182733449 -6 34 -6 c 0
 19.7944602326 -6 17 -2.42613207383 17 15 c 0
 17 28.7107827894 22.0778618044 30 38 30 c 0
 78.440779146 30 l 1
 84.7446479595 69.5491163081 161 550.033858089 161 626 c 0
 161 630.004972016 160.007649951 632.720334115 159.88475452 633 c 1
 106 633 l 0
 94.0985927607 633 84 633.807067586 84 651 c 0
 84 664.217451059 89.845949534 668 99 668 c 0
 106.217607838 668 178.071184023 665 213 665 c 0
 265.926786528 665 378.914001157 668 422 668 c 0
 490.152989509 668 486.451794756 668.95905613 488.024665182 678.396278682 c 0
EndSplineSet
Position2: "'cpsp' Capital Spacing in Latin lookup 2 subtable" dx=4 dy=0 dh=8 dv=0
EndChar

StartChar: G
Encoding: 71 71 32
Width: 721
VWidth: 0
Flags: HW
AnchorPoint: "r;o" 721 200 basechar 0
AnchorPoint: "r;hi" 721 650 basechar 0
AnchorPoint: "r;x" 721 380 basechar 0
AnchorPoint: "r;bl" 661 10 basechar 0
AnchorPoint: "l;o" 0 200 basechar 0
AnchorPoint: "l;hi" 40 650 basechar 0
AnchorPoint: "l;x" 0 380 basechar 0
AnchorPoint: "l;bl" 20 10 basechar 0
AnchorPoint: "cedilla" 294 -100 basechar 0
AnchorPoint: "top" 422 780 basechar 0
LayerCount: 3
Fore
SplineSet
133 276 m 0
 133 110.35891967 237.818075331 11 362 11 c 0
 457.670042941 11 517.76430497 53.4265367569 522.094063729 70.7455717925 c 1
 527.056638424 89.6033556331 537.009449637 136.284747745 540.00493144 206.179323146 c 1
 540.92512432 218.141830593 538.732703332 217 534 217 c 0
 449 217 l 0
 440.40010246 217 438 224.806635884 438 232 c 0
 438 240.4490622 439.582342284 253 450.030609058 253 c 1
 499.135582668 251.997857681 548.090892889 250 580 250 c 0
 611.873727865 250 635.818320813 251.996813449 682.968088717 253 c 1
 692.980829885 253 694 243.576843276 694 236 c 0
 694 228.743863719 693.376465616 217 683 217 c 0
 627.753247957 217 l 1
 623.114282289 200.56458131 613.636992563 105.652942312 609.981651204 73.6687054218 c 0
 607.539817048 51.692198017 449.809399151 -29 308 -29 c 0
 229.236176437 -29 32 16.7392360655 32 266 c 0
 32 488.471832735 207.102572973 678 411 678 c 0
 526.359087306 678 611.209702327 627.083782253 626.691513351 618.102029531 c 1
 628.457165452 624.639714338 630.245269905 637.523408066 631.058257973 641.588348405 c 0
 631.072258336 641.658350221 l 1
 631.0895725 641.727606875 l 0
 633.093215638 649.742179428 635.355279203 655 645 655 c 0
 653.68005522 655 670.583132626 653.869389488 668.96639726 642.552241923 c 0
 660.962842304 589.528690336 656.982017746 564.671869516 645.978961221 467.644916525 c 1
 644.946244793 459.383185101 642.78951393 451 628 451 c 0
 608.68739531 451 604.711320398 460.030258475 607.080000382 470.689318404 c 1
 607.947651755 474.159923899 622.280326506 558.480554987 622.983920861 569.448307153 c 1
 613.549063038 580.817704594 489.350419463 647 415 647 c 0
 253.583804577 647 133 448.166371258 133 276 c 0
EndSplineSet
Position2: "'cpsp' Capital Spacing in Latin lookup 2 subtable" dx=4 dy=0 dh=8 dv=0
EndChar

StartChar: H
Encoding: 72 72 33
Width: 795
VWidth: 0
Flags: HW
AnchorPoint: "top" 454 780 basechar 0
AnchorPoint: "l;bl" 0 10 basechar 0
AnchorPoint: "l;x" 35 380 basechar 0
AnchorPoint: "l;hi" 65 650 basechar 0
AnchorPoint: "l;o" 15 200 basechar 0
AnchorPoint: "r;bl" 735 10 basechar 0
AnchorPoint: "r;x" 775 380 basechar 0
AnchorPoint: "r;hi" 795 650 basechar 0
AnchorPoint: "r;o" 755 200 basechar 0
LayerCount: 3
Fore
SplineSet
577.018497668 314.339557401 m 0
 577.89022833 323.928594687 579.599231974 323 565 323 c 0
 231 323 l 0
 219.963690539 323 218.846515433 322.712884478 216.972635027 309.595721636 c 0
 199.987162263 184.702539548 185 65.4216777212 185 40 c 0
 185 32.0557156266 186.67977037 30 190 30 c 0
 249 30 l 0
 261.189772879 30 263 26.3318988665 263 14 c 0
 263 -1.09434643566 260.745404972 -6 249 -6 c 0
 225.834231192 -6 165.871418506 -3 136 -3 c 0
 106.148205428 -3 57.1851011995 -6 34 -6 c 0
 19.561018598 -6 17 -0.487641847479 17 13 c 0
 17 26.358769251 21.4412165408 30 38 30 c 0
 89.4654895303 30 l 1
 103.143760991 65.1234208324 177 587.261287307 177 623 c 0
 177 633.17990576 175.161808344 636 171 636 c 2
 110 636 l 0
 102.04360983 636 95 638.658970439 95 654 c 0
 95 671.050909463 104.042676573 672 117 672 c 0
 133.192667566 672 193.120058871 669 223 669 c 0
 252.850210811 669 300.812533505 672 324 672 c 0
 338.205539767 672 341 668.426132074 341 651 c 0
 341 637.289217211 335.922138196 636 320 636 c 0
 271.307166957 636 l 1
 264.3534839 620.876828301 244.55807423 498.694242536 225.973683702 368.60350884 c 0
 225.392891213 364.24756517 224.919786629 360.867459178 224.877914302 358.515718503 c 0
 224.797088186 353.976155506 224.676669921 353 235 353 c 0
 567 353 l 0
 580.175764545 353 582.363613432 352.429968182 584.031736102 362.438704204 c 1
 600.000967969 486.200251173 614 601.620864126 614 623 c 0
 614 635.947854848 612.775541933 636 608 636 c 0
 547 636 l 0
 539.04360983 636 532 638.658970439 532 654 c 0
 532 671.050909463 541.042676573 672 554 672 c 0
 570.190654844 672 631.118596127 669 661 669 c 0
 690.847685692 669 737.811353709 672 761 672 c 0
 775.205539767 672 778 668.426132074 778 651 c 0
 778 637.289217211 772.922138196 636 757 636 c 0
 708.135998256 636 l 1
 691.266580047 603.059268648 626 50.7433893896 626 40 c 0
 626 32.0557156266 627.67977037 30 631 30 c 0
 688 30 l 0
 700.189772879 30 702 26.3318988665 702 14 c 0
 702 -1.09434643566 699.745404972 -6 688 -6 c 0
 664.835530639 -6 603.873333789 -3 574 -3 c 0
 544.160385772 -3 502.202645739 -6 479 -6 c 0
 464.794460233 -6 462 -2.42613207383 462 15 c 0
 462 28.7107827894 467.077861804 30 483 30 c 0
 534.231745366 30 l 1
 539.809965916 47.6362872601 558.482328968 179.025525893 577.018497668 314.339557401 c 0
EndSplineSet
Position2: "'cpsp' Capital Spacing in Latin lookup 2 subtable" dx=4 dy=0 dh=8 dv=0
EndChar

StartChar: I
Encoding: 73 73 34
Width: 377
VWidth: 0
Flags: HW
AnchorPoint: "r;o" 327 200 basechar 0
AnchorPoint: "r;hi" 377 650 basechar 0
AnchorPoint: "r;x" 347 380 basechar 0
AnchorPoint: "r;bl" 307 10 basechar 0
AnchorPoint: "l;o" 15 200 basechar 0
AnchorPoint: "l;hi" 80 650 basechar 0
AnchorPoint: "l;x" 35 380 basechar 0
AnchorPoint: "l;bl" 0 10 basechar 0
AnchorPoint: "top" 250 780 basechar 0
LayerCount: 3
Fore
SplineSet
178 636 m 2
 112 636 l 0
 104.04360983 636 97 638.658970439 97 654 c 0
 97 671.050909463 106.042676573 672 119 672 c 0
 135.177800381 672 204.105335417 669 234 669 c 0
 263.860559231 669 319.831887833 672 343 672 c 0
 357.205539767 672 360 668.426132074 360 651 c 0
 360 637.289217211 354.922138196 636 339 636 c 0
 283.323216665 636 l 1
 268.502531607 604.252684816 197 97.1062364865 197 40 c 0
 197 32.0557156266 198.67977037 30 202 30 c 0
 268 30 l 0
 280.189772879 30 282 26.3318988665 282 14 c 0
 282 -1.09434643566 279.745404972 -6 268 -6 c 0
 244.850050711 -6 176.876867671 -3 147 -3 c 0
 117.136026437 -3 57.1580270309 -6 34 -6 c 0
 19.7944602326 -6 17 -2.42613207383 17 15 c 0
 17 28.7107827894 22.0778618044 30 38 30 c 0
 96.1879200715 30 l 1
 107.718654922 66.0908025093 184 574.795550152 184 623 c 0
 184 633.17990576 182.161808344 636 178 636 c 2
EndSplineSet
Position2: "'cpsp' Capital Spacing in Latin lookup 2 subtable" dx=4 dy=0 dh=8 dv=0
EndChar

StartChar: J
Encoding: 74 74 35
Width: 365
VWidth: 0
Flags: HW
AnchorPoint: "l;bl" 0 10 basechar 0
AnchorPoint: "l;x" 35 380 basechar 0
AnchorPoint: "l;hi" 70 650 basechar 0
AnchorPoint: "l;o" 15 200 basechar 0
AnchorPoint: "r;bl" 295 10 basechar 0
AnchorPoint: "r;x" 335 380 basechar 0
AnchorPoint: "r;hi" 365 650 basechar 0
AnchorPoint: "r;o" 315 200 basechar 0
AnchorPoint: "top" 237 780 basechar 0
LayerCount: 3
Fore
SplineSet
106.016048014 -4.69008410548 m 0
 131.005344652 239.205451082 184 604.86526304 184 621 c 0
 184 631.771614311 183.954961183 636 177 636 c 0
 109 636 l 0
 97.2207339731 636 86 636.626237657 86 654 c 0
 86 671.242348107 96.1672643362 672 109 672 c 0
 125.159450083 672 202.105042854 669 232 669 c 0
 261.846258566 669 307.808540836 672 331 672 c 0
 345.205539767 672 348 668.426132074 348 651 c 0
 348 637.289217211 342.922138196 636 327 636 c 0
 278.226398705 636 l 1
 264.756867132 608.141178217 216.535859504 206.419843883 205.975190088 129.6149754 c 0
 194.995852137 44.7746366938 185.022440123 -66.1645361523 106.190814241 -150.049471386 c 0
 77.2204098268 -181.017834725 42.5307702258 -215 -5 -215 c 0
 -27.5370536734 -215 -61 -205.74440398 -61 -188 c 0
 -61 -150.238018908 0.588986733122 -121 9 -121 c 0
 27.4594577656 -121 41.9007053482 -142 61 -142 c 0
 94.8457638783 -142 99.8191600935 -63.5605193502 106.016048014 -4.69008410548 c 0
EndSplineSet
Position2: "'cpsp' Capital Spacing in Latin lookup 2 subtable" dx=4 dy=0 dh=8 dv=0
EndChar

StartChar: K
Encoding: 75 75 36
Width: 656
VWidth: 0
Flags: HW
AnchorPoint: "l;bl" 0 10 basechar 0
AnchorPoint: "l;x" 30 380 basechar 0
AnchorPoint: "l;hi" 65 650 basechar 0
AnchorPoint: "l;o" 10 200 basechar 0
AnchorPoint: "cedilla" 308 -100 basechar 0
AnchorPoint: "r;bl" 656 10 basechar 0
AnchorPoint: "r;x" 636 380 basechar 0
AnchorPoint: "r;hi" 646 650 basechar 0
AnchorPoint: "r;o" 636 200 basechar 0
LayerCount: 3
Fore
SplineSet
325.072392839 349.170247848 m 0
 393.582347118 286.705289535 481.427392109 156.763372396 564.414507739 45.7806032997 c 1
 571.816352807 35.6030663307 583.842665732 30 597 30 c 0
 625 30 l 0
 637.189772879 30 639 26.3318988665 639 14 c 0
 639 -1.09434643566 636.745404972 -6 625 -6 c 0
 601.835530639 -6 540.873333789 -3 511 -3 c 0
 481.200813423 -3 456.264068369 -6 433 -6 c 0
 418.794460233 -6 416 -2.42613207383 416 15 c 0
 416 28.7107827894 421.077861804 30 437 30 c 0
 445 30 l 0
 460.594619248 30 462 33.3885022006 462 34 c 0
 462 37.0850530947 456.833467743 43.8887096763 450.571558827 52.2379215646 c 1
 411.67369797 107.667373285 270.430765164 306.944728017 256.438178265 317 c 1
 211 317 l 0
 201.579261432 317 199.602033001 318.540671672 197.963755151 309.5301435 c 0
 184.989804426 213.722507375 161 69.2258016683 161 38 c 0
 161 34.6043913265 161.592522448 30.6856849188 161.738801897 30 c 1
 229 30 l 0
 241.189772879 30 243 26.3318988665 243 14 c 0
 243 -1.09434643566 240.745404972 -6 229 -6 c 0
 205.834231192 -6 145.871418506 -3 116 -3 c 0
 86.1897232703 -3 57.246172749 -6 34 -6 c 0
 19.561018598 -6 17 -0.487641847479 17 13 c 0
 17 26.358769251 21.4412165408 30 38 30 c 0
 69.482466291 30 l 1
 83.4836490405 65.1073065688 162 587.292048434 162 623 c 0
 162 633.17990576 160.161808344 636 156 636 c 0
 99 636 l 0
 91.0436098298 636 84 638.658970439 84 654 c 0
 84 671.050909463 93.0426765729 672 106 672 c 0
 122.201816785 672 178.125377552 669 208 669 c 0
 237.831709638 669 275.785662628 672 299 672 c 0
 313.205539767 672 316 668.426132074 316 651 c 0
 316 637.289217211 310.922138196 636 295 636 c 0
 260.425355488 636 l 1
 245.718417024 622.584627575 205.946399382 373.048731481 204.992218722 357.781840931 c 1
 204.048436297 346.456451832 208.463660344 341 215 341 c 0
 264.677693799 341 l 1
 280.991052168 349.320264587 442.767637029 560.419657981 485.534541635 619.710139366 c 1
 489.84403553 626.174380208 495 632.203395182 495 634 c 0
 495 634.210881134 492.313480262 636 483 636 c 0
 462 636 l 0
 450.098592761 636 440 636.807067586 440 654 c 0
 440 671.050909463 449.042676573 672 462 672 c 0
 478.346752053 672 501.1807717 669 531 669 c 0
 560.803516767 669 587.74737594 672 611 672 c 0
 625.205539767 672 628 668.426132074 628 651 c 0
 628 637.289217211 622.922138196 636 607 636 c 0
 550.506045027 636 l 1
 485.709152988 549.177703036 379.164908667 426.921184924 333.242227956 376.006908484 c 0
 325.745432296 367.573013366 317.669413604 360.105854427 317.012676599 358.825217267 c 1
 317.613098416 356.889646935 320.633179419 353.609461268 325.072392839 349.170247848 c 0
EndSplineSet
Position2: "'cpsp' Capital Spacing in Latin lookup 2 subtable" dx=4 dy=0 dh=8 dv=0
EndChar

StartChar: L
Encoding: 76 76 37
Width: 586
VWidth: 0
Flags: HW
AnchorPoint: "l;o" 10 200 basechar 0
AnchorPoint: "l;hi" 70 650 basechar 0
AnchorPoint: "l;x" 30 380 basechar 0
AnchorPoint: "l;bl" 0 10 basechar 0
AnchorPoint: "caron" 380 550 basechar 0
AnchorPoint: "cedilla" 295 -100 basechar 0
AnchorPoint: "top" 223 780 basechar 0
AnchorPoint: "r;bl" 586 10 basechar 0
AnchorPoint: "r;o" 586 200 basechar 0
LayerCount: 3
Fore
SplineSet
195 34 m 0
 303.857022782 34 476.06469943 39.0214326293 485.75709274 39.9906719604 c 1
 501.003713999 40.943585789 500.146064379 39.9313901608 506.130115707 60.8755698099 c 1
 531.177472034 138.021427295 l 1
 531.214569927 138.114172029 l 0
 533.481815459 143.782285859 537.662514239 148 545 148 c 0
 554.656546006 148 569 144.580812308 569 135 c 0
 569 125.280604036 549.913405565 77.2837031973 531.917815305 7.30085218525 c 1
 529.446386376 -3.82057799588 519.079582723 -6 509 -6 c 0
 485.957664087 -6 162.961153462 -3 133 -3 c 0
 103.152314308 -3 56.1886462915 -6 33 -6 c 0
 18.6257430012 -6 17 -2.11312772851 17 15 c 0
 17 28.4236463003 20.9254758686 30 37 30 c 0
 86.596455919 30 l 1
 93.8455582993 71.4962062725 163 596.012446972 163 626 c 0
 163 631.026922343 162.848806465 634.859280891 162.714604217 636 c 1
 106 636 l 0
 92.4036021477 636 87 638.687193082 87 654 c 0
 87 669.771124796 93.812716214 672 110 672 c 0
 126.21302106 672 178.129657212 669 208 669 c 0
 237.861502778 669 294.834394898 672 318 672 c 0
 334.618669688 672 338 669.007412438 338 654 c 0
 338 640.808682282 333.841473313 636 317 636 c 0
 257.638311969 636 l 1
 252.118044 594.088187728 181 64.6606683487 181 53 c 0
 181 40.4874352327 184.261324745 34 195 34 c 0
EndSplineSet
AlternateSubs2: "'aalt' Access All Alternates in Latin lookup 0 subtable" L.CAT
Position2: "'cpsp' Capital Spacing in Latin lookup 2 subtable" dx=4 dy=0 dh=8 dv=0
Substitution2: "catalan subtable" L.CAT
EndChar

StartChar: M
Encoding: 77 77 38
Width: 883
VWidth: 0
Flags: HW
AnchorPoint: "top" 507 780 basechar 0
AnchorPoint: "l;bl" 0 10 basechar 0
AnchorPoint: "l;x" 40 380 basechar 0
AnchorPoint: "l;hi" 120 650 basechar 0
AnchorPoint: "l;o" 20 200 basechar 0
AnchorPoint: "r;bl" 843 10 basechar 0
AnchorPoint: "r;x" 883 380 basechar 0
AnchorPoint: "r;hi" 883 650 basechar 0
AnchorPoint: "r;o" 883 200 basechar 0
LayerCount: 3
Fore
SplineSet
356.039335686 35.5156982937 m 0
 332.754068416 180.600825132 261.946722812 532.795847375 247.636270817 603.665897953 c 1
 225.102275553 516.467227563 210.254487195 451.061161909 194.937105148 376.388924432 c 0
 165.12024785 233.075642581 134.388868218 61.1220398099 132.13167033 30 c 1
 194 30 l 0
 206.189772879 30 208 26.3318988665 208 14 c 0
 208 -1.09434643566 205.745404972 -6 194 -6 c 0
 183.731519891 -6 135.883867847 -3 106 -3 c 0
 76.1680773673 -3 48.3250366242 -6 34 -6 c 0
 19.7944602326 -6 17 -2.42613207383 17 15 c 0
 17 28.7107827894 22.0778618044 30 38 30 c 0
 83.5789041073 30 l 1
 114.480742828 172.854907743 215.722092216 618.965200909 216.003807484 631.168011096 c 1
 215.80451039 634.744479055 213.566776279 636 194 636 c 0
 148 636 l 0
 135.810227121 636 134 639.668101134 134 652 c 0
 134 667.094346436 136.254595028 672 148 672 c 0
 162.171857007 672 232.132744754 669 253 669 c 0
 274.82918097 669 293.397934615 672 300 672 c 0
 309.951145935 672 319.491111628 671.546847008 322.933601716 656.629389961 c 1
 423.941742027 147.588348405 l 0
 426.561785331 134.488131885 429.708141994 127.132754233 430.997286393 126.038704231 c 1
 433.715595542 127.714815801 439.046701053 136.926762814 444.285382298 148.277238844 c 1
 526.30315908 319.314309937 602.30414387 480.322138221 696.366313281 653.436556392 c 0
 702.517252716 664.713278689 707.049473638 669 720 669 c 0
 764 669 l 0
 793.81798652 669 825.765566965 672 849 672 c 0
 863.205539767 672 866 668.426132074 866 651 c 0
 866 637.289217211 860.922138196 636 845 636 c 0
 801.702000848 636 l 1
 797.176602256 594.659031985 740.101801003 92.6525266894 738.055168885 30 c 1
 812 30 l 0
 823.776112898 30 828 27.0834052636 828 14 c 0
 828 -1.09434643566 825.745404972 -6 814 -6 c 0
 790.851420605 -6 721.877762863 -3 692 -3 c 0
 662.105803932 -3 605.240921195 -6 596 -6 c 0
 581.794460233 -6 579 -2.42613207383 579 15 c 0
 579 28.7107827894 584.077861804 30 600 30 c 0
 638.32586984 30 l 1
 656.882782758 54.8506270773 705.516580725 517.469177721 714.465288643 605.88531231 c 1
 628.378928145 441.83101874 566.05536245 329.085387228 468.71854942 122.731343604 c 0
 447.377679366 77.0009077748 429.016315544 71.698825255 393.352358848 25.1375484578 c 1
 384.278835897 14.0476870725 380.197263543 12 375 12 c 0
 368.345075602 12 359.188490937 16.6207667888 356.039335686 35.5156982937 c 0
EndSplineSet
Position2: "'cpsp' Capital Spacing in Latin lookup 2 subtable" dx=4 dy=0 dh=8 dv=0
EndChar

StartChar: N
Encoding: 78 78 39
Width: 824
VWidth: 0
Flags: HW
AnchorPoint: "cedilla" 379 -100 basechar 0
AnchorPoint: "top" 474 780 basechar 0
AnchorPoint: "l;bl" 0 10 basechar 0
AnchorPoint: "l;x" 20 380 basechar 0
AnchorPoint: "l;hi" 70 650 basechar 0
AnchorPoint: "l;o" 0 200 basechar 0
AnchorPoint: "r;bl" 744 10 basechar 0
AnchorPoint: "r;x" 804 380 basechar 0
AnchorPoint: "r;hi" 824 650 basechar 0
AnchorPoint: "r;o" 784 200 basechar 0
LayerCount: 3
Fore
SplineSet
280.517963052 657.631088694 m 2
 609.496150883 158.664100589 l 0
 616.143928314 148.692434443 620.142250264 148.196064583 621.530676926 148.049593199 c 1
 633.845769576 179.022603767 692 570.280161469 692 627 c 0
 692 631.620812622 691.731909342 635.9285056 691.720681055 636 c 1
 617 636 l 0
 604.810227121 636 603 639.668101134 603 652 c 0
 603 667.094346436 605.254595028 672 617 672 c 0
 640.220630524 672 676.172627439 669 706 669 c 0
 735.815465567 669 766.761839989 672 790 672 c 0
 804.205539767 672 807 668.426132074 807 651 c 0
 807 637.289217211 801.922138196 636 786 636 c 0
 745.852793835 636 l 1
 736.963166287 607.268982714 687.884866175 303.718467351 666.962321896 171.526028497 c 0
 662.960607673 146.515314602 657.993030897 122.794339451 650.995853488 3.84232350063 c 0
 649.995509244 -15.1642171304 646.234613676 -24 632 -24 c 0
 619.16542327 -24 609.982170295 -4.80123571999 601.436781813 9.44107841666 c 1
 556.490911003 82.353268842 526.515621581 126.318339467 483.524402979 189.305473697 c 0
 227.533285827 563.292496412 l 1
 221.760713379 571.53902848 216.668213251 580.502263319 214.575153744 582.50332021 c 1
 213.397782981 579.337560039 212.655492146 574.512291113 212 566.02323249 c 1
 212 552.072708275 142 127.536788184 142 42 c 0
 142 35.4051414497 142.84849179 30.5663576101 143.03727766 30 c 1
 227 30 l 0
 239.189772879 30 241 26.3318988665 241 14 c 0
 241 -1.09434643566 238.745404972 -6 227 -6 c 0
 203.823107874 -6 150.858601529 -3 121 -3 c 0
 91.1072034944 -3 42.281660505 -6 34 -6 c 0
 19.7944602326 -6 17 -2.42613207383 17 15 c 0
 17 28.7107827894 22.0778618044 30 38 30 c 0
 85.4466577747 30 l 1
 113.484270466 203.078626042 143.178565046 373.246339079 174.040428792 541.493273697 c 1
 177.049511072 561.553822228 185 596.689382324 185 614 c 0
 185 617.157501435 184.611111758 617.133861113 180.376511997 624.544410694 c 1
 173.925221708 636.525378373 172.190992323 636 151 636 c 0
 101 636 l 0
 88.8102271207 636 87 639.668101134 87 652 c 0
 87 667.094346436 89.2545950276 672 101 672 c 0
 115.163394106 672 192.11880082 669 213 669 c 0
 234.826149821 669 251.355737711 672 258 672 c 0
 269.836159851 672 273.451092381 668.736171177 280.517963052 657.631088694 c 2
EndSplineSet
Position2: "'cpsp' Capital Spacing in Latin lookup 2 subtable" dx=4 dy=0 dh=8 dv=0
EndChar

StartChar: O
Encoding: 79 79 40
Width: 734
VWidth: 0
Flags: HW
AnchorPoint: "top" 439 780 basechar 0
AnchorPoint: "l;bl" 20 10 basechar 0
AnchorPoint: "l;x" 0 380 basechar 0
AnchorPoint: "l;hi" 40 650 basechar 0
AnchorPoint: "l;o" 0 200 basechar 0
AnchorPoint: "r;x" 734 380 basechar 0
AnchorPoint: "r;hi" 734 650 basechar 0
AnchorPoint: "r;o" 699 200 basechar 0
AnchorPoint: "r;bl" 644 10 basechar 0
LayerCount: 3
Fore
SplineSet
334 -25 m 0
 172.773368024 -25 32 64.2348382981 32 280 c 0
 32 520.714715198 224.389642832 676 407 676 c 0
 589.836063872 676 702 543.235011704 702 348 c 0
 702 146.395151843 538.724489709 -25 334 -25 c 0
130 286 m 0
 130 147.605623882 195.462800838 5 351 5 c 0
 506.109951039 5 605 213.469080259 605 373 c 0
 605 483.708486219 551.158713036 642 410 642 c 0
 267.410644667 642 130 461.901788637 130 286 c 0
EndSplineSet
Position2: "'cpsp' Capital Spacing in Latin lookup 2 subtable" dx=4 dy=0 dh=8 dv=0
EndChar

StartChar: P
Encoding: 80 80 41
Width: 570
VWidth: 0
Flags: HW
AnchorPoint: "l;bl" 0 10 basechar 0
AnchorPoint: "l;x" 30 380 basechar 0
AnchorPoint: "l;hi" 69 650 basechar 0
AnchorPoint: "l;o" 10 200 basechar 0
AnchorPoint: "top" 325 780 basechar 0
AnchorPoint: "r;bl" 420 10 basechar 0
AnchorPoint: "r;x" 530 380 basechar 0
AnchorPoint: "r;hi" 570 650 basechar 0
AnchorPoint: "r;o" 480 200 basechar 0
LayerCount: 3
Fore
SplineSet
248.806808193 636.54904387 m 1
 244.136111791 607.033543679 215.847018223 418.674530323 206.977531262 353.631625943 c 1
 205.980756064 344.660649162 205 338.511256078 205 335 c 0
 205 327.343566682 210.964297265 326 233 326 c 0
 341.608860409 326 455 370.618210874 455 490 c 0
 455 587.35521676 398.749777843 640 291 640 c 0
 281.331864608 640 253.76780464 638.462682329 248.806808193 636.54904387 c 1
291 299 m 0
 263.892243023 299 224.814976661 301 215 301 c 0
 202.795088793 301 201.634690132 300.253384744 199.957512884 294.49458145 c 1
 197.002455441 278.734275088 171.969336587 79.5602541777 166.980815764 35.6612709359 c 0
 166.972007214 35.5837556941 l 1
 166.959181771 35.5068030381 l 0
 166.249398695 31.2481045793 167.387866278 30 172 30 c 0
 237 30 l 0
 249.189772879 30 251 26.3318988665 251 14 c 0
 251 -1.09434643566 248.745404972 -6 237 -6 c 0
 213.809530329 -6 166.84942545 -3 137 -3 c 0
 107.146701587 -3 57.182733449 -6 34 -6 c 0
 19.7944602326 -6 17 -2.42613207383 17 15 c 0
 17 28.7107827894 22.0778618044 30 38 30 c 0
 78.4055955244 30 l 1
 84.4781900812 71.6756084271 161 598.015753917 161 626 c 0
 161 630.004972016 160.007649951 632.720334115 159.88475452 633 c 1
 106 633 l 0
 94.0985927607 633 84 633.807067586 84 651 c 0
 84 664.217451059 89.845949534 668 99 668 c 0
 106.228500077 668 173.07708204 665 208 665 c 0
 237.794831506 665 306.743439098 670 325 670 c 0
 462.152776973 670 538 595.908538769 538 496 c 0
 538 341.500697022 407.397741304 299 291 299 c 0
EndSplineSet
Position2: "'cpsp' Capital Spacing in Latin lookup 2 subtable" dx=4 dy=0 dh=8 dv=0
EndChar

StartChar: Q
Encoding: 81 81 42
Width: 717
VWidth: 0
Flags: HW
AnchorPoint: "r;bl" 627 10 basechar 0
AnchorPoint: "r;o" 682 200 basechar 0
AnchorPoint: "r;hi" 717 650 basechar 0
AnchorPoint: "r;x" 717 380 basechar 0
AnchorPoint: "l;o" 0 200 basechar 0
AnchorPoint: "l;hi" 40 650 basechar 0
AnchorPoint: "l;x" 0 380 basechar 0
AnchorPoint: "l;bl" 20 10 basechar 0
LayerCount: 3
Fore
SplineSet
368 20 m 0
 415.174325351 20 592 167.021889618 592 400 c 0
 592 551.819717999 509.120068309 643 385 643 c 0
 277.346212953 643 124 490.790742868 124 290 c 0
 124 99.6539388405 248.438045587 20 368 20 c 0
32 305 m 0
 32 485.522722352 189.108117398 678 398 678 c 0
 573.796316673 678 685 545.361026642 685 375 c 0
 685 185.653339276 569.049735291 60.5539509901 439.044559589 13.187724184 c 0
 403.621338391 0.0305277392097 396.066853577 2.17932482249 358.323007785 -16.6925980736 c 1
 329.313282549 -30.697293015 295.363637843 -47.672839171 267.422299469 -62.6414132998 c 0
 257.743288937 -67.8531882016 245.858549098 -73.3421128269 242.533821282 -75.4990151018 c 1
 248.278080182 -77.3616337054 260.035865916 -79.1666372598 271.756477323 -82.0967901115 c 1
 330.785525105 -98.1046674762 528.835998681 -154 625 -154 c 0
 693.072589705 -154 715.311396175 -143 723 -143 c 0
 728.954813977 -143 731 -149.147722074 731 -157 c 0
 731 -163.070644542 621.848117477 -201 560 -201 c 0
 367.578971745 -201 162.051633353 -114 135 -114 c 0
 131.75957617 -114 113.665986702 -116.964704203 99.0838991915 -122.797539208 c 1
 83.0019935321 -128.82825383 63.9150466713 -136 49 -136 c 0
 29.190155168 -136 13 -126.223251329 13 -107 c 0
 13 -71.2302375133 67.949738317 -63 117 -63 c 0
 143.357358225 -63 169.473774832 -68 188 -68 c 0
 197.585909559 -68 205.279216137 -66.0572146611 209.865933057 -64.222527893 c 1
 221.450218984 -59.3957420901 279.75037992 -29.2723785576 317.686901532 -11.3024472676 c 1
 323.578599726 -8.4288518854 l 1
 275.830651693 -2.51442524191 32 23.1239967436 32 305 c 0
EndSplineSet
Position2: "'cpsp' Capital Spacing in Latin lookup 2 subtable" dx=4 dy=0 dh=8 dv=0
EndChar

StartChar: R
Encoding: 82 82 43
Width: 625
VWidth: 0
Flags: HMW
AnchorPoint: "l;o" 10 200 basechar 0
AnchorPoint: "l;hi" 59 650 basechar 0
AnchorPoint: "l;x" 30 380 basechar 0
AnchorPoint: "l;bl" 0 10 basechar 0
AnchorPoint: "cedilla" 303 -100 basechar 0
AnchorPoint: "top" 339 780 basechar 0
AnchorPoint: "r;bl" 615 10 basechar 0
AnchorPoint: "r;x" 595 380 basechar 0
AnchorPoint: "r;hi" 595 650 basechar 0
AnchorPoint: "r;o" 625 200 basechar 0
LayerCount: 3
Fore
SplineSet
243.856175835 636.594562886 m 1
 238.348416447 589.912433383 212.951914753 402.428544775 207.97683363 362.627895796 c 2
 207.963238235 362.519132633 l 1
 207.941742027 362.411651595 l 2
 207.002967231 357.717777615 207 354.006881349 207 350 c 0
 207 340.370441693 212.213399636 339 222 339 c 2
 229 339 l 2
 263.133013412 339 288.391585147 336 299 336 c 0
 362.395959402 336 459 408.010016623 459 498 c 0
 459 591.210982454 403.942241997 640 291 640 c 0
 281.496322836 640 249.499875662 638.515392205 243.856175835 636.594562886 c 1
167 35.9268727447 m 0
 167 30.8335321523 167.731389863 30 172 30 c 2
 225 30 l 2
 236.776112898 30 241 27.0834052636 241 14 c 0
 241 -1.09434643566 238.745404972 -6 227 -6 c 0
 203.7825635 -6 166.829573733 -3 137 -3 c 0
 107.146701587 -3 57.182733449 -6 34 -6 c 0
 20.1895430211 -6 17 -3.67844276232 17 13 c 0
 17 26.358769251 21.4412165408 30 38 30 c 2
 76.4807828545 30 l 1
 101.761739601 174.560859248 150.068376537 520.900735773 159.011840132 621.266271671 c 1
 159.612582324 621.212740189 159.347415672 632.965126301 159.347415672 632.965126301 c 1
 159 633 l 1
 98 633 l 2
 86.0985927607 633 76 633.807067586 76 651 c 0
 76 665.455695213 87.7424564091 668 96 668 c 0
 103.37118264 668 138.007390167 665 203 665 c 0
 233.713855682 665 309.739515612 672 345 672 c 0
 459.999269033 672 550 605.193053937 550 507 c 0
 550 365.620317442 395.757637047 332.644771548 361.124671171 323.707202126 c 1
 372.474225975 319.9652883 393.020813324 313.761465899 420.114172029 302.785430073 c 0
 470.559597182 282.349027198 535 239.57050819 535 136 c 0
 535 119.794281009 532 65.8660750938 532 38 c 0
 532 33.8988173318 532.586210273 30.8278510182 532.842449874 30 c 2
 575 30 l 2
 591.368264776 30 598 26.7378476835 598 12 c 0
 598 3.25774038772 596.015672919 -6 587 -6 c 0
 578.830118246 -6 486.939808789 -3 443 -3 c 0
 432.605371059 -3 434.161600867 6.47958018363 435.03139902 13.4379654019 c 0
 443.041362361 60.4965000322 451 120.260503247 451 170 c 0
 451 232.133886973 396.404476696 287.950688511 318.381968557 304.064350645 c 0
 299.797575552 307.902507569 272.908975678 309 248 309 c 2
 221 309 l 2
 215.013552265 309 198.685115456 309.294150404 195.974026969 287.60544251 c 0
 187.982250928 230.664038213 168.985060163 76.620606095 167 35.9268727447 c 0
EndSplineSet
Position2: "'cpsp' Capital Spacing in Latin lookup 2 subtable" dx=4 dy=0 dh=8 dv=0
EndChar

StartChar: S
Encoding: 83 83 44
Width: 505
VWidth: 0
Flags: HW
AnchorPoint: "r;hi" 505 650 basechar 0
AnchorPoint: "cedilla" 228 -100 basechar 0
AnchorPoint: "top" 315 780 basechar 0
AnchorPoint: "l;bl" 0 10 basechar 0
AnchorPoint: "l;x" 20 380 basechar 0
AnchorPoint: "l;hi" 60 650 basechar 0
AnchorPoint: "l;o" 0 200 basechar 0
AnchorPoint: "r;bl" 485 10 basechar 0
AnchorPoint: "r;x" 505 380 basechar 0
AnchorPoint: "r;o" 505 200 basechar 0
LayerCount: 3
Fore
SplineSet
265 19 m 0
 338.536435038 19 392 69.7438547069 392 139 c 0
 392 287.703898845 86 260.740908976 86 473 c 0
 86 589.698553713 172.530199315 672 294 672 c 0
 358.472530144 672 417.538555736 626.987750515 430.849033354 617.341895817 c 1
 432.795304388 624.29379369 434.806736 636.596260878 437.0895725 645.727606875 c 0
 437.915615338 649.03177823 438.923924928 659.201105284 452.271607238 657.987679619 c 0
 452.348164108 657.980719904 l 1
 452.424264069 657.969848481 l 0
 457.456966916 657.250890931 473 657.954631311 473 648 c 0
 473 638.912323695 451.978748778 533.606824652 441.953919598 480.475229998 c 1
 439.6417547 466.602240609 430.101804226 466 424 466 c 0
 410.785890253 466 405 473.257440126 405 481 c 0
 405 483.571361007 419.632888908 535.75689943 420.002529225 549.815731363 c 1
 417.601755943 558.202815319 365.845374809 635 283 635 c 0
 207.744691227 635 162 582.660513268 162 506 c 0
 162 344.26835775 463 395.333413266 463 175 c 0
 463 50.7433250178 344.040039969 -16 250 -16 c 0
 130.187694934 -16 37 45.0339668734 37 67 c 0
 37 74.0102281081 50.9968454051 152.281285566 54.0582579729 167.588348405 c 0
 54.0722583361 167.658350221 l 1
 54.0895724996 167.727606875 l 0
 55.8876754189 174.920018552 57.6954115726 199.735825657 63.3358994113 203.496150883 c 1
 63.3358994113 203.496150883 69.5299196599 205 70 205 c 0
 77.3456031861 205 96 202.006029957 96 192 c 0
 96 187.159651678 81 104.21753889 81 100 c 0
 81 83.9128901329 180.087398929 19 265 19 c 0
EndSplineSet
Position2: "'cpsp' Capital Spacing in Latin lookup 2 subtable" dx=4 dy=0 dh=8 dv=0
EndChar

StartChar: T
Encoding: 84 84 45
Width: 681
VWidth: 0
Flags: HW
AnchorPoint: "r;k;hi2" 681 710 basechar 0
AnchorPoint: "cedilla" 259 -100 basechar 0
AnchorPoint: "l;bl" 40 10 basechar 0
AnchorPoint: "l;x" 40 380 basechar 0
AnchorPoint: "l;hi" 0 650 basechar 0
AnchorPoint: "l;o" 40 200 basechar 0
AnchorPoint: "r;bl" 521 10 basechar 0
AnchorPoint: "r;x" 581 380 basechar 0
AnchorPoint: "r;hi" 681 650 basechar 0
AnchorPoint: "r;o" 561 200 basechar 0
LayerCount: 3
Fore
SplineSet
655 544.924099248 m 0
 655 534.438285251 646.781051348 532 633 532 c 0
 618.985564073 532 619 539.291861705 619 549 c 0
 619 554.268551507 624.491303032 616.222697457 624.972344118 626.054787227 c 1
 616.111358904 629.699554794 571.193539392 630 521 630 c 0
 415 630 l 0
 408.906741969 630 407.071843654 624.124630264 404.960308708 612.511188061 c 1
 390.092049373 512.398241875 324.932083532 49.9144769903 323.99075222 40.7948835508 c 1
 324.215355467 30.8705540322 325.865706928 30 329 30 c 0
 393 30 l 0
 405.189772879 30 407 26.3318988665 407 14 c 0
 407 -1.09434643566 404.745404972 -6 393 -6 c 0
 369.842193807 -6 302.885016697 -3 273 -3 c 0
 243.120139355 -3 178.174996612 -6 162 -6 c 0
 147.794460233 -6 145 -2.42613207383 145 15 c 0
 145 28.7107827894 150.077861804 30 166 30 c 0
 218.866949474 30 l 1
 233.940025117 58.2920606743 295.626433857 492.44944463 311.027394281 596.405927492 c 1
 312.031042505 604.435113286 314 615.509788323 314 622 c 0
 314 629.345418378 313.132541021 630 311 630 c 0
 174 630 l 0
 120.489457025 630 83.7434103984 627.371061486 81.8567356214 621.082145562 c 1
 57.8198958959 550.974696363 l 1
 52.9467920106 538.304626261 50.8041362266 532 39 532 c 0
 29.3188658271 532 17 533.956487788 17 546 c 0
 17 550.213170974 38.0324640122 600.554353253 60.1419938124 672.912814418 c 1
 64.459468708 685.865239105 69.4635449618 689 85 689 c 0
 95.3406821465 689 98 680.477098986 98 674 c 0
 98 669.937355023 l 1
 106.710996835 665.915407539 153.963440275 664 201 664 c 0
 527 664 l 0
 587.186546212 664 627.47533899 666.903016763 628.014888429 672.298511157 c 0
 629.135176804 683.501394906 635.58530627 689 645 689 c 0
 659.188531154 689 664 686.663359745 664 675 c 0
 664 655.534084965 658.997965484 623.88391756 655 544.924099248 c 0
EndSplineSet
Position2: "'cpsp' Capital Spacing in Latin lookup 2 subtable" dx=4 dy=0 dh=8 dv=0
EndChar

StartChar: U
Encoding: 85 85 46
Width: 759
VWidth: 0
Flags: HW
AnchorPoint: "top" 427 780 basechar 0
AnchorPoint: "l;bl" 0 10 basechar 0
AnchorPoint: "l;x" 0 380 basechar 0
AnchorPoint: "l;hi" 40 650 basechar 0
AnchorPoint: "l;o" 0 200 basechar 0
AnchorPoint: "r;bl" 649 10 basechar 0
AnchorPoint: "r;x" 729 380 basechar 0
AnchorPoint: "r;hi" 759 650 basechar 0
AnchorPoint: "r;o" 699 200 basechar 0
LayerCount: 3
Fore
SplineSet
524 76 m 0
 521.186620151 76 503.588669473 65.451897142 480.458623667 52.3783929909 c 1
 438.248084911 29.2630979577 355.879282176 -10 268 -10 c 0
 162.053404574 -10 73 48.8087284413 73 151 c 0
 73 237.649751179 139 569.79591182 139 629 c 0
 139 630.618923816 138.986508811 631 138.986508811 631 c 1
 78 631 l 0
 65.9682283995 631 57 632.004669151 57 649 c 0
 57 665.841693242 64.9099581975 667 78 667 c 0
 94.2311453349 667 140.138230575 664 170 664 c 0
 199.847685692 664 246.811353709 667 270 667 c 0
 284.205539767 667 287 663.426132074 287 646 c 0
 287 632.289217211 281.922138196 631 266 631 c 0
 235.295343388 631 l 1
 222.4596728 604.881635221 162 246.233754003 162 176 c 0
 162 47.074975427 296.682487912 43 322 43 c 0
 382.107765783 43 451.849510915 71.8288229562 485.352995533 93.5075482976 c 1
 499.623334196 103.021107406 515.277418007 122.43344855 523.095256581 151.750343202 c 1
 533.03734884 191.518712235 544.054922177 251.57426617 555.042117741 314.500931673 c 0
 575.771672344 436.904015996 594.714690923 545.448156607 602.710701598 631 c 1
 539 631 l 0
 527.220733973 631 516 631.626237657 516 649 c 0
 516 666.242348107 526.167264336 667 539 667 c 0
 555.197018246 667 613.12282158 664 643 664 c 0
 672.877504428 664 714.703275508 667 725 667 c 0
 739.205539767 667 742 663.426132074 742 646 c 0
 742 632.289217211 736.922138196 631 721 631 c 0
 691.435960531 631 l 1
 683.46587519 592.807997625 676.839508982 554.822388039 669.957896079 515.498885735 c 1
 640.964379577 338.538457428 608.966633298 140.452953167 574.885919613 25.1799509974 c 1
 568.833940095 2.98935943132 561.798041662 -2 553 -2 c 0
 548 -2 l 0
 538.245998606 -2 535.104547039 4.05496729294 534.024606531 11.6145508487 c 1
 528.728577942 57.1603967113 528.698991639 76 524 76 c 0
EndSplineSet
Position2: "'cpsp' Capital Spacing in Latin lookup 2 subtable" dx=4 dy=0 dh=8 dv=0
EndChar

StartChar: V
Encoding: 86 86 47
Width: 666
VWidth: 0
Flags: HW
AnchorPoint: "l;bl" 0 10 basechar 0
AnchorPoint: "l;x" 0 380 basechar 0
AnchorPoint: "l;hi" 0 650 basechar 0
AnchorPoint: "l;o" 0 200 basechar 0
AnchorPoint: "r;bl" 486 10 basechar 0
AnchorPoint: "r;x" 586 380 basechar 0
AnchorPoint: "r;hi" 666 650 basechar 0
AnchorPoint: "r;o" 546 200 basechar 0
LayerCount: 3
Fore
SplineSet
605.546509552 625.411437415 m 2
 291.582451402 86.4731337751 l 1
 282.134482671 70.7265192243 263.408968832 54.2014010757 237.505825559 14.3504114259 c 1
 231.638636629 5.54962802998 213.611604231 -20 198 -20 c 0
 183.598642853 -20 181.815877179 -6.83324696893 175.027384787 43.59555366 c 0
 153.863408679 197.5153799 89.280019935 602.691838239 76.6250489278 631 c 1
 38 631 l 0
 25.9682283995 631 17 632.004669151 17 649 c 0
 17 665.841693242 24.9099581975 667 38 667 c 0
 54.2311453349 667 100.138230575 664 130 664 c 0
 159.856049665 664 211.822050375 667 235 667 c 0
 249.205539767 667 252 663.426132074 252 646 c 0
 252 632.289217211 246.922138196 631 231 631 c 0
 176.377049467 631 l 1
 175.606790935 630.528783016 175 629.658135905 175 629 c 0
 175 599.781202567 240.394511742 137.045526571 253.075037453 86.6542597291 c 1
 271.690909615 112.330847258 356.552632496 259.165210888 427.343199076 394.393344484 c 0
 545.329708449 619.367620831 l 1
 547.739235508 624.186674948 548.689753489 627.413391396 548.770737279 628.994634226 c 0
 548.864061653 630.816832159 548.470898498 631 542 631 c 0
 475 631 l 0
 462.968228399 631 454 632.004669151 454 649 c 0
 454 665.612665556 460.768707792 667 474 667 c 0
 486.329207056 667 519.058412543 664 573 664 c 0
 587.753671472 664 620.67931807 667 631 667 c 0
 645.0425398 667 649 663.715302374 649 646 c 0
 649 632.030138271 642.7790896 631 627 631 c 0
 605.805592696 631 609.212492156 630.910411321 605.546509552 625.411437415 c 2
EndSplineSet
Position2: "'cpsp' Capital Spacing in Latin lookup 2 subtable" dx=4 dy=0 dh=8 dv=0
EndChar

StartChar: W
Encoding: 87 87 48
Width: 1010
VWidth: 0
Flags: HW
AnchorPoint: "r;o" 890 200 basechar 0
AnchorPoint: "r;hi" 1010 650 basechar 0
AnchorPoint: "r;x" 930 380 basechar 0
AnchorPoint: "r;bl" 830 10 basechar 0
AnchorPoint: "l;o" 0 200 basechar 0
AnchorPoint: "l;hi" 0 650 basechar 0
AnchorPoint: "l;x" 0 380 basechar 0
AnchorPoint: "l;bl" 0 10 basechar 0
AnchorPoint: "top" 532 780 basechar 0
LayerCount: 3
Fore
SplineSet
171.027384787 43.59555366 m 0
 149.904673836 197.215269663 87.518265275 601.270818934 76.3957381003 631 c 1
 38 631 l 0
 25.9682283995 631 17 632.004669151 17 649 c 0
 17 665.841693242 24.9099581975 667 38 667 c 0
 54.2311453349 667 100.138230575 664 130 664 c 0
 159.846258566 664 205.808540836 667 229 667 c 0
 243.205539767 667 246 663.426132074 246 646 c 0
 246 632.289217211 240.922138196 631 225 631 c 0
 172.377049467 631 l 1
 171.606790935 630.528783016 171 629.658135905 171 629 c 0
 171 599.765082391 232.795521735 139.966159169 245.094888977 89.7003661517 c 1
 270.257321444 125.219988351 409.833145639 378.874403117 468.348636251 489.403663161 c 1
 468.525393834 489.310085617 451.680656095 622.676727015 448.595269676 631 c 1
 407 631 l 0
 394.968228399 631 386 632.004669151 386 649 c 0
 386 665.841693242 393.909958197 667 407 667 c 0
 423.171752761 667 462.099238622 665 492 665 c 0
 520.895922182 665 577.923171336 667 619 667 c 0
 633.0425398 667 637 663.715302374 637 646 c 0
 637 632.030138271 630.7790896 631 615 631 c 0
 543.238955977 631 l 1
 542.380116429 627.924693773 542 622.845926635 542 615 c 0
 542 604.512085566 597.183311447 132.341389571 608.322620926 77.8999950322 c 1
 641.196959165 125.542431325 858.066217142 561.784202774 887.316718427 619.341640786 c 0
 889.754003174 624.216210281 890.68904622 627.39958167 890.770737279 628.994634226 c 0
 890.864061653 630.816832159 890.470898498 631 884 631 c 0
 820 631 l 0
 807.968228399 631 799 632.004669151 799 649 c 0
 799 665.612665556 805.768707792 667 819 667 c 0
 831.346934177 667 861.058100705 664 915 664 c 0
 929.757804432 664 964.698441897 667 975 667 c 0
 989.0425398 667 993 663.715302374 993 646 c 0
 993 632.030138271 986.7790896 631 971 631 c 0
 939.204853126 631 946.705868969 632.700448236 935.665861971 611.624071241 c 0
 871.670651814 487.633351562 808.669781702 362.627850706 741.612935403 242.526036439 c 0
 653.630364861 86.5569341138 l 1
 645.171591047 70.6967332132 625.372943948 54.1459781783 599.505825559 14.3504114259 c 1
 593.638636629 5.54962802998 575.611604231 -20 560 -20 c 0
 545.598980588 -20 543.813523362 -6.81502632814 537.030151519 43.5757359313 c 0
 525.318588341 125.556678179 498.052632089 298.987592747 476.447991547 429.050409763 c 1
 285.63410319 86.5639434815 l 1
 277.166602607 70.6873798875 257.37582282 54.1504072112 231.505825559 14.3504114259 c 1
 225.775211376 5.75449015106 209.693403986 -20 194 -20 c 0
 179.598642853 -20 177.815877179 -6.83324696893 171.027384787 43.59555366 c 0
EndSplineSet
Position2: "'cpsp' Capital Spacing in Latin lookup 2 subtable" dx=4 dy=0 dh=8 dv=0
EndChar

StartChar: X
Encoding: 88 88 49
Width: 661
VWidth: 0
Flags: HW
AnchorPoint: "l;bl" 0 10 basechar 0
AnchorPoint: "l;x" 40 380 basechar 0
AnchorPoint: "l;hi" 75 650 basechar 0
AnchorPoint: "l;o" 20 200 basechar 0
AnchorPoint: "r;bl" 646 10 basechar 0
AnchorPoint: "r;x" 646 380 basechar 0
AnchorPoint: "r;hi" 661 650 basechar 0
AnchorPoint: "r;o" 646 200 basechar 0
LayerCount: 3
Fore
SplineSet
302.291787556 344.708883097 m 2
 177.316718427 598.658359214 l 2
 166.970847832 619.350100404 159.628400158 630.128182544 157.867328897 631 c 2
 115 631 l 2
 102.968228399 631 94 632.004669151 94 649 c 0
 94 665.841693242 101.909958197 667 115 667 c 0
 131.221518434 667 180.134065778 664 210 664 c 0
 239.851794572 664 288.8148988 667 312 667 c 0
 326.205539767 667 329 663.426132074 329 646 c 0
 329 632.289217211 323.922138196 631 308 631 c 2
 267 631 l 2
 262.433350612 631 259.322056031 630.846190373 258.360285426 630.670274456 c 0
 258.67564809 628.804959014 259.996885315 625.496177037 261.85499894 619.92183616 c 0
 266.720223429 604.353117797 305.791091955 513.166605897 346.708581556 427.289800741 c 0
 354.543997348 410.844987489 361.836019012 395.236686839 364.354772755 391.109752576 c 1
 368.891798573 396.064835438 378.280418443 409.101292078 391.561028542 427.746830909 c 0
 444.415271288 501.952445581 531 619.852434969 531 630 c 2
 530.934630389 631 l 1
 485 631 l 2
 469.077861804 631 464 632.289217211 464 646 c 0
 464 663.426132074 466.794460233 667 481 667 c 0
 504.318449715 667 519.240402721 664 549 664 c 0
 578.825752003 664 608.71180201 667 625 667 c 0
 638.381374265 667 644 665.361589216 644 649 c 0
 644 632.458317142 637.319123854 631 625 631 c 2
 596.692581609 631 l 1
 578.825051222 616.91903597 384.409007723 365.211215652 384.409007723 365.211215652 c 2
 379.558033947 358.419852365 378.991737413 359.873608819 383.543994912 352.58999682 c 2
 383.585860388 352.523012059 l 1
 383.624142807 352.453916961 l 2
 423.600648207 280.301199897 546.138721196 41.8847227998 561.497432465 30 c 1
 608 30 l 2
 620.031771601 30 629 28.9953308493 629 12 c 0
 629 -4.84169324196 621.090041803 -6 608 -6 c 0
 591.791989911 -6 537.87353948 -3 508 -3 c 0
 478.133993394 -3 415.150445391 -6 392 -6 c 0
 377.794460233 -6 375 -2.42613207383 375 15 c 0
 375 28.7107827894 380.077861804 30 396 30 c 2
 443 30 l 2
 448.798379496 30 452.045535212 30.4706742535 452.749697948 30.7664586741 c 0
 452.73659435 32.1874711401 451.57131144 35.3363483582 449.235093875 40.8358289998 c 0
 425.152757644 97.5259009641 357.288476294 232.716386984 324.301210201 302.689375665 c 0
 323.345996358 304.599803352 322.344968926 306.115342274 322.073759578 306.468994715 c 1
 320.658081065 305.238267271 318.192198163 301.830685398 314.340641936 297.123227788 c 0
 281.093080048 254.808149021 129.773651995 49.3724116682 128.998069435 30.9872289876 c 1
 130.548820111 30.3279812923 133.34928981 30 139 30 c 2
 180 30 l 2
 195.922138196 30 201 28.7107827894 201 15 c 0
 201 -2.42613207383 198.205539767 -6 184 -6 c 0
 171.726792009 -6 128.870917094 -3 99 -3 c 0
 69.1539714215 -3 47.4302442604 -6 36 -6 c 0
 22.6186257353 -6 17 -4.36158921597 17 12 c 0
 17 28.5416828575 23.680876146 30 36 30 c 2
 61.7709616538 30 l 1
 76.031400628 36.4828843468 192.262141861 198.028978451 298.695336161 326.920553199 c 0
 308.902543805 339.2815753 308.225360099 331.852809253 302.291787556 344.708883097 c 2
EndSplineSet
Position2: "'cpsp' Capital Spacing in Latin lookup 2 subtable" dx=4 dy=0 dh=8 dv=0
EndChar

StartChar: Y
Encoding: 89 89 50
Width: 613
VWidth: 0
Flags: HW
AnchorPoint: "top" 341 780 basechar 0
AnchorPoint: "l;bl" 40 10 basechar 0
AnchorPoint: "l;x" 20 380 basechar 0
AnchorPoint: "l;hi" 0 650 basechar 0
AnchorPoint: "l;o" 30 200 basechar 0
AnchorPoint: "r;bl" 433 10 basechar 0
AnchorPoint: "r;x" 513 380 basechar 0
AnchorPoint: "r;hi" 613 650 basechar 0
AnchorPoint: "r;o" 473 200 basechar 0
LayerCount: 3
Fore
SplineSet
320.559425405 330.432301148 m 0
 316.721697523 323.716277354 314.918077128 318.30203039 312.945129317 309.423765242 c 0
 292.099213072 186.333593128 269.235174247 44.8764476606 269.008058232 40.1505080344 c 1
 268.887363627 28.9983265101 268.637494894 30 271 30 c 0
 334 30 l 0
 346.189772879 30 348 26.3318988665 348 14 c 0
 348 -1.09434643566 345.745404972 -6 334 -6 c 0
 310.821182072 -6 258.856876846 -3 229 -3 c 0
 199.162268645 -3 158.205472266 -6 135 -6 c 0
 120.561018598 -6 118 -0.487641847479 118 13 c 0
 118 26.358769251 122.441216541 30 139 30 c 0
 180.511589513 30 l 1
 185.461403059 36.0715865021 193.842067264 88.9506413349 223.046189684 260.524860553 c 1
 228.01093809 287.334501946 227.997541228 296.45319954 227.99998447 300.727406763 c 1
 223.842891163 315.33417982 93.5444718256 612.107397491 83.041797779 636 c 1
 38 636 l 0
 25.9682283995 636 17 637.004669151 17 654 c 0
 17 670.841693242 24.9099581975 672 38 672 c 0
 54.2043800954 672 109.126594888 669 139 669 c 0
 168.825110973 669 203.776102815 672 227 672 c 0
 241.205539767 672 244 668.426132074 244 651 c 0
 244 637.289217211 238.922138196 636 223 636 c 0
 192 636 l 0
 187.649252831 636 184.489356977 635.837130878 183.790637244 635.719567266 c 1
 184.223872213 633.43854951 185.440805476 630.240110487 186.88610999 624.820218561 c 1
 202.747935693 572.27792092 261.7594495 429.178294815 289.735735399 360.236733135 c 0
 293.060152582 353.587898768 294.809517861 350.204283803 295.026445831 350.00209851 c 1
 296.699068547 350.255760308 302.512190964 356.684603501 308.461734968 366.600510175 c 1
 355.58563233 437.787674274 479 614.654383638 479 636 c 0
 429 636 l 0
 413.077861804 636 408 637.289217211 408 651 c 0
 408 668.426132074 410.794460233 672 425 672 c 0
 448.263272567 672 473.20155975 669 503 669 c 0
 532.823690483 669 560.696632049 672 577 672 c 0
 590.381374265 672 596 670.361589216 596 654 c 0
 596 637.458317142 589.319123854 636 577 636 c 0
 541.946288278 636 l 1
 526.983317601 621.405931138 375.26805156 413.934941069 320.559425405 330.432301148 c 0
EndSplineSet
Position2: "'cpsp' Capital Spacing in Latin lookup 2 subtable" dx=4 dy=0 dh=8 dv=0
EndChar

StartChar: Z
Encoding: 90 90 51
Width: 599
VWidth: 0
Flags: HW
AnchorPoint: "top" 354 780 basechar 0
AnchorPoint: "l;bl" 0 10 basechar 0
AnchorPoint: "l;x" 35 380 basechar 0
AnchorPoint: "l;hi" 50 650 basechar 0
AnchorPoint: "l;o" 20 200 basechar 0
AnchorPoint: "r;bl" 569 10 basechar 0
AnchorPoint: "r;x" 584 380 basechar 0
AnchorPoint: "r;hi" 599 650 basechar 0
AnchorPoint: "r;o" 569 200 basechar 0
LayerCount: 3
Fore
SplineSet
114 680.152150006 m 0
 114 686.433010308 121.35738785 689 133 689 c 0
 138.808796263 689 150 688.956178443 150 681 c 0
 150 672 l 0
 150 667.99025414 155.380552491 664 204 664 c 0
 552 664 l 0
 564.585531367 664 572 660.701843374 572 646 c 0
 572 638.962529607 482.515594784 510.362887411 384.463693426 369.288213009 c 0
 279.141118607 217.70245112 164.295259742 54.3227078481 161.001708692 41.8791230278 c 1
 161.238351083 39.5019426454 163.46079538 34.9998539321 168.970396178 34.9998539321 c 0
 472.985197729 38 l 2
 480.305939249 38 486.6862363 39.3412473461 491.18695859 51.0431252993 c 1
 496.059640137 64.6866336329 503.099787913 90.7771056448 514.065151734 139.622817212 c 1
 515.500622917 146.800173124 523.484543459 150 531 150 c 0
 546.516039084 150 554 144.279816258 554 135 c 0
 554 128.439265468 527.952081155 37.4492719799 520.925123998 7.33374130529 c 1
 518.374021396 -4.1462204019 505.884165063 -6 496 -6 c 0
 383.964153871 -6 146.961997214 -3 43 -3 c 0
 34.1317254416 -3 32 1.08213724219 32 15 c 0
 32 29.6830284528 436.479298191 586.90640658 461.233501901 625.448797901 c 1
 458.163658163 625.973524293 452.001524215 626 441 626 c 0
 185 626 l 0
 161.59435448 626 145.215773443 624.781808672 143.936839464 618.38713878 c 1
 138.944733168 595.423449818 131.002591703 547.641049935 129.9104275 543.272393125 c 0
 128.024906036 535.730307268 127.07615805 531.304645077 119.493196962 530.040818229 c 0
 119.248287591 530 l 1
 114 530 l 0
 106.255575481 530 90 530.773626923 90 540 c 0
 90 548.275716422 108.003066322 621.182302169 114 680.152150006 c 0
EndSplineSet
Position2: "'cpsp' Capital Spacing in Latin lookup 2 subtable" dx=4 dy=0 dh=8 dv=0
EndChar

StartChar: zero
Encoding: 48 48 52
Width: 500
VWidth: 0
Flags: HW
AnchorPoint: "l;bl" 0 10 basechar 0
AnchorPoint: "l;x" 0 380 basechar 0
AnchorPoint: "l;hi" 0 650 basechar 0
AnchorPoint: "l;o" 0 200 basechar 0
AnchorPoint: "l;lo" 0 -260 basechar 0
AnchorPoint: "r;bl" 500 10 basechar 0
AnchorPoint: "r;x" 500 380 basechar 0
AnchorPoint: "r;hi" 500 650 basechar 0
AnchorPoint: "r;o" 500 200 basechar 0
AnchorPoint: "r;lo" 500 -260 basechar 0
LayerCount: 3
Fore
SplineSet
59 164 m 0
 59 280.606752305 146.377196395 369 264 369 c 0
 373.602263635 369 442 291.579553875 442 198 c 0
 442 83.3935129136 351.695919473 -8 240 -8 c 0
 139.643642349 -8 59 58.1880957468 59 164 c 0
388.078125 207.001953125 m 0
 388.078125 286.37347397 333.657221437 333 264 333 c 0
 179.245318145 333 110 237.758095262 110 156 c 0
 110 72.5670984767 161.472176385 30 231 30 c 0
 308.181611135 30 388.078125 101.809389505 388.078125 207.001953125 c 0
EndSplineSet
AlternateSubs2: "'aalt' Access All Alternates lookup 0 subtable" zero.p zero.u zero.sub zero.sup zero.denom zero.numer
AlternateSubs2: "'aalt' Access All Alternates in Latin lookup 0 subtable" zero.p zero.u zero.sub zero.sup zero.denom zero.numer
Substitution2: "'pnum' Proportional Numbers in Latin lookup 10 subtable" zero.p
Substitution2: "lining_figures subtable" zero.u
Substitution2: "'subs' Subscript in Latin lookup 8 subtable" zero.sub
Substitution2: "'sups' Superscript in Latin lookup 7 subtable" zero.sup
Substitution2: "denominators subtable" zero.denom
Substitution2: "numerators subtable" zero.numer
EndChar

StartChar: one
Encoding: 49 49 53
Width: 500
VWidth: 0
Flags: HW
AnchorPoint: "l;bl" 0 10 basechar 0
AnchorPoint: "l;x" 0 380 basechar 0
AnchorPoint: "l;hi" 0 650 basechar 0
AnchorPoint: "l;o" 0 200 basechar 0
AnchorPoint: "l;lo" 0 -260 basechar 0
AnchorPoint: "r;bl" 500 10 basechar 0
AnchorPoint: "r;x" 500 380 basechar 0
AnchorPoint: "r;hi" 500 650 basechar 0
AnchorPoint: "r;o" 500 200 basechar 0
AnchorPoint: "r;lo" 500 -260 basechar 0
LayerCount: 3
Fore
SplineSet
314.955467501 345.480278965 m 0
 302.959469102 266.506622835 283.962484208 140.520294763 269.977815676 36.6341856669 c 1
 269.156538906 29.2426947425 270.073107996 28 279 28 c 0
 330 28 l 0
 341.849409717 28 344 21.3633236434 344 12 c 0
 344 3.09498112248 343.172330471 -5 330 -5 c 0
 310.872253587 -5 258.896682644 -3 234 -3 c 0
 209.107158299 -3 160.132574031 -5 141 -5 c 0
 128.236417146 -5 127 0.939196673081 127 12 c 0
 127 21.7624947763 129.623405407 28 144 28 c 0
 184 28 l 0
 193.447548585 28 189.912795795 26.8607970209 192.055005124 37.5718436653 c 0
 211.8089395 139.304605702 241.907198499 342.011555868 241.960232838 344.291656029 c 0
 242.202946584 358.257031593 244.495416789 355 237 355 c 0
 184 355 l 0
 172.150590283 355 170 361.636676357 170 371 c 0
 170 379.905018878 170.827669529 388 184 388 c 0
 203.132818412 388 252.106926732 386 277 386 c 0
 301.889081688 386 347.861774607 388 367 388 c 0
 379.763582854 388 381 382.060803327 381 371 c 0
 381 361.237505224 378.376594593 355 364 355 c 0
 325 355 l 0
 315.197886238 355 316.930945065 355.357666783 314.955467501 345.480278965 c 0
EndSplineSet
AlternateSubs2: "'aalt' Access All Alternates lookup 0 subtable" one.p one.u one.sub one.sup one.denom one.numer
AlternateSubs2: "'aalt' Access All Alternates in Latin lookup 0 subtable" one.p one.u one.sub one.sup one.denom one.numer
Substitution2: "'pnum' Proportional Numbers in Latin lookup 10 subtable" one.p
Substitution2: "lining_figures subtable" one.u
Substitution2: "'subs' Subscript in Latin lookup 8 subtable" one.sub
Substitution2: "'sups' Superscript in Latin lookup 7 subtable" one.sup
Substitution2: "denominators subtable" one.denom
Substitution2: "numerators subtable" one.numer
EndChar

StartChar: two
Encoding: 50 50 54
Width: 500
VWidth: 0
Flags: HW
AnchorPoint: "l;bl" 0 10 basechar 0
AnchorPoint: "l;x" 0 380 basechar 0
AnchorPoint: "l;hi" 0 650 basechar 0
AnchorPoint: "l;o" 0 200 basechar 0
AnchorPoint: "l;lo" 0 -260 basechar 0
AnchorPoint: "r;bl" 500 10 basechar 0
AnchorPoint: "r;x" 500 380 basechar 0
AnchorPoint: "r;hi" 500 650 basechar 0
AnchorPoint: "r;o" 500 200 basechar 0
AnchorPoint: "r;lo" 500 -260 basechar 0
LayerCount: 3
Fore
SplineSet
64.0366322754 30.2711803628 m 0
 94.5955291043 58.7928174031 165.296814102 97.5005075071 220.006908484 146.242227956 c 0
 255.917111605 178.162408508 292 219.562780013 292 266 c 0
 292 315.848507436 263.033751843 356 211 356 c 0
 146.414855518 356 99.7217793862 275 90 275 c 0
 82.4689387832 275 69 284.524420646 69 294 c 0
 69 307.162902435 150.83217022 397 239 397 c 0
 323.312432457 397 367 352.610112303 367 280 c 0
 367 192.335983352 228.067705638 111.149735959 168.503108812 76.4037211436 c 0
 156.695213133 69.5675710137 148.66022363 64.0928860278 144.762339869 61 c 1
 394 61 l 0
 400.511579924 61 420.304384342 109 429 109 c 0
 433.716493668 109 450 105.186506958 450 98 c 0
 450 88.6145186251 422.720441189 43.7274175666 406.785430073 4.88582797094 c 0
 404.352578007 -1.19630219432 400.38383198 -3 393 -3 c 0
 69 -3 l 0
 56.9568394385 -3 51 3.13021160468 51 11 c 0
 51 18.997843653 59.0123562401 26.2517595345 64.0366322754 30.2711803628 c 0
EndSplineSet
AlternateSubs2: "'aalt' Access All Alternates lookup 0 subtable" two.p two.u two.sub two.sup two.denom two.numer
AlternateSubs2: "'aalt' Access All Alternates in Latin lookup 0 subtable" two.p two.u two.sub two.sup two.denom two.numer
Substitution2: "'pnum' Proportional Numbers in Latin lookup 10 subtable" two.p
Substitution2: "lining_figures subtable" two.u
Substitution2: "'subs' Subscript in Latin lookup 8 subtable" two.sub
Substitution2: "'sups' Superscript in Latin lookup 7 subtable" two.sup
Substitution2: "denominators subtable" two.denom
Substitution2: "numerators subtable" two.numer
EndChar

StartChar: three
Encoding: 51 51 55
Width: 500
VWidth: 0
Flags: HW
AnchorPoint: "l;bl" 0 10 basechar 0
AnchorPoint: "l;x" 0 380 basechar 0
AnchorPoint: "l;hi" 0 650 basechar 0
AnchorPoint: "l;o" 0 200 basechar 0
AnchorPoint: "l;lo" 0 -260 basechar 0
AnchorPoint: "r;bl" 500 10 basechar 0
AnchorPoint: "r;x" 500 380 basechar 0
AnchorPoint: "r;hi" 500 650 basechar 0
AnchorPoint: "r;o" 500 200 basechar 0
AnchorPoint: "r;lo" 500 -260 basechar 0
LayerCount: 3
Fore
SplineSet
263 390 m 0
 335.033459044 390 388 352.976590409 388 281 c 0
 388 192.884861757 289.33604865 142.987238604 268.264816927 130.759100449 c 1
 296.537154388 124.317679191 418 106.815668374 418 -21 c 0
 418 -130.142791635 305.277547432 -217 195 -217 c 0
 96.4040202658 -217 53 -164.964634098 53 -146 c 0
 53 -130.665010527 82.6045734768 -131 91 -131 c 0
 101.064070432 -131 117.142339279 -131.784724516 127.260548332 -143.02717902 c 1
 138.267425303 -156.035306349 165.555279972 -186 205 -186 c 0
 276.068396895 -186 346 -111.425292901 346 -35 c 0
 346 40.8147839255 291.30146758 73 208 73 c 0
 187.15436789 73 158.471934543 70 153 70 c 0
 141.965968021 70 133 72.5056231662 133 84 c 0
 133 101.221862254 138.166757327 102.882684405 154.14419958 107.875635109 c 1
 252.949154597 135.820470871 324 184.090954839 324 272 c 0
 324 321.610093956 293.272628331 356 244 356 c 0
 178.531826841 356 142.150458374 321 133 321 c 0
 124.760299013 321 119 334.400339217 119 341 c 0
 119 352.533522731 198.625345486 390 263 390 c 0
EndSplineSet
AlternateSubs2: "'aalt' Access All Alternates lookup 0 subtable" three.p three.u three.sub three.sup three.denom three.numer
AlternateSubs2: "'aalt' Access All Alternates in Latin lookup 0 subtable" three.p three.u three.sub three.sup three.denom three.numer
Substitution2: "'pnum' Proportional Numbers in Latin lookup 10 subtable" three.p
Substitution2: "lining_figures subtable" three.u
Substitution2: "'subs' Subscript in Latin lookup 8 subtable" three.sub
Substitution2: "'sups' Superscript in Latin lookup 7 subtable" three.sup
Substitution2: "denominators subtable" three.denom
Substitution2: "numerators subtable" three.numer
EndChar

StartChar: four
Encoding: 52 52 56
Width: 500
VWidth: 0
Flags: HW
AnchorPoint: "l;bl" 0 10 basechar 0
AnchorPoint: "l;x" 0 380 basechar 0
AnchorPoint: "l;hi" 0 650 basechar 0
AnchorPoint: "l;o" 0 200 basechar 0
AnchorPoint: "l;lo" 0 -260 basechar 0
AnchorPoint: "r;bl" 500 10 basechar 0
AnchorPoint: "r;x" 500 380 basechar 0
AnchorPoint: "r;hi" 500 650 basechar 0
AnchorPoint: "r;o" 500 200 basechar 0
AnchorPoint: "r;lo" 500 -260 basechar 0
LayerCount: 3
Fore
SplineSet
402.960776928 367.516203151 m 2
 352.959181771 71.5068030381 l 0
 350.207335262 54.9957239841 351.522479829 57 365 57 c 0
 448 57 l 0
 455.117638109 57 458 54.5005578809 458 44 c 0
 458 10 l 0
 458 -0.944320533481 455.392538967 -3 443 -3 c 0
 346 -3 l 0
 339.388083069 -3 337.249788391 -3.55625284467 337.249788391 -3.55625284467 c 1
 336.990227026 -3.95900768564 336.779420566 -7.26325671288 335.981060173 -14.3365713098 c 0
 329.035167091 -75.8573386084 313.096740925 -189.621494564 313.01764781 -192.384761138 c 1
 312.844199856 -203.23103987 308.891814899 -204.091287035 295.595039611 -206.940596026 c 1
 253.527336822 -214.953491795 l 1
 245.561071335 -216.281202709 232.312959125 -210.241252194 236.052127695 -190.443179676 c 0
 270.055108446 -10.427399227 l 1
 272.388304422 1.2385806493 269.885189729 -3 253 -3 c 0
 64 -3 l 0
 57.0050279023 -3 43 -2.69879812643 43 8 c 0
 43 25.0330934517 64.7126812811 57.8546426725 87.2900135271 87.8059401926 c 0
 97.4611262747 101.29766039 111.614001155 113.948910051 121.705264546 125.932405029 c 0
 174.434444009 188.54842793 227.66469626 240.679554784 284.797294695 300.037554499 c 1
 292.577843741 308.790672176 373.80932434 395 390 395 c 0
 400.530880064 395 406.023133757 386.911129731 402.960776928 367.516203151 c 2
318.155190287 292.9125496 m 2
 121.155190287 82.9125496003 l 1
 111.059087976 72.8164472885 105 64.1093288651 105 60 c 0
 105 59.9379139959 106.666840217 57 127 57 c 0
 274 57 l 0
 290.741684658 57 286.999382042 56.2443944335 290.03862504 74.479852424 c 0
 325.043234808 290.508301275 l 1
 325.71997494 294.230372001 325.037369023 295.854463978 324.747868761 296.198869463 c 0
 324.695461807 296.261215667 322.631653998 297.389013311 318.155190287 292.9125496 c 2
EndSplineSet
AlternateSubs2: "'aalt' Access All Alternates lookup 0 subtable" four.p four.u four.sub four.sup four.denom four.numer
AlternateSubs2: "'aalt' Access All Alternates in Latin lookup 0 subtable" four.p four.u four.sub four.sup four.denom four.numer
Substitution2: "'pnum' Proportional Numbers in Latin lookup 10 subtable" four.p
Substitution2: "lining_figures subtable" four.u
Substitution2: "'subs' Subscript in Latin lookup 8 subtable" four.sub
Substitution2: "'sups' Superscript in Latin lookup 7 subtable" four.sup
Substitution2: "denominators subtable" four.denom
Substitution2: "numerators subtable" four.numer
EndChar

StartChar: five
Encoding: 53 53 57
Width: 500
VWidth: 0
Flags: HMW
AnchorPoint: "l;bl" 0 10 basechar 0
AnchorPoint: "l;x" 0 380 basechar 0
AnchorPoint: "l;hi" 0 650 basechar 0
AnchorPoint: "l;o" 0 200 basechar 0
AnchorPoint: "l;lo" 0 -260 basechar 0
AnchorPoint: "r;bl" 500 10 basechar 0
AnchorPoint: "r;x" 500 380 basechar 0
AnchorPoint: "r;hi" 500 650 basechar 0
AnchorPoint: "r;o" 500 200 basechar 0
AnchorPoint: "r;lo" 500 -260 basechar 0
LayerCount: 3
Fore
SplineSet
64.8836703248 -186 m 0
 167.665378286 -178.016954721 290 -133.414069507 290 -5 c 0
 290 103.823958928 120 147.853644956 120 180 c 0
 120 195.933726818 162.132288106 292.881154708 187.14500106 372.92183616 c 0
 189.993722605 381.468000795 199.586037072 381 205 381 c 0
 213.470205242 381 362.43013692 366 373 366 c 0
 389.869199689 366 392.187833513 364.083870958 396.316718427 372.341640786 c 0
 401.44618673 382.600577393 404.064345983 398 411 398 c 0
 417.328197881 398 434 395.182345708 434 387 c 0
 434 379.143556739 417.847219096 342.048580511 408.817281273 317.968746316 c 1
 403.984370903 304.436597281 402.601415521 297 386 297 c 0
 372.216861988 297 302.639781582 309.021658172 223.662316001 319.018805714 c 1
 213.344713236 320.05056599 201.445298557 319.182393181 198.690991898 313.673779863 c 1
 182.049338378 279.411552028 165.496262095 228.483904579 165.00799822 222.198093339 c 1
 173.003377927 208.803677961 358 146.659511498 358 9 c 0
 358 -132.70651857 185.671359531 -215 66 -215 c 0
 58.5712259132 -215 55 -208.4180837 55 -199 c 0
 55 -191.492279972 57.7424161876 -186 64.8836703248 -186 c 0
EndSplineSet
AlternateSubs2: "'aalt' Access All Alternates lookup 0 subtable" five.p five.u five.sub five.sup five.denom five.numer
AlternateSubs2: "'aalt' Access All Alternates in Latin lookup 0 subtable" five.p five.u five.sub five.sup five.denom five.numer
Substitution2: "'pnum' Proportional Numbers in Latin lookup 10 subtable" five.p
Substitution2: "lining_figures subtable" five.u
Substitution2: "'subs' Subscript in Latin lookup 8 subtable" five.sub
Substitution2: "'sups' Superscript in Latin lookup 7 subtable" five.sup
Substitution2: "denominators subtable" five.denom
Substitution2: "numerators subtable" five.numer
EndChar

StartChar: six
Encoding: 54 54 58
Width: 500
VWidth: 0
Flags: HW
AnchorPoint: "l;bl" 0 10 basechar 0
AnchorPoint: "l;x" 0 380 basechar 0
AnchorPoint: "l;hi" 0 650 basechar 0
AnchorPoint: "l;o" 0 200 basechar 0
AnchorPoint: "l;lo" 0 -260 basechar 0
AnchorPoint: "r;bl" 500 10 basechar 0
AnchorPoint: "r;x" 500 380 basechar 0
AnchorPoint: "r;hi" 500 650 basechar 0
AnchorPoint: "r;o" 500 200 basechar 0
AnchorPoint: "r;lo" 500 -260 basechar 0
LayerCount: 3
Fore
SplineSet
439.032318362 639.18182846 m 0
 389.219399645 619.256660974 347.742146974 596.509144349 310.084436063 559.84242583 c 0
 251.339850517 503.089182167 198.415494561 433.122785189 175.701408544 387.694613156 c 1
 169.480180445 374.363410085 163.387650468 362.50192809 162.25621625 355.921896372 c 1
 168.042746428 356.670677711 175.01601398 357.992781483 185.447134395 359.948616561 c 0
 201.513392845 362.96104002 225.687092981 367 251 367 c 0
 356.439566843 367 426 304.556589009 426 191 c 0
 426 67.2034743493 331.392218327 -8 222 -8 c 0
 142.827478905 -8 52 30.3133972791 52 187 c 0
 52 343.290517158 150.654489984 478.933929443 247.036261577 563.267979587 c 0
 329.451062774 634.627136721 418.297228846 670 436 670 c 0
 445.508043697 670 449 655.830500797 449 648 c 0
 449 641.925551616 441.405384482 639.972850501 439.032318362 639.18182846 c 0
119 173 m 0
 119 122.208905585 141.827861165 27 233 27 c 0
 304.340815582 27 351 108.570624001 351 197 c 0
 351 270.572173297 328.642394679 340 234 340 c 0
 212.213319334 340 159.897162923 329.133047579 153.417281761 320.22321098 c 1
 128.192499034 286.266772695 119 216.718430948 119 173 c 0
EndSplineSet
AlternateSubs2: "'aalt' Access All Alternates lookup 0 subtable" six.p six.u six.sub six.sup six.denom six.numer
AlternateSubs2: "'aalt' Access All Alternates in Latin lookup 0 subtable" six.p six.u six.sub six.sup six.denom six.numer
Substitution2: "'pnum' Proportional Numbers in Latin lookup 10 subtable" six.p
Substitution2: "lining_figures subtable" six.u
Substitution2: "'subs' Subscript in Latin lookup 8 subtable" six.sub
Substitution2: "'sups' Superscript in Latin lookup 7 subtable" six.sup
Substitution2: "denominators subtable" six.denom
Substitution2: "numerators subtable" six.numer
EndChar

StartChar: seven
Encoding: 55 55 59
Width: 500
VWidth: 0
Flags: HW
AnchorPoint: "l;bl" 0 10 basechar 0
AnchorPoint: "l;x" 0 380 basechar 0
AnchorPoint: "l;hi" 0 650 basechar 0
AnchorPoint: "l;o" 0 200 basechar 0
AnchorPoint: "l;lo" 0 -260 basechar 0
AnchorPoint: "r;bl" 500 10 basechar 0
AnchorPoint: "r;x" 500 380 basechar 0
AnchorPoint: "r;hi" 500 650 basechar 0
AnchorPoint: "r;o" 500 200 basechar 0
AnchorPoint: "r;lo" 500 -260 basechar 0
LayerCount: 3
Fore
SplineSet
110 427 m 0
 118.361042552 427 130 426.202114404 130 415 c 0
 130 409.060875212 128.467867919 402.775921457 128.043997588 396.976793546 c 1
 135.093391163 395.990390143 153.120706807 396 176 396 c 0
 444 396 l 0
 450.875093736 396 460 394.661476018 460 384 c 0
 460 367.206929301 292.622328881 100.541326007 244.589890382 18.485910238 c 0
 206.610023935 -46.4796507909 162.680806623 -123.399891274 135.81938027 -196.025229189 c 0
 131.977495086 -206.590413448 129.249858907 -213 121 -213 c 0
 106.541887979 -213 87 -204.004229587 87 -190 c 0
 87 -125.469119407 320.542829157 203.731047479 389.460831457 315.597949763 c 1
 392.880081431 320.917844275 394.333007812 324.866002789 394.333007812 327.147460938 c 0
 394.333007812 329.66812745 392.719410219 332 383 332 c 0
 190 332 l 0
 161.379451815 332 113.363858965 328.945049931 107.792682375 324.886834609 c 1
 94.8223641773 284.978163233 l 1
 94.7854300727 284.885827971 l 0
 93.0776315932 280.616331772 91.867503134 274 82 274 c 0
 75.296497468 274 62 276.498388772 62 286 c 0
 62 297.920777345 84.0798371556 342.714058322 95.037300007 404.474303485 c 1
 96.9788445438 418.065115242 100.311464852 427 110 427 c 0
EndSplineSet
AlternateSubs2: "'aalt' Access All Alternates lookup 0 subtable" seven.p seven.u seven.sub seven.sup seven.denom seven.numer
AlternateSubs2: "'aalt' Access All Alternates in Latin lookup 0 subtable" seven.p seven.u seven.sub seven.sup seven.denom seven.numer
Substitution2: "'pnum' Proportional Numbers in Latin lookup 10 subtable" seven.p
Substitution2: "lining_figures subtable" seven.u
Substitution2: "'subs' Subscript in Latin lookup 8 subtable" seven.sub
Substitution2: "'sups' Superscript in Latin lookup 7 subtable" seven.sup
Substitution2: "denominators subtable" seven.denom
Substitution2: "numerators subtable" seven.numer
EndChar

StartChar: eight
Encoding: 56 56 60
Width: 500
VWidth: 0
Flags: HW
AnchorPoint: "l;bl" 0 10 basechar 0
AnchorPoint: "l;x" 0 380 basechar 0
AnchorPoint: "l;hi" 0 650 basechar 0
AnchorPoint: "l;o" 0 200 basechar 0
AnchorPoint: "l;lo" 0 -260 basechar 0
AnchorPoint: "r;bl" 500 10 basechar 0
AnchorPoint: "r;x" 500 380 basechar 0
AnchorPoint: "r;hi" 500 650 basechar 0
AnchorPoint: "r;o" 500 200 basechar 0
AnchorPoint: "r;lo" 500 -260 basechar 0
LayerCount: 3
Fore
SplineSet
403 150 m 0
 403 57.8977558544 320.121353011 -6 218 -6 c 0
 129.946589015 -6 67 37.1075933078 67 130 c 0
 67 245.55633569 193.609220377 315.953057549 207.390281256 328.988911652 c 1
 195.635329904 341.732691103 108 410.870664453 108 500 c 0
 108 595.728627532 179.570519407 664 283 664 c 0
 365.379034957 664 423 614.656981894 423 527 c 0
 423 427.177320092 304.750114121 356.70531912 292.498686645 344.012032438 c 1
 304.106972055 330.664247203 403 253.89755314 403 150 c 0
224.765607151 311.918918175 m 1
 211.70254091 307.461232059 127 239.700769493 127 145 c 0
 127 70.3409773507 175.905788772 25 227 25 c 0
 291.149129405 25 338 80.4766922834 338 140 c 0
 338 215.248336376 236.301570388 305.791758215 224.765607151 311.918918175 c 1
368 525 m 0
 368 586.775353416 330.061227321 635 269 635 c 0
 201.917381263 635 167 580.663131111 167 534 c 0
 167 458.218359487 260.374803152 367.496947244 271.233525082 362.047240193 c 1
 284.42136826 365.657934008 368 438.156591162 368 525 c 0
EndSplineSet
AlternateSubs2: "'aalt' Access All Alternates lookup 0 subtable" eight.p eight.u eight.sub eight.sup eight.denom eight.numer
AlternateSubs2: "'aalt' Access All Alternates in Latin lookup 0 subtable" eight.p eight.u eight.sub eight.sup eight.denom eight.numer
Substitution2: "'pnum' Proportional Numbers in Latin lookup 10 subtable" eight.p
Substitution2: "lining_figures subtable" eight.u
Substitution2: "'subs' Subscript in Latin lookup 8 subtable" eight.sub
Substitution2: "'sups' Superscript in Latin lookup 7 subtable" eight.sup
Substitution2: "denominators subtable" eight.denom
Substitution2: "numerators subtable" eight.numer
EndChar

StartChar: nine
Encoding: 57 57 61
Width: 500
VWidth: 0
Flags: HW
AnchorPoint: "l;bl" 0 10 basechar 0
AnchorPoint: "l;x" 0 380 basechar 0
AnchorPoint: "l;hi" 0 650 basechar 0
AnchorPoint: "l;o" 0 200 basechar 0
AnchorPoint: "l;lo" 0 -260 basechar 0
AnchorPoint: "r;bl" 500 10 basechar 0
AnchorPoint: "r;x" 500 380 basechar 0
AnchorPoint: "r;hi" 500 650 basechar 0
AnchorPoint: "r;o" 500 200 basechar 0
AnchorPoint: "r;lo" 500 -260 basechar 0
LayerCount: 3
Fore
SplineSet
448 203 m 0
 448 93.8467509616 385.450469384 -8.85638130106 306.934996728 -75.2925504712 c 0
 197.291641701 -167.835565723 59.5987786952 -208 51 -208 c 0
 41.1738428576 -208 39 -192.346994632 39 -185 c 0
 39 -177.874393787 54.7240253597 -175.568151696 73.0132035825 -169.166939318 c 0
 161.116866165 -138.479146733 243.81650717 -59.9332564351 306.711371785 15.9399135773 c 1
 317.134648131 27.9667708986 323.589318818 39.0672835975 325.388841326 43.7034579979 c 1
 318.718945119 42.047385478 308.239798536 37.3398476081 300.885888312 35.133674541 c 1
 278.741954614 28.0878774551 251.450076609 22 226 22 c 0
 140.991484148 22 85 89.9165958577 85 192 c 0
 85 315.844027731 186.577229994 397 296 397 c 0
 393.211266784 397 448 315.835629596 448 203 c 0
295 365 m 0
 203.605709184 365 150 262.327746555 150 173 c 0
 150 104.940476117 181.005769139 55 253 55 c 0
 283.748662516 55 305.249274107 58.9421630912 325.818242104 67.7574350901 c 0
 358.378624589 81.7118847264 384 165.062203733 384 240 c 0
 384 322.156536717 345.795734382 365 295 365 c 0
EndSplineSet
AlternateSubs2: "'aalt' Access All Alternates lookup 0 subtable" nine.p nine.u nine.sub nine.sup nine.denom nine.numer
AlternateSubs2: "'aalt' Access All Alternates in Latin lookup 0 subtable" nine.p nine.u nine.sub nine.sup nine.denom nine.numer
Substitution2: "'pnum' Proportional Numbers in Latin lookup 10 subtable" nine.p
Substitution2: "lining_figures subtable" nine.u
Substitution2: "'subs' Subscript in Latin lookup 8 subtable" nine.sub
Substitution2: "'sups' Superscript in Latin lookup 7 subtable" nine.sup
Substitution2: "denominators subtable" nine.denom
Substitution2: "numerators subtable" nine.numer
EndChar

StartChar: comma
Encoding: 44 44 63
Width: 195
VWidth: 0
Flags: HW
AnchorPoint: "l;bl" 0 10 basechar 0
AnchorPoint: "l;o" 20 200 basechar 0
AnchorPoint: "r;bl" 195 10 basechar 0
AnchorPoint: "r;o" 195 200 basechar 0
LayerCount: 3
Fore
SplineSet
42 68 m 0
 42 79.825634734 80.6655787238 99 98 99 c 0
 112.323882667 99 158 66.5341350077 158 16 c 0
 158 -49.0542277847 31.7798883457 -151 24 -151 c 0
 15.2726681199 -151 4 -135.45702487 4 -127 c 0
 4 -121.226629061 26.660166239 -108.131594138 47.9033428378 -87.854016475 c 1
 64.9800984831 -70.7772608298 95 -40.1826389336 95 -11 c 0
 95 -0.97432935978 90.4281311385 9.42306367984 80.6395467604 22.1482233715 c 1
 65.2181806581 41.4249309993 42 59.0034967057 42 68 c 0
EndSplineSet
AlternateSubs2: "'aalt' Access All Alternates lookup 0 subtable" comma.sub comma.sup comma.denom comma.numer
AlternateSubs2: "'aalt' Access All Alternates in Latin lookup 0 subtable" comma.sub comma.sup comma.denom comma.numer
Substitution2: "'subs' Subscript in Latin lookup 8 subtable" comma.sub
Substitution2: "'sups' Superscript in Latin lookup 7 subtable" comma.sup
Substitution2: "denominators subtable" comma.denom
Substitution2: "numerators subtable" comma.numer
EndChar

StartChar: quotedblright
Encoding: 8221 8221 64
Width: 434
VWidth: 0
Flags: HW
AnchorPoint: "r;o" 414 200 basechar 0
AnchorPoint: "r;hi" 434 650 basechar 0
AnchorPoint: "r;x" 434 380 basechar 0
AnchorPoint: "l;o" 0 200 basechar 0
AnchorPoint: "l;hi" 20 650 basechar 0
AnchorPoint: "l;x" 0 380 basechar 0
LayerCount: 3
Fore
SplineSet
100 623 m 0
 100 653.008270811 136.945621602 680 150 680 c 0
 169.490184403 680 182 615.931174121 182 592 c 0
 182 514.522483138 84.1111586187 432 77 432 c 0
 70.4543926818 432 57 446.829094067 57 453 c 0
 57 461.663045647 121 508.601736197 121 540 c 0
 121 564.579008428 100 595.579612789 100 623 c 0
285 623 m 0
 285 653.008270811 321.945621602 680 335 680 c 0
 354.490184403 680 367 615.931174121 367 592 c 0
 367 514.522483138 269.111158619 432 262 432 c 0
 255.454392682 432 242 446.829094067 242 453 c 0
 242 461.663045647 306 508.601736197 306 540 c 0
 306 564.579008428 285 595.579612789 285 623 c 0
EndSplineSet
EndChar

StartChar: quotedblleft
Encoding: 8220 8220 65
Width: 414
VWidth: 0
Flags: HW
AnchorPoint: "r;o" 394 200 basechar 0
AnchorPoint: "r;hi" 414 650 basechar 0
AnchorPoint: "r;x" 414 380 basechar 0
AnchorPoint: "l;o" 0 200 basechar 0
AnchorPoint: "l;hi" 0 650 basechar 0
AnchorPoint: "l;x" 0 380 basechar 0
LayerCount: 3
Fore
SplineSet
334 489 m 0
 334 458.991729189 297.054378398 432 284 432 c 0
 264.509815597 432 252 496.068825879 252 520 c 0
 252 597.477516862 349.888841381 680 357 680 c 0
 363.545607318 680 377 665.170905933 377 659 c 0
 377 650.336954353 313 603.398263803 313 572 c 0
 313 547.420991572 334 516.420387211 334 489 c 0
149 489 m 0
 149 458.991729189 112.054378398 432 99 432 c 0
 79.5098155972 432 67 496.068825879 67 520 c 0
 67 597.477516862 164.888841381 680 172 680 c 0
 178.545607318 680 192 665.170905933 192 659 c 0
 192 650.336954353 128 603.398263803 128 572 c 0
 128 547.420991572 149 516.420387211 149 489 c 0
EndSplineSet
EndChar

StartChar: quoteright
Encoding: 8217 8217 66
Width: 249
VWidth: 0
Flags: HW
AnchorPoint: "l;x" 0 380 basechar 0
AnchorPoint: "l;hi" 20 650 basechar 0
AnchorPoint: "l;o" 0 200 basechar 0
AnchorPoint: "r;x" 249 380 basechar 0
AnchorPoint: "r;hi" 249 650 basechar 0
AnchorPoint: "r;o" 229 200 basechar 0
LayerCount: 3
Fore
SplineSet
100 623 m 0
 100 653.008270811 136.945621602 680 150 680 c 0
 169.490184403 680 182 615.931174121 182 592 c 0
 182 514.522483138 84.1111586187 432 77 432 c 0
 70.4543926818 432 57 446.829094067 57 453 c 0
 57 461.663045647 121 508.601736197 121 540 c 0
 121 564.579008428 100 595.579612789 100 623 c 0
EndSplineSet
EndChar

StartChar: quoteleft
Encoding: 8216 8216 67
Width: 229
VWidth: 0
Flags: HW
AnchorPoint: "l;x" 0 380 basechar 0
AnchorPoint: "l;hi" 0 650 basechar 0
AnchorPoint: "l;o" 0 200 basechar 0
AnchorPoint: "r;x" 229 380 basechar 0
AnchorPoint: "r;hi" 229 650 basechar 0
AnchorPoint: "r;o" 209 200 basechar 0
LayerCount: 3
Fore
SplineSet
149 489 m 0
 149 458.991729189 112.054378398 432 99 432 c 0
 79.5098155972 432 67 496.068825879 67 520 c 0
 67 597.477516862 164.888841381 680 172 680 c 0
 178.545607318 680 192 665.170905933 192 659 c 0
 192 650.336954353 128 603.398263803 128 572 c 0
 128 547.420991572 149 516.420387211 149 489 c 0
EndSplineSet
EndChar

StartChar: period
Encoding: 46 46 68
Width: 210
VWidth: 0
Flags: HW
AnchorPoint: "l;bl" 0 10 basechar 0
AnchorPoint: "l;o" 20 200 basechar 0
AnchorPoint: "r;bl" 210 10 basechar 0
AnchorPoint: "r;o" 210 200 basechar 0
LayerCount: 3
Fore
SplineSet
57 38 m 0
 57 65.651456599 84.9308066134 93 106 93 c 0
 126.113478029 93 153 64.685446598 153 43 c 0
 153 6.19966966156 121.670988221 -11 110 -11 c 0
 80.0160056113 -11 57 21.2281384994 57 38 c 0
EndSplineSet
AlternateSubs2: "'aalt' Access All Alternates lookup 0 subtable" period.sub period.sup period.denom period.numer
AlternateSubs2: "'aalt' Access All Alternates in Latin lookup 0 subtable" period.sub period.sup period.denom period.numer
Substitution2: "'subs' Subscript in Latin lookup 8 subtable" period.sub
Substitution2: "'sups' Superscript in Latin lookup 7 subtable" period.sup
Substitution2: "denominators subtable" period.denom
Substitution2: "numerators subtable" period.numer
EndChar

StartChar: colon
Encoding: 58 58 69
Width: 209
VWidth: 0
Flags: HW
AnchorPoint: "l;bl" 0 10 basechar 0
AnchorPoint: "l;x" 20 380 basechar 0
AnchorPoint: "l;o" 10 200 basechar 0
AnchorPoint: "r;bl" 209 10 basechar 0
AnchorPoint: "r;k;x" 239 380 basechar 0
AnchorPoint: "r;k;o" 229 200 basechar 0
LayerCount: 3
Fore
SplineSet
86 313 m 0
 86 340.651456599 113.930806613 368 135 368 c 0
 155.113478029 368 182 339.685446598 182 318 c 0
 182 281.199669662 150.670988221 264 139 264 c 0
 109.016005611 264 86 296.228138499 86 313 c 0
57 38 m 0
 57 65.651456599 84.9308066134 93 106 93 c 0
 126.113478029 93 153 64.685446598 153 43 c 0
 153 6.19966966156 121.670988221 -11 110 -11 c 0
 80.0160056113 -11 57 21.2281384994 57 38 c 0
EndSplineSet
EndChar

StartChar: semicolon
Encoding: 59 59 70
Width: 195
VWidth: 0
Flags: HW
AnchorPoint: "l;bl" 0 10 basechar 0
AnchorPoint: "r;k;o" 220 200 basechar 0
AnchorPoint: "r;k;x" 230 380 basechar 0
AnchorPoint: "l;o" 0 200 basechar 0
AnchorPoint: "l;x" 10 380 basechar 0
AnchorPoint: "r;bl" 195 10 basechar 0
LayerCount: 3
Fore
SplineSet
77 313 m 0
 77 340.651456599 104.930806613 368 126 368 c 0
 146.113478029 368 173 339.685446598 173 318 c 0
 173 281.199669662 141.670988221 264 130 264 c 0
 100.016005611 264 77 296.228138499 77 313 c 0
42 68 m 0
 42 79.825634734 80.6655787238 99 98 99 c 0
 112.323882667 99 158 66.5341350077 158 16 c 0
 158 -49.0542277847 31.7798883457 -151 24 -151 c 0
 15.2726681199 -151 4 -135.45702487 4 -127 c 0
 4 -121.226629061 26.660166239 -108.131594138 47.9033428378 -87.854016475 c 1
 64.9800984831 -70.7772608298 95 -40.1826389336 95 -11 c 0
 95 -0.97432935978 90.4281311385 9.42306367984 80.6395467604 22.1482233715 c 1
 65.2181806581 41.4249309993 42 59.0034967057 42 68 c 0
EndSplineSet
EndChar

StartChar: hyphen
Encoding: 45 45 71
Width: 268
VWidth: 0
Flags: HW
AnchorPoint: "l;bl" 0 10 basechar 0
AnchorPoint: "l;x" 0 380 basechar 0
AnchorPoint: "l;o" 0 200 basechar 0
AnchorPoint: "r;bl" 268 10 basechar 0
AnchorPoint: "r;x" 268 380 basechar 0
AnchorPoint: "r;o" 268 200 basechar 0
LayerCount: 3
Fore
SplineSet
47.6687054218 243.981651204 m 0
 57.1749409795 245.037899599 224.664946563 251 231 251 c 0
 237.389724319 251 236 242.01264536 236 239 c 0
 236 226.909032356 233.30043865 205.207019039 225.759532742 203.049562947 c 1
 211.272228594 201.935154936 47.6419430588 195 34 195 c 0
 30.1734550138 195 27 197.188190763 27 201 c 0
 27 215.939893366 35.2074903501 242.597071752 47.6687054218 243.981651204 c 0
EndSplineSet
AlternateSubs2: "'aalt' Access All Alternates lookup 0 subtable" hyphen.u hyphen.sub hyphen.sup hyphen.denom hyphen.numer
AlternateSubs2: "'aalt' Access All Alternates in Latin lookup 0 subtable" hyphen.u hyphen.sub hyphen.sup hyphen.denom hyphen.numer
Substitution2: "'case' Case-Sensitive Forms in Latin lookup 12 subtable" hyphen.u
Substitution2: "'subs' Subscript in Latin lookup 8 subtable" hyphen.sub
Substitution2: "'sups' Superscript in Latin lookup 7 subtable" hyphen.sup
Substitution2: "denominators subtable" hyphen.denom
Substitution2: "numerators subtable" hyphen.numer
EndChar

StartChar: exclam
Encoding: 33 33 72
Width: 220
VWidth: 0
Flags: HW
AnchorPoint: "l;bl" 0 10 basechar 0
AnchorPoint: "l;x" 30 380 basechar 0
AnchorPoint: "l;hi" 60 650 basechar 0
AnchorPoint: "l;o" 10 200 basechar 0
AnchorPoint: "r;bl" 220 10 basechar 0
AnchorPoint: "r;k;x" 260 380 basechar 0
AnchorPoint: "r;k;hi" 240 650 basechar 0
AnchorPoint: "r;o" 220 200 basechar 0
LayerCount: 3
Fore
SplineSet
62 38 m 0
 62 65.651456599 89.9308066134 93 111 93 c 0
 131.113478029 93 158 64.685446598 158 43 c 0
 158 6.19966966156 126.670988221 -11 115 -11 c 0
 85.0160056113 -11 62 21.2281384994 62 38 c 0
153.006806183 635.205780432 m 0
 154.137106948 655.551194199 171.685405999 660 185 660 c 0
 190 660 l 0
 209.667209583 660 218 652.983437724 218 640 c 0
 218 635.423570251 216.908308801 632.244485462 215.934705373 627.376468326 c 1
 206.930416138 587.357405056 175.969551354 437.571133329 129.953059869 150.468240807 c 1
 128.30861372 142.246010058 118.133649148 143 115 143 c 0
 108.550549199 143 99 142.149005361 99 150 c 0
 99 154.60842372 106.999312997 237.181271243 119.023428783 333.374197524 c 0
 141.02250897 508.36688083 148.012051953 574.269778821 153.006806183 635.205780432 c 0
EndSplineSet
Layer: 2
SplineSet
61 38 m 0
 61 65.651456599 88.9308066134 93 110 93 c 0
 130.113478029 93 157 64.685446598 157 43 c 0
 157 6.19966966156 125.670988221 -11 114 -11 c 0
 84.0160056113 -11 61 21.2281384994 61 38 c 0
152.010026677 635.245070454 m 0
 153.670755519 655.507504118 170.616433258 660 184 660 c 0
 189 660 l 0
 208.667209583 660 217 652.983437724 217 640 c 0
 217 635.423570251 215.908308801 632.244485462 214.934705373 627.376468326 c 1
 205.930416138 587.357405056 174.969551354 437.571133329 128.953059869 150.468240807 c 1
 127.30861372 142.246010058 117.133649148 143 114 143 c 0
 105.864241906 143 98 146.035262512 98 153 c 0
 98 157.620878235 105.93267935 237.197114448 118.023428783 333.374197524 c 0
 140.02250897 508.36688083 147.015272446 574.309068842 152.010026677 635.245070454 c 0
EndSplineSet
Position2: "'cpsp' Capital Spacing in Latin lookup 2 subtable" dx=4 dy=0 dh=8 dv=0
EndChar

StartChar: question
Encoding: 63 63 73
Width: 374
VWidth: 0
Flags: HW
AnchorPoint: "l;bl" 0 10 basechar 0
AnchorPoint: "l;x" 0 380 basechar 0
AnchorPoint: "l;hi" 0 650 basechar 0
AnchorPoint: "l;o" 0 200 basechar 0
AnchorPoint: "r;bl" 244 10 basechar 0
AnchorPoint: "r;x" 354 380 basechar 0
AnchorPoint: "r;hi" 374 650 basechar 0
AnchorPoint: "r;o" 254 200 basechar 0
LayerCount: 3
Fore
SplineSet
92.0065558522 635.796546038 m 0
 90.845362231 649.730869491 98.5455954789 652.965542702 112.541207477 654.964915845 c 1
 130.737530947 657.997636423 159.804145779 660 177 660 c 0
 232.335433381 660 254.153936076 649.824609017 268.636659623 640.514286737 c 1
 313.613113731 610.870714712 342 553.999853379 342 501 c 0
 342 434.234351762 322.147403307 416.89946705 292.239539815 383.003888426 c 0
 251.140340064 336.892591144 223.04711547 311.804474783 187.121320344 275.878679656 c 0
 167.614484109 256.371843422 121 217.635686433 121 192 c 0
 121 167.130092256 149 147.171134156 149 139 c 0
 149 133.711690809 139.138853549 123 132 123 c 0
 123.784670489 123 81 164.85066483 81 206 c 0
 81 245.529519688 109.889606084 280.132246771 146.878679656 317.121320344 c 0
 215.365189136 385.607829823 310 462.486592764 310 515 c 0
 310 542.880668822 292.405078037 572.090675844 274.389373523 583.469015537 c 0
 253.45551931 596.790559127 223.110066697 597 187 597 c 0
 165.178142875 597 116.214988409 594 107 594 c 0
 89.9337233772 594 92.896994911 618.878203919 92.0065558522 635.796546038 c 0
77 38 m 0
 77 65.651456599 104.930806613 93 126 93 c 0
 146.113478029 93 173 64.685446598 173 43 c 0
 173 6.19966966156 141.670988221 -11 130 -11 c 0
 100.016005611 -11 77 21.2281384994 77 38 c 0
EndSplineSet
Position2: "'cpsp' Capital Spacing in Latin lookup 2 subtable" dx=4 dy=0 dh=8 dv=0
EndChar

StartChar: parenleft
Encoding: 40 40 74
Width: 319
VWidth: 0
Flags: HW
AnchorPoint: "l;o" 0 200 basechar 0
AnchorPoint: "l;x" 0 380 basechar 0
AnchorPoint: "r;o" 259 200 basechar 0
AnchorPoint: "r;hi" 319 650 basechar 0
AnchorPoint: "r;x" 259 380 basechar 0
AnchorPoint: "r;bl" 299 10 basechar 0
AnchorPoint: "r;lo" 299 -260 basechar 0
AnchorPoint: "l;bl" 20 10 basechar 0
AnchorPoint: "l;hi" 60 650 basechar 0
LayerCount: 3
Fore
SplineSet
57 285 m 0
 57 547.63638998 237.46399762 692 243 692 c 0
 251.077877868 692 262 685.480918211 262 676 c 0
 262 667.252208069 120 546.156707575 120 297 c 0
 120 13.935340489 258 -106.800487094 258 -126 c 0
 258 -134.575808315 251.5368163 -143 239 -143 c 0
 223.997790703 -143 57 54.7557194963 57 285 c 0
EndSplineSet
AlternateSubs2: "'aalt' Access All Alternates lookup 0 subtable" parenleft.u parenleft.sub parenleft.sup parenleft.denom parenleft.numer
AlternateSubs2: "'aalt' Access All Alternates in Latin lookup 0 subtable" parenleft.u parenleft.sub parenleft.sup parenleft.denom parenleft.numer
Substitution2: "'case' Case-Sensitive Forms in Latin lookup 12 subtable" parenleft.u
Substitution2: "'subs' Subscript in Latin lookup 8 subtable" parenleft.sub
Substitution2: "'sups' Superscript in Latin lookup 7 subtable" parenleft.sup
Substitution2: "denominators subtable" parenleft.denom
Substitution2: "numerators subtable" parenleft.numer
EndChar

StartChar: parenright
Encoding: 41 41 75
Width: 319
VWidth: 0
Flags: HW
AnchorPoint: "r;hi" 259 650 basechar 0
AnchorPoint: "r;bl" 299 10 basechar 0
AnchorPoint: "l;lo" 20 -260 basechar 0
AnchorPoint: "l;bl" 20 10 basechar 0
AnchorPoint: "l;x" 60 380 basechar 0
AnchorPoint: "l;hi" 0 650 basechar 0
AnchorPoint: "l;o" 60 200 basechar 0
AnchorPoint: "r;x" 319 380 basechar 0
AnchorPoint: "r;o" 319 200 basechar 0
LayerCount: 3
Fore
SplineSet
262 264 m 0
 262 1.36361001976 81.5360023796 -143 76 -143 c 0
 67.9221221316 -143 57 -136.480918211 57 -127 c 0
 57 -118.252208069 199 2.84329242546 199 252 c 0
 199 535.064659511 61 655.800487094 61 675 c 0
 61 683.575808315 67.4631836995 692 80 692 c 0
 95.0022092974 692 262 494.244280504 262 264 c 0
EndSplineSet
AlternateSubs2: "'aalt' Access All Alternates lookup 0 subtable" parenright.u parenright.sub parenright.sup parenright.denom parenright.numer
AlternateSubs2: "'aalt' Access All Alternates in Latin lookup 0 subtable" parenright.u parenright.sub parenright.sup parenright.denom parenright.numer
Substitution2: "'case' Case-Sensitive Forms in Latin lookup 12 subtable" parenright.u
Substitution2: "'subs' Subscript in Latin lookup 8 subtable" parenright.sub
Substitution2: "'sups' Superscript in Latin lookup 7 subtable" parenright.sup
Substitution2: "denominators subtable" parenright.denom
Substitution2: "numerators subtable" parenright.numer
EndChar

StartChar: f_i
Encoding: 65536 -1 76
Width: 508
VWidth: 0
Flags: HW
AnchorPoint: "r;k;hi" 442 650 basechar 0
AnchorPoint: "r;o" 508 200 basechar 0
AnchorPoint: "r;x" 508 380 basechar 0
AnchorPoint: "r;bl" 488 10 basechar 0
AnchorPoint: "l;k;lo" -30 -260 basechar 0
AnchorPoint: "l;o" 0 200 basechar 0
AnchorPoint: "l;x" 0 380 basechar 0
AnchorPoint: "l;bl" 0 10 basechar 0
LayerCount: 3
Fore
SplineSet
34.0722583361 366.658350221 m 0
 35.2162235506 372.378176294 38.0095646695 375 44 375 c 0
 117 375 l 0
 124.985968625 375 123.025982282 372.435550055 124.012320381 384.271607238 c 0
 126.033740618 406.507229845 136.926268096 489.647780992 166.387518613 542.474850884 c 1
 178.578795416 563.80958529 217.769328776 621.176964211 277.488386923 655.591336703 c 0
 301.934016759 669.85128744 342.260357245 684 379 684 c 0
 412.085942928 684 455 662.640552389 455 645 c 0
 455 624.180938615 418.90369517 601 398 601 c 0
 369.555926609 601 340.08495785 638 308 638 c 0
 274.433215514 638 241.791770889 595.885480281 224.859372801 544.092262603 c 0
 204.978003205 481.465948375 195.977164829 405.626950371 191.969848481 377.575735931 c 0
 191.947962186 377.422531868 l 1
 191.9104275 377.272393125 l 0
 191.804093736 376.847058068 192.877382277 375 197 375 c 0
 279 375 l 0
 369.747990146 375 376.077024759 386 414 386 c 0
 425.205752834 386 437 379.689637348 437 361 c 0
 437 312.989578377 372 101.697844996 372 75 c 0
 372 64.4286923451 371.888914388 58 382 58 c 0
 398.622394655 58 453.923163644 122 461 122 c 0
 467.313296495 122 476 112.121679869 476 107 c 0
 476 89.697782466 354.609190708 -9 322 -9 c 0
 311.921214694 -9 295 -5.77220785921 295 12 c 0
 295 64.3147167947 366 250.169139584 366 310 c 0
 366 321.36882362 361.628691259 344 356 344 c 2
 195 344 l 0
 191.152610637 344 189.679960746 343.702842612 189.679960746 343.702842612 c 1
 189.391099441 343.22018828 188.87503493 340.542182284 187.960198074 335.510579575 c 1
 180.986892398 288.689812893 149.961596012 58.5220440724 130.963288896 -54.4678877204 c 0
 127.914284054 -73.7782517225 102.098778708 -186.420932007 35.7853346786 -236.411066736 c 1
 13.9537762612 -252.288563767 -17.6353373681 -279 -57 -279 c 0
 -90.2986089306 -279 -128 -257.404192682 -128 -240 c 0
 -128 -219.532691589 -97.2790894194 -196 -76 -196 c 0
 -48.0615833212 -196 -27.522330407 -220 5 -220 c 0
 46.8402157861 -220 57.731150552 -105.441842878 66.0370432123 -53.5300137509 c 0
 88.8752049375 90.449701473 118.79566204 330.394603439 118.974647486 335.312256364 c 1
 119.175483562 343.869619587 118.763574429 344 118 344 c 0
 42 344 l 0
 35.7189491424 344 32 345.615821784 32 353 c 0
 32 357.472112221 33.0423862225 362.538861767 34.0722583361 366.658350221 c 0
EndSplineSet
Ligature2: "'liga' Standard Ligatures in Latin lookup 13 subtable" f i
LCarets2: 1 0 
EndChar

StartChar: f_l
Encoding: 65537 -1 77
Width: 534
VWidth: 0
Flags: HW
AnchorPoint: "r;o" 534 200 basechar 0
AnchorPoint: "r;k;hi" 534 650 basechar 0
AnchorPoint: "r;x" 534 380 basechar 0
AnchorPoint: "r;bl" 514 10 basechar 0
AnchorPoint: "l;bl" 0 10 basechar 0
AnchorPoint: "l;x" 0 380 basechar 0
AnchorPoint: "l;o" 0 200 basechar 0
AnchorPoint: "l;k;lo" -30 -260 basechar 0
LayerCount: 3
Fore
SplineSet
422.733384694 664.449961479 m 0
 428.382645555 660.683787572 430.800485982 658.772932446 430.904222234 658.728402976 c 1
 431.665712995 658.938154923 433.894155383 660.301179658 438.678382588 662.69329326 c 1
 465.575440079 675.643728349 472.861769717 682 479 682 c 0
 487.479534734 682 492 676.495353521 492 670 c 0
 492 648.069276755 392.835039443 80.3451143447 391.98355864 67.7214695717 c 1
 392.546725801 50.2322783648 399.609632641 50 403 50 c 0
 428.728303329 50 494.623151783 134 503 134 c 0
 508.867432116 134 522 122.957990649 522 118 c 0
 522 110.013850774 415.817166554 -13 346 -13 c 0
 329.246833647 -13 314 -1.20558957515 314 28 c 0
 314 40.06919119 341.009172606 181.303323228 367.040818229 337.493196962 c 0
 367.054019397 337.572403971 l 1
 367.071438819 337.650791373 l 0
 367.846975761 341.140707611 367.859528952 343.096970019 367.800488031 343.462346208 c 1
 367.406139801 343.671006194 365.504789013 344 362 344 c 0
 195 344 l 0
 191.152610637 344 189.679960746 343.702842612 189.679960746 343.702842612 c 1
 189.391099441 343.22018828 188.87503493 340.542182284 187.960198074 335.510579575 c 1
 180.982419389 288.659779835 148.965176987 58.543965296 130.963288896 -54.4678877204 c 0
 127.914284054 -73.7782517225 102.098778708 -186.420932007 35.7853346786 -236.411066736 c 1
 13.9537762612 -252.288563767 -17.6353373681 -279 -57 -279 c 0
 -90.2986089306 -279 -128 -257.404192682 -128 -240 c 0
 -128 -219.532691589 -97.2790894194 -196 -76 -196 c 0
 -48.0615833212 -196 -27.522330407 -220 5 -220 c 0
 46.84040585 -220 57.7302962158 -105.4471653 66.0373593181 -53.5280209103 c 0
 88.8755210433 90.4516943137 118.79566204 330.394603439 118.974647486 335.312256364 c 1
 119.175483562 343.869619587 118.763574429 344 118 344 c 0
 42 344 l 0
 35.7189491424 344 32 345.615821784 32 353 c 0
 32 357.472112221 33.0423862225 362.538861767 34.0722583361 366.658350221 c 0
 35.2162235506 372.378176294 38.0095646695 375 44 375 c 0
 117 375 l 0
 124.985968625 375 123.025982282 372.435550055 124.012320381 384.271607238 c 0
 125.037674779 395.550505617 129.039285951 419.496974994 135.067049861 448.631167224 c 1
 154.184303524 534.155723086 184.704042789 579.989616639 241.059453742 627.287907975 c 1
 269.407573121 651.586296014 320.881282458 681 371 681 c 0
 392.678729089 681 410.247953465 673.814034902 422.733384694 664.449961479 c 0
405.23003082 617.260913444 m 0
 398.467006727 613.879401397 389.297878488 613 383 613 c 0
 364.91453619 613 352.180335853 622.572552296 339.617712761 629.337041653 c 1
 331.460394029 633.415701019 323.77629992 638 317 638 c 0
 306.178729992 638 294.651598198 631.494632221 281.722377251 622.543633105 c 1
 214.502360388 574.8076791 196.022012469 423.707434339 192.005609095 376.939011532 c 1
 192.076250505 376.65308202 193.838129766 375 197 375 c 0
 366 375 l 0
 376.293152248 375 372.913129863 374.862707853 375.045354139 385.523829235 c 1
 387.481761698 465.885235048 398.759098624 532.304939012 409.370022874 619.000843892 c 1
 405.23003082 617.260913444 l 0
EndSplineSet
Ligature2: "'liga' Standard Ligatures in Latin lookup 13 subtable" f l
LCarets2: 1 0 
EndChar

StartChar: f_f
Encoding: 65538 -1 78
Width: 531
VWidth: 0
Flags: HW
AnchorPoint: "r;o" 511 200 basechar 0
AnchorPoint: "r;x" 531 380 basechar 0
AnchorPoint: "r;bl" 491 10 basechar 0
AnchorPoint: "r;k;hi" 671 650 basechar 0
AnchorPoint: "l;bl" 0 10 basechar 0
AnchorPoint: "l;x" 0 380 basechar 0
AnchorPoint: "l;o" 0 200 basechar 0
AnchorPoint: "l;k;lo" -30 -260 basechar 0
LayerCount: 3
Fore
SplineSet
34.0722583361 366.658350221 m 0
 35.2162235506 372.378176294 38.0095646695 375 44 375 c 0
 117 375 l 0
 124.986742174 375 123.023940242 372.41206664 124.014594405 384.299916593 c 1
 126.041615435 401.529595351 131.055180661 438.671119449 148.179591805 487.022397971 c 0
 177.396586905 567.621005145 260.069791103 674 378 674 c 0
 423.911322515 674 466.634341563 649.918181682 478.484265057 632.681929328 c 1
 479.1076031 631.746922263 479.587155132 630.852927106 479.953443409 630.20462927 c 1
 490.297222036 638.479652171 502.150003633 648.41111497 515.532616369 655.617137212 c 1
 539.749438806 669.743616967 575.184754845 684 608 684 c 0
 641.085942928 684 684 662.640552389 684 645 c 0
 684 624.180938615 647.90369517 601 627 601 c 0
 598.284595903 601 577.88695252 638 546 638 c 0
 471.161546058 638 446.203920869 430.280787456 438.972134739 377.592059938 c 0
 438.949966695 377.430549902 l 1
 438.9104275 377.272393125 l 0
 438.804093736 376.847058068 439.877382277 375 444 375 c 0
 526 375 l 0
 529.849714883 375 534 373.959301898 534 370 c 0
 534 365.548346394 533.041964896 358.639061707 531.846049894 355.051316702 c 1
 531.846049894 355.051316702 528.635736617 344 522 344 c 0
 442 344 l 0
 438.152610637 344 436.679960746 343.702842612 436.679960746 343.702842612 c 1
 436.391099441 343.22018828 435.87503493 340.542182284 434.960198074 335.510579575 c 1
 427.982616538 288.661103547 405.962267584 129.525382451 386.960482995 15.5146749188 c 0
 376.904100139 -45.8292605055 345.924230817 -145.407442709 287.006894195 -198.229882439 c 0
 266.825387721 -216.393238266 231.33402968 -242 194 -242 c 0
 163.233461382 -242 126 -226.759979184 126 -210 c 0
 126 -190.50497862 155.693310528 -168 176 -168 c 0
 202.285990562 -168 223.023046487 -183 254 -183 c 0
 303.819457381 -183 316.76900381 -47.4409918224 324.029958804 4.42297241704 c 0
 344.995487385 149.184955476 366 330.742827091 366 336 c 0
 366 341.972506526 365.975641271 344 365 344 c 0
 195 344 l 0
 191.152610637 344 189.679960746 343.702842612 189.679960746 343.702842612 c 1
 189.391099441 343.22018828 188.87503493 340.542182284 187.960198074 335.510579575 c 1
 180.982419389 288.659779835 148.965176987 58.543965296 130.963288896 -54.4678877204 c 0
 127.914284054 -73.7782517225 102.098778708 -186.420932007 35.7853346786 -236.411066736 c 1
 13.9537762612 -252.288563767 -17.6353373681 -279 -57 -279 c 0
 -90.2986089306 -279 -128 -257.404192682 -128 -240 c 0
 -128 -219.532691589 -97.2790894194 -196 -76 -196 c 0
 -48.0615833212 -196 -27.522330407 -220 5 -220 c 0
 46.8402157861 -220 57.731150552 -105.441842878 66.0370432123 -53.5300137509 c 0
 88.8752049375 90.449701473 118.79566204 330.394603439 118.974647486 335.312256364 c 1
 119.175483562 343.869619587 118.763574429 344 118 344 c 0
 42 344 l 0
 35.7189491424 344 32 345.615821784 32 353 c 0
 32 357.472112221 33.0423862225 362.538861767 34.0722583361 366.658350221 c 0
449.404797329 597.348296698 m 1
 444.913682231 595.102739149 440.538411352 594 436 594 c 0
 420.826404136 594 408.156373221 602.632239073 397.135156667 611.649598072 c 1
 384.081604959 621.690791693 359.411543439 641 339 641 c 0
 281.176479803 641 233.74863454 580.670838468 216.897844155 518.223791744 c 0
 201.964401242 462.472271536 192 400.399028653 192 377 c 0
 192 376.953972685 193.309541584 375 197 375 c 0
 364 375 l 0
 371.985968625 375 370.025982282 372.435550055 371.012320381 384.271607238 c 0
 373.031765037 406.485498454 383.951406814 489.692586175 413.366313281 542.436556392 c 0
 419.147043964 553.034562644 431.693200197 575.492195605 449.404797329 597.348296698 c 1
EndSplineSet
Ligature2: "'liga' Standard Ligatures in Latin lookup 13 subtable" f f
LCarets2: 1 0 
EndChar

StartChar: f_f_i
Encoding: 65539 -1 79
Width: 755
VWidth: 0
Flags: HW
AnchorPoint: "r;o" 755 200 basechar 0
AnchorPoint: "r;x" 755 380 basechar 0
AnchorPoint: "r;bl" 735 10 basechar 0
AnchorPoint: "l;k;lo" -30 -260 basechar 0
AnchorPoint: "l;o" 0 200 basechar 0
AnchorPoint: "l;x" 0 380 basechar 0
AnchorPoint: "l;bl" 0 10 basechar 0
LayerCount: 3
Fore
SplineSet
34.0722583361 366.658350221 m 0
 35.2162235506 372.378176294 38.0095646695 375 44 375 c 2
 117 375 l 2
 124.986742174 375 123.023940242 372.41206664 124.014594405 384.299916593 c 0
 126.041615435 401.529595351 131.055180661 438.671119449 148.179591805 487.022397971 c 0
 177.396586905 567.621005145 260.069791103 674 378 674 c 0
 423.915748323 674 466.620663797 649.938076614 478.502346014 632.655629754 c 0
 480.667858886 629.252680956 482.181166896 626.015291628 482.553647669 625.270330082 c 2
 487.981981618 630.21982022 l 2
 499.292235199 640.50186893 511.435571353 647.559814107 524.457832956 655.573513555 c 0
 548.968226694 669.871243236 589.244795839 684 626 684 c 0
 659.085942928 684 702 662.640552389 702 645 c 0
 702 624.180938615 665.90369517 601 645 601 c 0
 616.555926609 601 587.08495785 638 555 638 c 0
 521.433215514 638 488.791770889 595.885480281 471.859372801 544.092262603 c 0
 452.020139779 481.598678582 442.917476972 405.353118706 439 377.786612099 c 1
 439 377 l 2
 439 376.953972685 440.309541584 375 444 375 c 2
 526 375 l 2
 616.747990146 375 623.077024759 386 661 386 c 0
 672.205752834 386 684 379.689637348 684 361 c 0
 684 312.989578377 619 101.697844996 619 75 c 0
 619 64.4286923451 618.888914388 58 629 58 c 0
 645.622394655 58 700.923163644 122 708 122 c 0
 714.313296495 122 723 112.121679869 723 107 c 0
 723 89.697782466 601.609190708 -9 569 -9 c 0
 558.921214694 -9 542 -5.77220785921 542 12 c 0
 542 64.3147167947 613 250.169139584 613 310 c 0
 613 321.36882362 608.628691259 344 603 344 c 2
 442 344 l 2
 438.152610637 344 436.679960746 343.702842612 436.679960746 343.702842612 c 2
 436.391099441 343.22018828 435.87503493 340.542182284 434.960198074 335.510579575 c 0
 427.982616538 288.661103547 405.810624535 129.550449084 386.960482995 15.5146749188 c 0
 376.822543828 -45.8157792273 345.873774174 -145.351272073 287.006894195 -198.229882439 c 0
 266.808074681 -216.3739646 231.33402968 -242 194 -242 c 0
 163.233461382 -242 126 -226.759979184 126 -210 c 0
 126 -190.50497862 155.693310528 -168 176 -168 c 0
 202.285990562 -168 223.023046487 -183 254 -183 c 0
 303.819935457 -183 316.64403493 -47.4398622958 324.030976094 4.42999656567 c 0
 344.653471922 149.237694928 366 330.742827091 366 336 c 2
 366 340 l 2
 366 342.296685 365.560116502 343.862187268 365.514996657 343.937387011 c 2
 365.162217296 344.019711368 l 2
 365.14883676 344.007313055 365.098778488 344.000000196 365 344 c 2
 195 344 l 2
 191.152610637 344 189.679960746 343.702842612 189.679960746 343.702842612 c 2
 189.391099441 343.22018828 188.87503493 340.542182284 187.960198074 335.510579575 c 0
 180.982419389 288.659779835 148.88815017 58.556181234 130.963288896 -54.4678877204 c 0
 127.901125307 -73.7761648332 102.098778708 -186.420932007 35.7853346786 -236.411066736 c 0
 13.9537762612 -252.288563767 -17.6353373681 -279 -57 -279 c 0
 -90.2986089306 -279 -128 -257.404192682 -128 -240 c 0
 -128 -219.532691589 -97.2790894194 -196 -76 -196 c 0
 -48.0615833212 -196 -27.522330407 -220 5 -220 c 0
 46.8402157861 -220 57.731150552 -105.441842878 66.0370432123 -53.5300137509 c 0
 88.8752049375 90.449701473 118.79566204 330.394603439 118.974647486 335.312256364 c 0
 119.175483562 343.869619587 118.763574429 344 118 344 c 2
 42 344 l 2
 35.7189491424 344 32 345.615821784 32 353 c 0
 32 357.472112221 33.0423862225 362.538861767 34.0722583361 366.658350221 c 0
436 594 m 0
 420.826404136 594 408.156373221 602.632239073 397.135156667 611.649598072 c 0
 384.081604959 621.690791693 359.411543439 641 339 641 c 0
 281.176479803 641 233.74863454 580.670838468 216.897844155 518.223791744 c 0
 201.964401242 462.472271536 192 400.399028653 192 377 c 0
 192 376.953972685 193.309541584 375 197 375 c 2
 364 375 l 2
 371.985757128 375 369.984235489 372.448897265 371.011278235 384.259888849 c 0
 373.033922698 407.520300173 385.914304708 500.638890284 417.476464574 549.622272774 c 0
 426.533985611 563.67923273 441.959439928 583.172342768 454.470331064 597.662067872 c 1
 448.090782493 595.5629906 443.031151171 594 436 594 c 0
EndSplineSet
Ligature2: "'liga' Standard Ligatures in Latin lookup 13 subtable" f f i
LCarets2: 2 0 0 
EndChar

StartChar: f_f_l
Encoding: 65540 -1 80
Width: 781
VWidth: 0
Flags: HW
AnchorPoint: "r;o" 781 200 basechar 0
AnchorPoint: "r;k;hi" 781 650 basechar 0
AnchorPoint: "r;x" 781 380 basechar 0
AnchorPoint: "r;bl" 761 10 basechar 0
AnchorPoint: "l;k;lo" -30 -260 basechar 0
AnchorPoint: "l;o" 0 200 basechar 0
AnchorPoint: "l;x" 0 380 basechar 0
AnchorPoint: "l;bl" 0 10 basechar 0
LayerCount: 3
Fore
SplineSet
371.011299315 384.260375519 m 0
 372.036856481 395.541504345 376.039162225 419.496376981 382.067151509 448.631658523 c 1
 396.827788123 514.562502064 419.375379386 557.69991344 453.307806946 594.378252894 c 1
 449.317604359 592.715668483 445.833265691 592 442 592 c 0
 426.752643081 592 408.372041783 602.455782977 397.135156667 611.649598072 c 1
 384.081604959 621.690791693 359.411543439 641 339 641 c 0
 281.176479803 641 233.74863454 580.670838468 216.897844155 518.223791744 c 0
 201.964401242 462.472271536 192 400.399028653 192 377 c 0
 192 376.953972685 193.309541584 375 197 375 c 0
 364 375 l 0
 371.985519158 375 370.02758157 372.455762574 371.011299315 384.260375519 c 0
34.0722583361 366.658350221 m 0
 35.2162235506 372.378176294 38.0095646695 375 44 375 c 0
 117 375 l 0
 124.986742174 375 123.023940242 372.41206664 124.014594405 384.299916593 c 1
 126.041615435 401.529595351 131.055180661 438.671119449 148.179591805 487.022397971 c 0
 177.396586905 567.621005145 260.069791103 674 378 674 c 0
 407.681332243 674 435.154232916 663.798204315 454.488416815 652.604729426 c 0
 468.487346568 644.605340996 476.518344849 638.931798432 480.846049894 625.948683298 c 0
 480.882483896 625.839381291 l 1
 480.9104275 625.727606875 l 0
 481.217655092 624.498696507 481.594374781 622.023720576 481.639828152 621.712040319 c 1
 488.063442963 627.291327307 l 0
 516.403497496 651.582802621 567.883012568 681 618 681 c 0
 639.678729089 681 657.247953465 673.814034902 669.733384694 664.449961479 c 0
 675.382645555 660.683787572 677.800485982 658.772932446 677.904222234 658.728402976 c 1
 678.665712995 658.938154923 680.894155383 660.301179658 685.678382588 662.69329326 c 1
 712.575440079 675.643728349 719.861769717 682 726 682 c 0
 734.479534734 682 739 676.495353521 739 670 c 0
 739 648.069276755 639.835039443 80.3451143447 638.98355864 67.7214695717 c 1
 639.546725801 50.2322783648 646.609632641 50 650 50 c 0
 675.728303329 50 741.623151783 134 750 134 c 0
 755.867432116 134 769 122.957990649 769 118 c 0
 769 110.013850774 662.817166554 -13 593 -13 c 0
 576.246833647 -13 561 -1.20558957515 561 28 c 0
 561 40.06919119 588.009172606 181.303323228 614.040818229 337.493196962 c 0
 614.054019397 337.572403971 l 1
 614.071438819 337.650791373 l 0
 614.846975761 341.140707611 614.859528952 343.096970019 614.800488031 343.462346208 c 1
 614.406139801 343.671006194 612.504789013 344 609 344 c 0
 442 344 l 0
 438.152610637 344 436.679960746 343.702842612 436.679960746 343.702842612 c 1
 436.391099441 343.22018828 435.87503493 340.542182284 434.960198074 335.510579575 c 1
 427.982616538 288.661103547 405.962267584 129.525382451 386.960482995 15.5146749188 c 0
 376.904100139 -45.8292605055 345.924230817 -145.407442709 287.006894195 -198.229882439 c 0
 266.825387721 -216.393238266 231.33402968 -242 194 -242 c 0
 163.233461382 -242 126 -226.759979184 126 -210 c 0
 126 -190.50497862 155.693310528 -168 176 -168 c 0
 202.285990562 -168 223.023046487 -183 254 -183 c 0
 303.819935457 -183 316.766749199 -47.4573384006 324.030976094 4.42999656567 c 0
 344.99605953 149.188906005 366 330.742827091 366 336 c 0
 366 341.972506526 365.975641271 344 365 344 c 0
 195 344 l 0
 191.152610637 344 189.679960746 343.702842612 189.679960746 343.702842612 c 1
 189.391099441 343.22018828 188.87503493 340.542182284 187.960198074 335.510579575 c 1
 180.982419389 288.659779835 148.965176987 58.543965296 130.963288896 -54.4678877204 c 0
 127.914284054 -73.7782517225 102.098778708 -186.420932007 35.7853346786 -236.411066736 c 1
 13.9537762612 -252.288563767 -17.6353373681 -279 -57 -279 c 0
 -90.2986089306 -279 -128 -257.404192682 -128 -240 c 0
 -128 -219.532691589 -97.2790894194 -196 -76 -196 c 0
 -48.0615833212 -196 -27.522330407 -220 5 -220 c 0
 46.8402157861 -220 57.731150552 -105.441842878 66.0370432123 -53.5300137509 c 0
 88.8752049375 90.449701473 118.79566204 330.394603439 118.974647486 335.312256364 c 1
 119.175483562 343.869619587 118.763574429 344 118 344 c 0
 42 344 l 0
 35.7189491424 344 32 345.615821784 32 353 c 0
 32 357.472112221 33.0423862225 362.538861767 34.0722583361 366.658350221 c 0
652.23003082 617.260913444 m 0
 645.467006727 613.879401397 636.297878488 613 630 613 c 0
 611.91453619 613 599.180335853 622.572552296 586.617712761 629.337041653 c 1
 578.460394029 633.415701019 570.77629992 638 564 638 c 0
 553.178729992 638 541.651598198 631.494632221 528.722377251 622.543633105 c 1
 461.502360388 574.8076791 443.022012469 423.707434339 439.005609095 376.939011532 c 1
 439.076250505 376.65308202 440.838129766 375 444 375 c 0
 613 375 l 0
 623.29347243 375 619.912220298 374.858160031 622.046440139 385.529259236 c 1
 634.736998814 465.577398572 645.768218454 532.281772126 656.370384991 619.001000099 c 1
 652.23003082 617.260913444 l 0
EndSplineSet
Ligature2: "'liga' Standard Ligatures in Latin lookup 13 subtable" f f l
LCarets2: 2 0 0 
EndChar

StartChar: f_j
Encoding: 65541 -1 81
Width: 508
VWidth: 0
Flags: HW
AnchorPoint: "r;o" 498 200 basechar 0
AnchorPoint: "r;x" 508 380 basechar 0
AnchorPoint: "r;bl" 488 10 basechar 0
AnchorPoint: "r;k;hi" 442 650 basechar 0
AnchorPoint: "l;k;lo" -30 -260 basechar 0
AnchorPoint: "l;o" 0 200 basechar 0
AnchorPoint: "l;x" 0 380 basechar 0
AnchorPoint: "l;bl" 0 10 basechar 0
LayerCount: 3
Fore
SplineSet
434.753699719 374.200804494 m 0
 436.947722242 369.812759449 438 365.332648897 438 359 c 0
 438 311.150804323 385.969874374 26.5749388824 381.96722089 -3.44496225195 c 1
 371.98424206 -63.3428352282 361.036213437 -150.468370953 290.785162179 -203.411192191 c 1
 268.647459958 -219.51133926 233.334345641 -242 202 -242 c 0
 167.25951964 -242 144 -222.609970439 144 -205 c 0
 144 -183.464911059 160.269822004 -166 182 -166 c 0
 219.958014705 -166 225.091663414 -191 257 -191 c 0
 281.714685609 -191 288.827000356 -159.509749231 301.060038041 -101.402820227 c 0
 326.997865338 26.2910987718 366 283.832167036 366 310 c 0
 366 321.36882362 361.628691259 344 356 344 c 2
 195 344 l 0
 191.152610637 344 189.679960746 343.702842612 189.679960746 343.702842612 c 1
 189.391099441 343.22018828 188.87503493 340.542182284 187.960198074 335.510579575 c 1
 180.982419389 288.659779835 148.965176987 58.543965296 130.963288896 -54.4678877204 c 0
 127.914284054 -73.7782517225 102.098778708 -186.420932007 35.7853346786 -236.411066736 c 1
 13.9537762612 -252.288563767 -17.6353373681 -279 -57 -279 c 0
 -90.2986089306 -279 -128 -257.404192682 -128 -240 c 0
 -128 -219.532691589 -97.2790894194 -196 -76 -196 c 0
 -48.0615833212 -196 -27.522330407 -220 5 -220 c 0
 46.8402157861 -220 57.731150552 -105.441842878 66.0370432123 -53.5300137509 c 0
 88.8752049375 90.449701473 118.79566204 330.394603439 118.974647486 335.312256364 c 1
 119.175483562 343.869619587 118.763574429 344 118 344 c 0
 42 344 l 0
 35.7189491424 344 32 345.615821784 32 353 c 0
 32 357.472112221 33.0423862225 362.538861767 34.0722583361 366.658350221 c 0
 35.2162235506 372.378176294 38.0095646695 375 44 375 c 0
 117 375 l 0
 124.985968625 375 123.025982282 372.435550055 124.012320381 384.271607238 c 0
 126.033740618 406.507229845 136.926268096 489.647780992 166.387518613 542.474850884 c 1
 178.578795416 563.80958529 217.769328776 621.176964211 277.488386923 655.591336703 c 0
 301.934016759 669.85128744 342.260357245 684 379 684 c 0
 412.085942928 684 455 662.640552389 455 645 c 0
 455 624.180938615 418.90369517 601 398 601 c 0
 369.555926609 601 340.08495785 638 308 638 c 0
 274.433215514 638 241.791770889 595.885480281 224.859372801 544.092262603 c 0
 204.978003205 481.465948375 195.977164829 405.626950371 191.969848481 377.575735931 c 0
 191.947962186 377.422531868 l 1
 191.9104275 377.272393125 l 0
 191.804093736 376.847058068 192.877382277 375 197 375 c 0
 279 375 l 0
 369.747990146 375 376.077024759 386 414 386 c 0
 421.363459209 386 431.079799718 383.997871165 434.753699719 374.200804494 c 0
EndSplineSet
Ligature2: "'liga' Standard Ligatures in Latin lookup 13 subtable" f j
LCarets2: 1 0 
EndChar

StartChar: f_f_j
Encoding: 65542 -1 82
Width: 755
VWidth: 0
Flags: HW
AnchorPoint: "r;o" 745 200 basechar 0
AnchorPoint: "r;x" 755 380 basechar 0
AnchorPoint: "r;bl" 735 10 basechar 0
AnchorPoint: "r;k;hi" 689 650 basechar 0
AnchorPoint: "l;bl" 0 10 basechar 0
AnchorPoint: "l;x" 0 380 basechar 0
AnchorPoint: "l;o" 0 200 basechar 0
AnchorPoint: "l;k;lo" -30 -260 basechar 0
LayerCount: 3
Fore
SplineSet
436 594 m 0
 420.826404136 594 408.156373221 602.632239073 397.135156667 611.649598072 c 0
 384.081604959 621.690791693 359.411543439 641 339 641 c 0
 281.176479803 641 233.74863454 580.670838468 216.897844155 518.223791744 c 0
 201.964401242 462.472271536 192 400.399028653 192 377 c 0
 192 376.953972685 193.309541584 375 197 375 c 2
 364 375 l 2
 371.985757128 375 369.984235489 372.448897265 371.011278235 384.259888849 c 0
 373.033922698 407.520300173 385.914304708 500.638890284 417.476464574 549.622272774 c 0
 426.533985611 563.67923273 441.959439928 583.172342768 454.470331064 597.662067872 c 1
 448.090782493 595.5629906 443.031151171 594 436 594 c 0
681.753699719 374.200804494 m 0
 683.947722242 369.812759449 685 365.332648897 685 359 c 0
 685 311.150804323 632.969874374 26.5749388824 628.96722089 -3.44496225195 c 0
 618.98424206 -63.3428352283 608.036213437 -150.468370953 537.785162179 -203.411192191 c 0
 515.647459958 -219.51133926 480.334345641 -242 449 -242 c 0
 414.25951964 -242 391 -222.609970439 391 -205 c 0
 391 -183.464911059 407.269822004 -166 429 -166 c 0
 466.958014705 -166 472.091663414 -191 504 -191 c 0
 528.714685609 -191 535.827000356 -159.509749231 548.060038041 -101.402820227 c 0
 573.997865338 26.2910987718 613 283.832167036 613 310 c 0
 613 321.36882362 608.628691259 344 603 344 c 2
 442 344 l 2
 438.152610637 344 436.679960746 343.702842612 436.679960746 343.702842612 c 2
 436.391099441 343.22018828 435.87503493 340.542182284 434.960198074 335.510579575 c 0
 427.982616538 288.661103547 405.810624535 129.550449084 386.960482995 15.5146749188 c 0
 376.822543828 -45.8157792273 345.873774174 -145.351272073 287.006894195 -198.229882439 c 0
 266.808074681 -216.3739646 231.33402968 -242 194 -242 c 0
 163.233461382 -242 126 -226.759979184 126 -210 c 0
 126 -190.50497862 155.693310528 -168 176 -168 c 0
 202.285990562 -168 223.023046487 -183 254 -183 c 0
 303.819935457 -183 316.64403493 -47.4398622958 324.030976094 4.42999656567 c 0
 344.653471922 149.237694928 366 330.742827091 366 336 c 2
 366 340 l 2
 366 342.296685 365.560116502 343.862187268 365.514996657 343.937387011 c 2
 365.162217296 344.019711368 l 2
 365.14883676 344.007313055 365.098778488 344.000000196 365 344 c 2
 195 344 l 2
 191.152610637 344 189.679960746 343.702842612 189.679960746 343.702842612 c 2
 189.391099441 343.22018828 188.87503493 340.542182284 187.960198074 335.510579575 c 0
 180.982419389 288.659779835 148.88815017 58.556181234 130.963288896 -54.4678877204 c 0
 127.901125307 -73.7761648332 102.098778708 -186.420932007 35.7853346786 -236.411066736 c 0
 13.9537762612 -252.288563767 -17.6353373681 -279 -57 -279 c 0
 -90.2986089306 -279 -128 -257.404192682 -128 -240 c 0
 -128 -219.532691589 -97.2790894194 -196 -76 -196 c 0
 -48.0615833212 -196 -27.522330407 -220 5 -220 c 0
 46.8402157861 -220 57.731150552 -105.441842878 66.0370432123 -53.5300137509 c 0
 88.8752049375 90.449701473 118.79566204 330.394603439 118.974647486 335.312256364 c 0
 119.175483562 343.869619587 118.763574429 344 118 344 c 2
 42 344 l 2
 35.7189491424 344 32 345.615821784 32 353 c 0
 32 357.472112221 33.0423862225 362.538861767 34.0722583361 366.658350221 c 0
 35.2162235506 372.378176294 38.0095646695 375 44 375 c 2
 117 375 l 2
 124.986742174 375 123.023940242 372.41206664 124.014594405 384.299916593 c 0
 126.041615435 401.529595351 131.055180661 438.671119449 148.179591805 487.022397971 c 0
 177.396586905 567.621005145 260.069791103 674 378 674 c 0
 423.915748323 674 466.620663797 649.938076614 478.502346014 632.655629754 c 0
 480.667858886 629.252680956 482.181166896 626.015291628 482.553647669 625.270330082 c 2
 487.981981618 630.21982022 l 2
 499.292235199 640.50186893 511.435571353 647.559814107 524.457832956 655.573513555 c 0
 548.968226694 669.871243236 589.244795839 684 626 684 c 0
 659.085942928 684 702 662.640552389 702 645 c 0
 702 624.180938615 665.90369517 601 645 601 c 0
 616.555926609 601 587.08495785 638 555 638 c 0
 521.433215514 638 488.791770889 595.885480281 471.859372801 544.092262603 c 0
 452.020139779 481.598678582 442.917476972 405.353118706 439 377.786612099 c 1
 439 377 l 2
 439 376.953972685 440.309541584 375 444 375 c 2
 526 375 l 2
 616.747990146 375 623.077024759 386 661 386 c 0
 668.363459209 386 678.079799718 383.997871165 681.753699719 374.200804494 c 0
EndSplineSet
Ligature2: "'liga' Standard Ligatures in Latin lookup 13 subtable" f f j
LCarets2: 2 0 0 
EndChar

StartChar: f_b
Encoding: 65543 -1 83
Width: 732
VWidth: 0
Flags: HW
AnchorPoint: "r;o" 732 200 basechar 0
AnchorPoint: "r;x" 732 380 basechar 0
AnchorPoint: "r;bl" 712 10 basechar 0
AnchorPoint: "l;k;lo" -30 -260 basechar 0
AnchorPoint: "l;o" 0 200 basechar 0
AnchorPoint: "l;x" 0 380 basechar 0
AnchorPoint: "l;bl" 0 10 basechar 0
LayerCount: 3
Fore
SplineSet
422.733384694 664.449961479 m 0
 428.382645555 660.683787572 430.800485982 658.772932446 430.904222234 658.728402976 c 1
 431.653202957 658.934709044 433.918813656 660.313508794 438.658359214 662.683281573 c 0
 438.72711613 662.717660031 l 1
 438.797543498 662.748472005 l 0
 454.454842671 669.598540393 475.592706684 685 483 685 c 0
 491.89931063 685 498 680.850399659 498 672 c 0
 498 663.042131715 465.00772178 451.768731843 457.955635264 413.485976476 c 0
 448.162698699 357.176591223 421.70741257 225.549917123 412.341990966 179.200095598 c 1
 428.96738289 206.303717068 463.631164325 261.841533973 490.595117575 297.793471639 c 0
 534.525880049 356.700630412 562.578090993 391 629 391 c 0
 661.717484811 391 682.563704595 379.678936092 695.121320344 367.121320344 c 0
 707.930583334 354.312057353 710 339.197158975 710 323 c 0
 710 116.424875965 535.044845903 -11 449 -11 c 0
 402.352417279 -11 366.984270078 17 361 17 c 0
 359.561991691 17 350.221179981 13.2564880244 342.341640786 9.316718427 c 0
 342.23003082 9.2609134436 l 1
 342.114172029 9.21456992734 l 0
 337.248598857 7.26834065842 324.092114344 1 314 1 c 0
 304.588508395 1 301 6.5885083954 301 12 c 0
 301 21.931246675 312.920733445 34.2894270811 314.503849117 36.6641005887 c 0
 314.550038521 36.7333846944 l 1
 314.6 36.8 l 0
 320.422087602 44.5627834687 320.033621932 45.480615379 322.060301943 54.6006754288 c 1
 346.69461087 186.640571276 399.650785748 504.028150612 408.682076626 618.86195165 c 1
 406.312773283 617.828073828 406.714338425 618.003067246 405.341640786 617.316718427 c 0
 398.578616694 613.935206381 389.297878488 613 383 613 c 0
 364.91453619 613 352.180335853 622.572552296 339.617712761 629.337041653 c 1
 331.460394029 633.415701019 323.77629992 638 317 638 c 0
 306.178729992 638 294.651598198 631.494632221 281.722377251 622.543633105 c 1
 214.502360388 574.8076791 196.022012469 423.707434339 192.005609095 376.939011532 c 1
 192.076250505 376.65308202 193.838129766 375 197 375 c 2
 279 375 l 0
 282.849714883 375 287 373.959301898 287 370 c 0
 287 365.548346394 286.041964896 358.639061707 284.846049894 355.051316702 c 1
 284.846049894 355.051316702 281.635736617 344 275 344 c 0
 195 344 l 0
 191.152610637 344 189.679960746 343.702842612 189.679960746 343.702842612 c 1
 189.391099441 343.22018828 188.87503493 340.542182284 187.960198074 335.510579575 c 1
 180.982419389 288.659779835 148.965176987 58.543965296 130.963288896 -54.4678877204 c 0
 127.914284054 -73.7782517225 102.098778708 -186.420932007 35.7853346786 -236.411066736 c 1
 13.9537762612 -252.288563767 -17.6353373681 -279 -57 -279 c 0
 -90.2986089306 -279 -128 -257.404192682 -128 -240 c 0
 -128 -219.532691589 -97.2790894194 -196 -76 -196 c 0
 -48.0615833212 -196 -27.522330407 -220 5 -220 c 0
 46.8402157861 -220 57.731150552 -105.441842878 66.0370432123 -53.5300137509 c 0
 88.8752049375 90.449701473 118.79566204 330.394603439 118.974647486 335.312256364 c 1
 119.175483562 343.869619587 118.763574429 344 118 344 c 0
 42 344 l 0
 35.7189491424 344 32 345.615821784 32 353 c 0
 32 357.472112221 33.0423862225 362.538861767 34.0722583361 366.658350221 c 0
 35.2162235506 372.378176294 38.0095646695 375 44 375 c 0
 117 375 l 0
 124.985968625 375 123.025982282 372.435550055 124.012320381 384.271607238 c 0
 125.037674779 395.550505617 129.039285951 419.496974994 135.067049861 448.631167224 c 1
 154.184303524 534.155723086 184.704042789 579.989616639 241.059453742 627.287907975 c 1
 269.407573121 651.586296014 320.881282458 681 371 681 c 0
 392.678729089 681 410.247953465 673.814034902 422.733384694 664.449961479 c 0
394 80 m 0
 394 51.4955907248 412.596993561 23 459 23 c 0
 544.722656644 23 635 211.60829241 635 282 c 0
 635 306.900846397 626.139313329 338 596 338 c 0
 559.792057429 338 535.502790364 308.34255382 515.434106491 280.246396399 c 0
 448.341133664 187.117344565 394 109.923602826 394 80 c 0
EndSplineSet
Ligature2: "'liga' Standard Ligatures in Latin lookup 13 subtable" f b
LCarets2: 1 0 
EndChar

StartChar: f_h
Encoding: 65544 -1 84
Width: 766
VWidth: 0
Flags: HW
AnchorPoint: "r;o" 766 200 basechar 0
AnchorPoint: "r;x" 766 380 basechar 0
AnchorPoint: "r;bl" 746 10 basechar 0
AnchorPoint: "l;bl" 0 10 basechar 0
AnchorPoint: "l;x" 0 380 basechar 0
AnchorPoint: "l;o" 0 200 basechar 0
AnchorPoint: "l;k;lo" -30 -260 basechar 0
AnchorPoint: "top" 564 780 basechar 0
LayerCount: 3
Fore
SplineSet
422.733384694 664.449961479 m 0
 428.382645555 660.683787572 430.800485982 658.772932446 430.904222234 658.728402976 c 1
 431.653202957 658.934709044 433.918813656 660.313508794 438.658359214 662.683281573 c 0
 438.72711613 662.717660031 l 1
 438.797543498 662.748472005 l 0
 454.454842671 669.598540393 475.592706684 685 483 685 c 0
 491.89931063 685 498 680.850399659 498 672 c 0
 498 651.736156627 494.97901562 618.636711594 488.969396903 578.572586809 c 0
 471.369071686 456.296643199 433.055662744 260.504352722 410.162300112 147.94177716 c 1
 428.618712429 186.381571158 465.792766429 257.949820523 514.689935317 316.914053594 c 0
 543.847175334 352.103826028 580.707577503 386 641 386 c 0
 673.714573422 386 703 371.255922481 703 335 c 0
 703 268.982931574 636 94.4289214997 636 67 c 0
 636 57.1898857221 641.966842378 48 654 48 c 0
 677.515734415 48 740.546753853 135 749 135 c 0
 753.854751577 135 764 126.863261336 764 122 c 0
 764 114.477384267 684.051938216 -3 606 -3 c 0
 581.674044335 -3 562 13.1275452208 562 38 c 0
 562 72.578376113 635 256.176477809 635 307 c 0
 635 327.936100933 623.973398474 343 604 343 c 0
 557.66842921 343 506.838683487 265.898119089 465.578607664 197.466773821 c 0
 443.565451361 160.444647311 420.713378021 123.526868927 411.907615861 90.2606563241 c 1
 391.921869946 8.31909807032 l 1
 388.986457358 -4.89025857669 332.497590751 -5 331 -5 c 0
 323.418220833 -5 320 -0.13831636001 320 6 c 0
 320 14.6768809696 384.609374845 278.93318842 418.578217282 621.863275113 c 1
 413.729089043 620.397879217 407.493089995 618.392443031 405.341640786 617.316718427 c 0
 398.578616694 613.935206381 389.297878488 613 383 613 c 0
 364.91453619 613 352.180335853 622.572552296 339.617712761 629.337041653 c 1
 331.460394029 633.415701019 323.77629992 638 317 638 c 0
 306.178729992 638 294.651598198 631.494632221 281.722377251 622.543633105 c 1
 214.502360388 574.8076791 196.022012469 423.707434339 192.005609095 376.939011532 c 1
 192.076250505 376.65308202 193.838129766 375 197 375 c 0
 279 375 l 0
 282.849714883 375 287 373.959301898 287 370 c 0
 287 365.548346394 286.041964896 358.639061707 284.846049894 355.051316702 c 1
 284.846049894 355.051316702 281.635736617 344 275 344 c 0
 195 344 l 0
 191.152610637 344 189.679960746 343.702842612 189.679960746 343.702842612 c 1
 189.391099441 343.22018828 188.87503493 340.542182284 187.960198074 335.510579575 c 1
 180.982419389 288.659779835 148.965176987 58.543965296 130.963288896 -54.4678877204 c 0
 127.914284054 -73.7782517225 102.098778708 -186.420932007 35.7853346786 -236.411066736 c 1
 13.9537762612 -252.288563767 -17.6353373681 -279 -57 -279 c 0
 -90.2986089306 -279 -128 -257.404192682 -128 -240 c 0
 -128 -219.532691589 -97.2790894194 -196 -76 -196 c 0
 -48.0615833212 -196 -27.522330407 -220 5 -220 c 0
 46.8402157861 -220 57.731150552 -105.441842878 66.0370432123 -53.5300137509 c 0
 88.8752049375 90.449701473 118.79566204 330.394603439 118.974647486 335.312256364 c 1
 119.175483562 343.869619587 118.763574429 344 118 344 c 0
 42 344 l 0
 35.7189491424 344 32 345.615821784 32 353 c 0
 32 357.472112221 33.0423862225 362.538861767 34.0722583361 366.658350221 c 0
 35.2162235506 372.378176294 38.0095646695 375 44 375 c 0
 117 375 l 0
 124.985968625 375 123.025982282 372.435550055 124.012320381 384.271607238 c 0
 125.037674779 395.550505617 129.039285951 419.496974994 135.067049861 448.631167224 c 1
 154.184303524 534.155723086 184.704042789 579.989616639 241.059453742 627.287907975 c 1
 269.407573121 651.586296014 320.881282458 681 371 681 c 0
 392.678729089 681 410.247953465 673.814034902 422.733384694 664.449961479 c 0
EndSplineSet
Ligature2: "'liga' Standard Ligatures in Latin lookup 13 subtable" f h
LCarets2: 1 0 
EndChar

